<svg width="1544" height="210" xmlns="http://www.w3.org/2000/svg" xmlns:xlink="http://www.w3.org/1999/xlink" xml:space="preserve" overflow="hidden"><g transform="translate(-719 -1017)"><path d="M1108.42 1072.21C1104.43 1072.21 1099.3 1072.96 1093.03 1074.45L1093.03 1140.89C1097.18 1141.67 1100.86 1142.26 1104.07 1142.66 1107.28 1143.05 1110.02 1143.25 1112.29 1143.25 1120.44 1143.25 1127.46 1140.08 1133.38 1133.76 1139.29 1127.44 1142.24 1119.25 1142.24 1109.2 1142.24 1102.29 1140.83 1095.87 1138.01 1089.94 1135.2 1084.01 1131.2 1079.57 1126.04 1076.63 1120.87 1073.68 1115 1072.21 1108.42 1072.21ZM2004.97 1071.62C2000.42 1071.62 1994.28 1072.37 1986.53 1073.86L1986.53 1140.3C1988.02 1140.3 1989.31 1140.32 1990.4 1140.36 1991.5 1140.4 1992.4 1140.42 1993.1 1140.42 2008.29 1140.42 2019.74 1137.12 2027.46 1130.52 2035.17 1123.93 2039.02 1115.52 2039.02 1105.31 2039.02 1095.34 2035.91 1087.23 2029.69 1080.99 2023.46 1074.74 2015.22 1071.62 2004.97 1071.62ZM1393.35 1071.62C1388.81 1071.62 1382.66 1072.37 1374.91 1073.86L1374.91 1140.3C1376.4 1140.3 1377.69 1140.32 1378.78 1140.36 1379.88 1140.4 1380.78 1140.42 1381.49 1140.42 1396.67 1140.42 1408.13 1137.12 1415.84 1130.52 1423.55 1123.93 1427.41 1115.52 1427.41 1105.31 1427.41 1095.34 1424.29 1087.23 1418.07 1080.99 1411.84 1074.74 1403.6 1071.62 1393.35 1071.62ZM2184.31 1067.62C2170.06 1067.62 2158.63 1072.92 2150.02 1083.52 2139.29 1096.71 2133.93 1116.03 2133.93 1141.48 2133.93 1167.55 2139.49 1187.62 2150.61 1201.68 2159.14 1212.36 2170.42 1217.7 2184.43 1217.7 2199.38 1217.7 2211.74 1211.85 2221.48 1200.14 2231.23 1188.44 2236.1 1169.99 2236.1 1144.78 2236.1 1117.45 2230.74 1097.07 2220.02 1083.64 2211.4 1072.96 2199.5 1067.62 2184.31 1067.62ZM1941.19 1062.67 1999.21 1062.67C2016.12 1062.67 2028.59 1063.9 2036.62 1066.38 2044.64 1068.85 2051.45 1073.41 2057.05 1080.04 2062.65 1086.68 2065.45 1094.59 2065.45 1103.78 2065.45 1113.6 2062.26 1122.12 2055.88 1129.34 2049.5 1136.57 2039.61 1141.67 2026.22 1144.66L2059.11 1190.48C2066.62 1201.01 2073.08 1208 2078.49 1211.45 2083.89 1214.91 2090.94 1217.11 2099.63 1218.05L2099.63 1222.41 2057.11 1222.41 2003.2 1147.72C1999.21 1147.88 1995.96 1147.96 1993.46 1147.96 1992.44 1147.96 1991.34 1147.94 1990.17 1147.9 1988.99 1147.86 1987.78 1147.8 1986.53 1147.72L1986.53 1194.14C1986.53 1204.19 1987.62 1210.43 1989.82 1212.87 1992.79 1216.32 1997.25 1218.05 2003.2 1218.05L2009.43 1218.05 2009.43 1222.41 1941.19 1222.41 1941.19 1218.05 1947.18 1218.05C1953.92 1218.05 1958.73 1215.85 1961.63 1211.45 1963.27 1209.02 1964.1 1203.25 1964.1 1194.14L1964.1 1090.94C1964.1 1080.89 1963 1074.64 1960.81 1072.21 1957.75 1068.75 1953.21 1067.03 1947.18 1067.03L1941.19 1067.03ZM1705.99 1062.67 1774.22 1062.67 1774.22 1067.03 1768.47 1067.03C1761.97 1067.03 1757.23 1068.95 1754.25 1072.8 1752.3 1075.31 1751.32 1081.36 1751.32 1090.94L1751.32 1194.14C1751.32 1202.23 1751.83 1207.57 1752.85 1210.16 1753.63 1212.12 1755.27 1213.81 1757.78 1215.22 1761.14 1217.11 1764.71 1218.05 1768.47 1218.05L1774.22 1218.05 1774.22 1222.41 1705.99 1222.41 1705.99 1218.05 1711.62 1218.05C1718.2 1218.05 1722.98 1216.13 1725.95 1212.28 1727.83 1209.76 1728.77 1203.72 1728.77 1194.14L1728.77 1090.94C1728.77 1082.85 1728.26 1077.51 1727.24 1074.92 1726.46 1072.96 1724.85 1071.27 1722.43 1069.85 1718.98 1067.97 1715.38 1067.03 1711.62 1067.03L1705.99 1067.03ZM1490.95 1062.67 1536.05 1062.67 1593.83 1187.66 1650.68 1062.67 1695.77 1062.67 1695.77 1067.03 1690.25 1067.03C1683.44 1067.03 1678.63 1069.07 1675.81 1073.15 1674.09 1075.67 1673.23 1081.4 1673.23 1090.35L1673.23 1194.72C1673.23 1204.54 1674.32 1210.67 1676.51 1213.1 1679.41 1216.4 1683.99 1218.05 1690.25 1218.05L1695.77 1218.05 1695.77 1222.41 1628.13 1222.41 1628.13 1218.05 1633.76 1218.05C1640.58 1218.05 1645.35 1216.01 1648.09 1211.92 1649.81 1209.41 1650.68 1203.68 1650.68 1194.72L1650.68 1088 1589.25 1222.41 1585.38 1222.41 1523.84 1088 1523.84 1194.72C1523.84 1204.54 1524.89 1210.67 1527.01 1213.1 1529.9 1216.4 1534.49 1218.05 1540.75 1218.05L1546.39 1218.05 1546.39 1222.41 1490.95 1222.41 1490.95 1218.05 1496.59 1218.05C1503.32 1218.05 1508.1 1216.01 1510.92 1211.92 1512.64 1209.41 1513.5 1203.68 1513.5 1194.72L1513.5 1090.35C1513.5 1083.28 1512.72 1078.18 1511.15 1075.04 1510.06 1072.76 1508.04 1070.85 1505.1 1069.32 1502.17 1067.79 1497.45 1067.03 1490.95 1067.03ZM1329.58 1062.67 1387.59 1062.67C1404.5 1062.67 1416.97 1063.9 1425 1066.38 1433.02 1068.85 1439.84 1073.41 1445.43 1080.04 1451.03 1086.68 1453.83 1094.59 1453.83 1103.78 1453.83 1113.6 1450.64 1122.12 1444.26 1129.34 1437.88 1136.57 1427.99 1141.67 1414.6 1144.66L1447.49 1190.48C1455.01 1201.01 1461.46 1208 1466.87 1211.45 1472.27 1214.91 1479.32 1217.11 1488.01 1218.05L1488.01 1222.41 1445.49 1222.41 1391.59 1147.72C1387.59 1147.88 1384.34 1147.96 1381.84 1147.96 1380.82 1147.96 1379.72 1147.94 1378.55 1147.9 1377.37 1147.86 1376.16 1147.8 1374.91 1147.72L1374.91 1194.14C1374.91 1204.19 1376 1210.43 1378.2 1212.87 1381.17 1216.32 1385.64 1218.05 1391.59 1218.05L1397.81 1218.05 1397.81 1222.41 1329.58 1222.41 1329.58 1218.05 1335.57 1218.05C1342.3 1218.05 1347.11 1215.85 1350.01 1211.45 1351.65 1209.02 1352.48 1203.25 1352.48 1194.14L1352.48 1090.94C1352.48 1080.89 1351.38 1074.64 1349.19 1072.21 1346.13 1068.75 1341.59 1067.03 1335.57 1067.03L1329.58 1067.03ZM1182.65 1062.67 1305.38 1062.67 1307.14 1097.66 1302.56 1097.66C1300.91 1089.25 1299.09 1083.48 1297.1 1080.34 1295.1 1077.2 1292.14 1074.8 1288.23 1073.15 1285.1 1071.97 1279.58 1071.39 1271.67 1071.39L1227.98 1071.39 1227.98 1134.53 1262.98 1134.53C1272.06 1134.53 1278.13 1133.15 1281.18 1130.4 1285.25 1126.79 1287.52 1120.43 1287.99 1111.32L1292.34 1111.32 1292.34 1166.92 1287.99 1166.92C1286.9 1159.15 1285.8 1154.16 1284.71 1151.96 1283.3 1149.21 1280.99 1147.05 1277.78 1145.48 1274.57 1143.91 1269.63 1143.13 1262.98 1143.13L1227.98 1143.13 1227.98 1195.79C1227.98 1202.85 1228.29 1207.15 1228.92 1208.68 1229.55 1210.22 1230.64 1211.43 1232.21 1212.34 1233.77 1213.24 1236.75 1213.69 1241.13 1213.69L1268.15 1213.69C1277.15 1213.69 1283.69 1213.06 1287.76 1211.81 1291.83 1210.55 1295.75 1208.08 1299.5 1204.38 1304.36 1199.52 1309.33 1192.17 1314.42 1182.36L1319.12 1182.36 1305.38 1222.41 1182.65 1222.41 1182.65 1218.05 1188.28 1218.05C1192.04 1218.05 1195.6 1217.15 1198.97 1215.34 1201.48 1214.08 1203.18 1212.2 1204.08 1209.69 1204.98 1207.17 1205.43 1202.03 1205.43 1194.25L1205.43 1090.47C1205.43 1080.34 1204.41 1074.09 1202.38 1071.74 1199.56 1068.6 1194.86 1067.03 1188.28 1067.03L1182.65 1067.03ZM1047.7 1062.67 1106.07 1062.67C1120.32 1062.67 1131.56 1064.14 1139.78 1067.09 1148 1070.03 1154.93 1075 1160.56 1081.99 1166.2 1088.98 1169.02 1097.26 1169.02 1106.84 1169.02 1119.88 1164.73 1130.48 1156.16 1138.65 1147.59 1146.82 1135.47 1150.9 1119.81 1150.9 1115.97 1150.9 1111.83 1150.63 1107.36 1150.08 1102.9 1149.53 1098.12 1148.7 1093.03 1147.6L1093.03 1194.14C1093.03 1204.19 1094.13 1210.43 1096.32 1212.87 1099.3 1216.32 1103.8 1218.05 1109.83 1218.05L1115.94 1218.05 1115.94 1222.41 1047.7 1222.41 1047.7 1218.05 1053.69 1218.05C1060.42 1218.05 1065.24 1215.85 1068.14 1211.45 1069.7 1209.02 1070.48 1203.25 1070.48 1194.14L1070.48 1090.94C1070.48 1080.89 1069.43 1074.64 1067.31 1072.21 1064.26 1068.75 1059.72 1067.03 1053.69 1067.03L1047.7 1067.03ZM869.76 1062.67 938.582 1062.67 938.582 1067.03 932.475 1067.03C925.899 1067.03 921.201 1069.11 918.382 1073.27 916.425 1076.1 915.446 1081.99 915.446 1090.94L915.446 1160.56C915.446 1166.77 916.014 1173.87 917.149 1181.88 918.284 1189.9 920.34 1196.14 923.315 1200.62 926.29 1205.09 930.577 1208.78 936.175 1211.69 941.773 1214.59 948.643 1216.05 956.786 1216.05 967.2 1216.05 976.517 1213.77 984.738 1209.21 992.959 1204.66 998.576 1198.83 1001.59 1191.72 1004.61 1184.61 1006.11 1172.58 1006.11 1155.61L1006.11 1090.94C1006.11 1080.97 1005.02 1074.72 1002.82 1072.21 999.771 1068.75 995.229 1067.03 989.2 1067.03L983.211 1067.03 983.211 1062.67 1039.58 1062.67 1039.58 1067.03 1033.59 1067.03C1027.33 1067.03 1022.52 1069.66 1019.15 1074.92 1017.5 1077.35 1016.68 1083.01 1016.68 1091.88L1016.68 1156.67C1016.68 1172.7 1015.1 1185.12 1011.93 1193.96 1008.75 1202.79 1002.53 1210.37 993.252 1216.7 983.974 1223.02 971.349 1226.18 955.377 1226.18 937.995 1226.18 924.802 1223.15 915.799 1217.11 906.794 1211.06 900.413 1202.93 896.655 1192.72 894.15 1185.73 892.897 1172.62 892.897 1153.38L892.897 1090.94C892.897 1081.12 891.546 1074.68 888.845 1071.62 886.144 1068.56 881.779 1067.03 875.75 1067.03L869.76 1067.03ZM2186.54 1059.02C2207.21 1059.02 2225.12 1066.89 2240.27 1082.64 2255.42 1098.38 2263 1118.04 2263 1141.6 2263 1165.86 2255.37 1186.01 2240.1 1202.03 2224.83 1218.05 2206.35 1226.06 2184.66 1226.06 2162.74 1226.06 2144.32 1218.25 2129.41 1202.62 2114.49 1186.99 2107.03 1166.77 2107.03 1141.95 2107.03 1116.58 2115.65 1095.89 2132.87 1079.87 2147.83 1065.97 2165.72 1059.02 2186.54 1059.02ZM1865.32 1059.02C1876.83 1059.02 1888.18 1061.84 1899.37 1067.5 1902.66 1069.23 1905.01 1070.09 1906.42 1070.09 1908.54 1070.09 1910.37 1069.34 1911.94 1067.85 1913.98 1065.73 1915.43 1062.79 1916.29 1059.02L1920.4 1059.02 1924.04 1113.32 1920.4 1113.32C1915.54 1097.07 1908.61 1085.36 1899.61 1078.22 1890.61 1071.07 1879.8 1067.5 1867.19 1067.5 1856.63 1067.5 1847.07 1070.19 1838.54 1075.57 1830 1080.95 1823.29 1089.53 1818.4 1101.31 1813.5 1113.09 1811.06 1127.73 1811.06 1145.25 1811.06 1159.7 1813.37 1172.22 1817.99 1182.83 1822.61 1193.43 1829.55 1201.56 1838.83 1207.21 1848.11 1212.87 1858.7 1215.69 1870.6 1215.69 1880.94 1215.69 1890.06 1213.48 1897.96 1209.04 1905.87 1204.6 1914.56 1195.79 1924.04 1182.59L1927.68 1184.95C1919.69 1199.16 1910.37 1209.57 1899.73 1216.17 1889.08 1222.76 1876.43 1226.06 1861.79 1226.06 1835.41 1226.06 1814.97 1216.24 1800.49 1196.61 1789.68 1182 1784.28 1164.8 1784.28 1145.01 1784.28 1129.07 1787.84 1114.42 1794.97 1101.07 1802.09 1087.72 1811.9 1077.37 1824.39 1070.03 1836.87 1062.69 1850.52 1059.02 1865.32 1059.02ZM777.614 1017C788.245 1017 799.515 1019.62 811.425 1024.85 816.937 1027.32 820.825 1028.55 823.088 1028.55 825.648 1028.55 827.739 1027.79 829.363 1026.26 830.987 1024.73 832.292 1021.64 833.276 1017L838.739 1017 838.739 1086.46 833.276 1086.46C831.504 1073.13 828.33 1062.52 823.753 1054.62 819.176 1046.72 812.655 1040.45 804.19 1035.81 795.725 1031.17 786.965 1028.85 777.91 1028.85 767.673 1028.85 759.208 1031.98 752.515 1038.25 745.822 1044.52 742.475 1051.65 742.475 1059.65 742.475 1065.77 744.591 1071.35 748.824 1076.39 754.927 1083.79 769.445 1093.66 792.379 1106.01 811.08 1116.08 823.851 1123.8 830.692 1129.18 837.533 1134.56 842.799 1140.91 846.49 1148.21 850.181 1155.52 852.027 1163.17 852.027 1171.17 852.027 1186.37 846.146 1199.48 834.383 1210.49 822.621 1221.5 807.487 1227 788.983 1227 783.176 1227 777.713 1226.56 772.594 1225.67 769.543 1225.17 763.219 1223.37 753.622 1220.26 744.025 1217.15 737.948 1215.6 735.388 1215.6 732.928 1215.6 730.984 1216.34 729.557 1217.82 728.129 1219.3 727.071 1222.36 726.382 1227L720.919 1227 720.919 1158.14 726.382 1158.14C728.941 1172.55 732.387 1183.34 736.717 1190.49 741.048 1197.65 747.668 1203.6 756.575 1208.34 765.483 1213.08 775.252 1215.45 785.882 1215.45 798.186 1215.45 807.906 1212.19 815.042 1205.67 822.178 1199.16 825.746 1191.46 825.746 1182.57 825.746 1177.63 824.393 1172.65 821.686 1167.61 818.979 1162.58 814.771 1157.89 809.062 1153.54 805.224 1150.58 794.741 1144.29 777.614 1134.66 760.488 1125.04 748.307 1117.36 741.073 1111.63 733.838 1105.91 728.351 1099.59 724.61 1092.68 720.87 1085.77 719 1078.16 719 1069.87 719 1055.46 724.512 1043.04 735.536 1032.62 746.56 1022.21 760.586 1017 777.614 1017Z" fill="#FFFFFF" fill-rule="evenodd"/></g></svg>