<?xml version="1.0" encoding="UTF-8"?> <svg xmlns="http://www.w3.org/2000/svg" width="50" height="50" viewBox="0 0 50 50" fill="none"><path d="M18.75 5V10H23.75V5H26.25V10H31.25V5H33.75V10H40V16.25H45V18.75H40V23.75H45V26.25H40V31.25H45V33.75H40V40H33.75V45H31.25V40H26.25V45H23.75V40H18.75V45H16.25V40H10V33.75H5V31.25H10V26.25H5V23.75H10V18.75H5V16.25H10V10H16.25V5H18.75ZM37.5 12.5H12.5V37.5H37.5V12.5ZM30 18.75H32.5V31.25H30V18.75ZM15.6172 31.25L15.7891 30.8047L17.5 26.3125V26.25H17.5234L20.0781 19.5547L20.3828 18.75H22.1016L22.4062 19.5547L24.9609 26.25H24.9844V26.3125L26.6953 30.8047L26.8672 31.25H24.1875L23.2344 28.75H19.2266L18.2734 31.25H15.5938H15.6172ZM21.25 23.5L20.2031 26.25H22.3047L21.2578 23.5H21.25Z" fill="white"></path></svg> 