<?xml version="1.0" encoding="UTF-8"?> <svg xmlns="http://www.w3.org/2000/svg" width="210" height="80" viewBox="0 0 210 80" fill="none"><g clip-path="url(#clip0_2419_2577)"><g opacity="0.7"><path d="M78.7218 43.694C80.3876 40.7463 82.8408 37.7986 85.5667 35.5427C89.9583 31.9031 95.2283 29.587 100.801 28.8652C101.104 28.8351 101.377 28.7749 101.407 28.7448C101.437 28.7148 103.83 24.2631 106.737 18.879C109.645 13.4648 112.038 9.07324 112.068 9.07324C112.098 9.10332 130.543 43.3632 130.785 43.8144L130.876 43.9948H129.362H127.848L127.484 43.4534C125.758 40.8967 123.486 38.5205 121.003 36.6857C117.308 33.9485 113.098 32.2039 108.494 31.5422C108.131 31.482 107.676 31.4219 107.464 31.4219C107.252 31.3918 107.071 31.3918 107.071 31.3617C107.071 31.3316 108.373 28.8952 108.403 28.8652C108.434 28.8351 109.736 29.0456 110.432 29.1659C114.582 29.9781 118.368 31.5723 121.76 33.9485C122.366 34.3696 122.578 34.4598 122.578 34.3395C122.578 34.2794 112.189 14.9386 112.098 14.8484C112.068 14.8183 112.007 14.7882 111.977 14.8183C111.947 14.8183 108.403 21.3755 104.102 29.3464C99.8017 37.3173 96.2581 43.9046 96.2278 43.9347C96.1672 43.9948 96.0158 43.9948 94.6831 43.9948H93.1991L96.2581 38.3099C99.9531 31.4519 99.7108 31.9332 99.62 31.843C99.5594 31.7828 99.4685 31.7828 99.0445 31.9031C96.7427 32.3844 94.8043 33.0762 92.7145 34.0688C91.5333 34.6403 90.8064 35.0614 89.6858 35.7833C86.6267 37.7986 84.0826 40.3252 82.0534 43.3331L81.5991 44.0249H80.0544H78.5098L78.7218 43.694Z" fill="white" fill-opacity="0.8"></path><path d="M47.1396 69.7721C47.3214 69.3209 53.8331 55.0033 53.8634 54.9732C53.8937 54.9432 54.4994 54.9432 55.2566 54.9432C56.2864 54.9432 56.6195 54.9432 56.6498 55.0033C56.6801 55.0334 63.0101 68.99 63.313 69.6818L63.3736 69.8322H61.9804H60.5872L59.6785 67.7568C59.1637 66.6138 58.7396 65.6813 58.7396 65.6513C58.6791 65.5911 51.925 65.5911 51.8039 65.6513C51.713 65.6813 51.5313 66.0724 50.7741 67.7869L49.8655 69.8623H48.5026C47.4122 69.8322 47.1396 69.8021 47.1396 69.7721ZM57.7705 63.3653C57.7705 63.3352 57.2253 62.0117 56.559 60.4777C55.5595 58.1917 55.3172 57.6503 55.2263 57.6503C55.1658 57.6503 54.8932 58.2218 53.924 60.5078C53.2577 62.0719 52.7125 63.3653 52.7428 63.3953C52.7731 63.4555 57.7402 63.4555 57.7705 63.3653ZM68.7647 69.7721C68.7647 69.742 68.7344 66.4032 68.7647 62.3426V54.9732H70.3699C71.6117 54.9732 71.9752 54.9732 72.0357 55.0033C72.066 55.0334 73.3381 57.4096 74.8827 60.2972C76.4274 63.1848 77.6994 65.561 77.6994 65.561C77.7297 65.5911 77.76 65.5911 77.7903 65.561C77.8206 65.561 79.0624 63.2149 80.5767 60.3574C82.0911 57.4999 83.3632 55.1236 83.3934 55.0334L83.4843 54.9131H85.0895H86.6947V62.3426V69.7721H85.4833H84.2718V64.2375C84.2718 61.1093 84.2415 58.6729 84.2415 58.6429C84.2112 58.6128 84.1809 58.5827 84.1506 58.6128C84.1203 58.6128 82.9088 60.8386 81.455 63.5457L78.8201 68.4787H77.76H76.7L74.065 63.5457C72.6112 60.8386 71.3997 58.6128 71.3694 58.6128C71.3391 58.6128 71.2786 58.6128 71.2786 58.6429C71.2483 58.6729 71.2483 61.1093 71.2483 64.2375V69.7721H70.0368C69.0676 69.8322 68.795 69.8021 68.7647 69.7721ZM94.4785 69.7721C94.4785 69.742 94.4483 66.4032 94.4785 62.3426V54.9732H98.6582C102.414 54.9732 102.868 54.9732 103.353 55.0635C105.079 55.3342 106.2 56.0561 106.775 57.2592C107.229 58.2218 107.32 59.5753 107.017 60.7484C106.654 62.1922 105.655 63.275 104.201 63.6961C103.353 63.9668 103.322 63.9668 100.021 63.9969L96.9621 64.027V66.9146V69.8021H95.7506C94.7814 69.8322 94.5088 69.8021 94.4785 69.7721ZM103.05 61.741C103.474 61.6207 103.625 61.5605 103.928 61.3199C104.413 60.9589 104.685 60.3574 104.746 59.5452C104.806 58.3722 104.322 57.56 103.322 57.2292C103.02 57.1389 102.989 57.1389 100.021 57.1088C97.7799 57.1088 97.0227 57.1088 96.9621 57.1389C96.8712 57.1991 96.8712 61.7109 96.9621 61.8012C96.9924 61.8312 97.6284 61.8613 99.8697 61.8312C102.596 61.8312 102.717 61.8312 103.05 61.741ZM112.287 62.4027V54.9732H118.375H124.463V56.026V57.0788L119.587 57.1088L114.71 57.1389V59.1241V61.1093L119.344 61.1394L123.978 61.1695V62.2223V63.275L119.344 63.3051L114.71 63.3352V65.5309V67.7267H119.587H124.463V68.7795V69.8322H118.375H112.287V62.4027ZM131.126 62.4027V54.9732H135.548C139.546 54.9732 140.031 54.9732 140.485 55.0635C142.211 55.3342 143.332 56.0561 143.907 57.2592C144.24 57.9811 144.392 58.9136 144.301 59.8159C144.15 61.5004 143.423 62.6734 142.06 63.3953C141.848 63.5156 141.757 63.5758 141.757 63.636C141.757 63.666 142.514 65.0798 143.392 66.7341C144.271 68.3884 144.998 69.7721 144.998 69.8021C144.998 69.8322 144.392 69.8322 143.635 69.8322H142.272L140.727 66.9446L139.182 64.0571H136.366H133.549V66.9446V69.8322H132.338H131.126V62.4027ZM140.182 61.741C140.606 61.6207 140.757 61.5605 141.06 61.3199C141.545 60.9589 141.817 60.3574 141.878 59.5452C141.939 58.3421 141.454 57.5299 140.424 57.2292C140.091 57.1389 140.091 57.1389 136.82 57.1389H133.549V59.455C133.549 60.7183 133.549 61.8012 133.549 61.8312C133.579 61.8914 134.155 61.8914 136.699 61.8613C139.758 61.8312 139.849 61.8312 140.182 61.741ZM150.48 69.7721C150.48 69.742 150.449 66.4032 150.48 62.3426V54.9732H156.567H162.655V56.0561V57.1389H157.779H152.903V59.1241V61.1093H157.537H162.17V62.1621V63.2149L157.537 63.2449L152.903 63.275V65.4708V67.6665H157.779H162.655V68.7494V69.8322H156.567C151.752 69.8322 150.48 69.8021 150.48 69.7721Z" fill="white" fill-opacity="0.8"></path></g></g><defs><clipPath id="clip0_2419_2577"><rect width="116" height="61" fill="white" transform="translate(47 9)"></rect></clipPath></defs></svg> 