<?xml version="1.0" encoding="UTF-8"?> <svg xmlns="http://www.w3.org/2000/svg" width="210" height="80" viewBox="0 0 210 80" fill="none"><path d="M70.8083 21.9967H79.0883V57.7188H70.8083V53.9944C67.163 58.2433 62.7366 58.8203 60.1849 58.8203C49.249 58.8203 43 49.6406 43 39.8315C43 28.1864 50.9155 21.0525 60.289 21.0525C62.8928 21.0525 67.4754 21.7344 70.8083 26.1406V21.9967ZM51.4883 40.0413C51.4883 46.231 55.3419 51.4241 61.3305 51.4241C66.5381 51.4241 71.3811 47.5949 71.3811 40.1462C71.3811 32.3304 66.5902 28.606 61.3305 28.606C55.3419 28.5536 51.4883 33.6417 51.4883 40.0413ZM88.9305 21.9967H97.2105V25.1964C98.1479 24.0949 99.5018 22.8884 100.647 22.2065C102.262 21.2623 103.824 21 105.699 21C107.73 21 109.917 21.3147 112.208 22.6786L108.823 30.2321C106.949 29.0257 105.438 28.9732 104.605 28.9732C102.835 28.9732 101.064 29.2355 99.4498 30.9141C97.1584 33.3795 97.1584 36.7891 97.1584 39.1496V57.6663H88.8784L88.9305 21.9967ZM117.468 21.9967H125.748V25.3013C128.508 21.8917 131.789 21.0525 134.497 21.0525C138.194 21.0525 141.683 22.8359 143.662 26.298C146.63 22.0491 151.056 21.0525 154.181 21.0525C158.503 21.0525 162.253 23.0982 164.284 26.6652C164.961 27.8717 166.158 30.4944 166.158 35.6875V57.7712H157.878V38.1004C157.878 34.1138 157.462 32.4877 157.097 31.7533C156.576 30.3895 155.327 28.606 152.358 28.606C150.327 28.606 148.557 29.7076 147.463 31.2288C146.005 33.2746 145.849 36.317 145.849 39.3594V57.7712H137.569V38.1004C137.569 34.1138 137.152 32.4877 136.788 31.7533C136.267 30.3895 135.017 28.606 132.049 28.606C130.018 28.606 128.247 29.7076 127.154 31.2288C125.696 33.2746 125.54 36.317 125.54 39.3594V57.7712H117.468V21.9967Z" fill="white" fill-opacity="0.5"></path></svg> 