<?xml version="1.0" encoding="UTF-8"?> <svg xmlns="http://www.w3.org/2000/svg" width="50" height="50" viewBox="0 0 50 50" fill="none"><path d="M2.5 13.75L25 5L47.5 13.75V23.0703L45.0156 24.5V21.2344H45V20H5V45H2.5V13.75ZM5 15.4609V17.5H45V15.4609L25 7.67969L5 15.4609ZM10 25H25.9453L25.2969 26.1562C25.0391 26.6172 24.7891 27.0703 24.5469 27.5H10V25ZM10 32.5H21.7422C21.1719 33.5156 20.7031 34.3516 20.3438 35H10V32.5ZM10 40H20.3672C20.7344 40.6562 21.1953 41.4844 21.7578 42.5H9.99219V40H10ZM25.0312 35.3516L29.4062 27.7734L31.8906 29.2031C32.2812 28.9375 32.6953 28.7031 33.125 28.4922V25.625H41.875V28.5L41.8828 28.4922C42.3047 28.7031 42.7188 28.9375 43.1094 29.2031L45.6094 27.7656L49.9844 35.3438L47.4688 36.7891C47.4844 37.0156 47.4922 37.25 47.4922 37.4844C47.4922 37.7188 47.4766 37.9531 47.4609 38.1875L49.9766 39.6406L45.6016 47.2188L43.0938 45.7656C42.7109 46.0234 42.3047 46.2656 41.8828 46.4688V49.3672H33.1328V46.4844C32.7031 46.2734 32.2969 46.0391 31.9062 45.7812L29.4141 47.2266L25.0391 39.6484L27.5234 38.2109C27.5078 37.9766 27.4922 37.7344 27.4922 37.4922C27.4922 37.2578 27.5 37.0234 27.5156 36.7891L25.0312 35.3516ZM28.4453 40.5391L30.3203 43.7891L30.6484 43.6016L32 42.8203L33.2969 43.6953C33.5859 43.8906 33.8906 44.0703 34.2188 44.2266L35.625 44.9062V46.8594H39.375V44.9062L40.7734 44.2188C41.0859 44.0625 41.3906 43.8906 41.6875 43.6953L42.9844 42.8125L44.3359 43.5938L44.6797 43.7891L46.5547 40.5469C46.4922 40.5078 45.9219 40.1797 44.8516 39.5625L44.9609 38.0078C44.9766 37.7969 44.9844 37.625 44.9844 37.4766C44.9844 37.3203 44.9766 37.1484 44.9609 36.9531L44.8594 35.3984L46.2109 34.6172L46.5547 34.4141L44.6797 31.1641L44.3438 31.3594L42.9844 32.1406L41.6875 31.2656C41.3906 31.0625 41.0859 30.8906 40.7656 30.7344L39.3672 30.0469V28.1094H35.6172V30.0391L35.6328 30.0469L34.2266 30.7344C33.8984 30.8906 33.5859 31.0703 33.2969 31.2656L32 32.1406L30.6484 31.3594L30.3281 31.1719L28.4531 34.4219L28.7734 34.6094L30.125 35.3906L30.0156 36.9453C29.9844 37.3516 29.9844 37.5938 30.0156 38.0156L30.125 39.5703L28.7734 40.3516L28.4453 40.5391ZM33.125 37.4844C33.125 35.0703 35.0859 33.1094 37.5 33.1094C39.9141 33.1094 41.875 35.0703 41.875 37.4844C41.875 39.8984 39.9141 41.8594 37.5 41.8594C35.0859 41.8594 33.125 39.8984 33.125 37.4844ZM35.625 37.4844C35.625 38.5234 36.4609 39.3594 37.5 39.3594C38.5391 39.3594 39.375 38.5234 39.375 37.4844C39.375 36.4453 38.5391 35.6094 37.5 35.6094C36.4609 35.6094 35.625 36.4453 35.625 37.4844Z" fill="white"></path></svg> 