<?xml version="1.0" encoding="UTF-8"?> <svg xmlns="http://www.w3.org/2000/svg" width="50" height="50" viewBox="0 0 50 50" fill="none"><path d="M5 16.25H10V10H16.25V5H18.75V6.25V10H23.75V5H26.25V10H31.25V5H33.75V10H40V16.25H45V18.75H40V23.75H45V25.1094C43.1016 24.2344 40.9844 23.75 38.75 23.75C38.3281 23.75 37.9141 23.7656 37.5 23.8047V12.5H12.5V37.5H23.8047C23.7734 37.9141 23.75 38.3281 23.75 38.75C23.75 40.9844 24.2344 43.1016 25.1094 45H23.75V40H18.75V45H16.25V40H10V33.75H5V31.25H10V26.25H5V23.75H10V18.75H5V16.25ZM17.5 17.5H20H32.5V25.1094C31.6172 25.5156 30.7812 26 30 26.5625V19.9922H20V29.9922H26.5703C26.0078 30.7734 25.5234 31.6094 25.1172 32.4922H17.5078V17.4922L17.5 17.5ZM27.5 38.75C27.5 32.5391 32.5391 27.5 38.75 27.5C44.9609 27.5 50 32.5391 50 38.75C50 44.9609 44.9609 50 38.75 50C32.5391 50 27.5 44.9609 27.5 38.75ZM30 38.75C30 43.5859 33.9141 47.5 38.75 47.5C43.5859 47.5 47.5 43.5859 47.5 38.75C47.5 33.9141 43.5859 30 38.75 30C33.9141 30 30 33.9141 30 38.75ZM32.5 37.5H35V40H32.5V37.5ZM37.5 37.5H40V40H37.5V37.5ZM42.5 37.5H45V40H42.5V37.5Z" fill="white"></path></svg> 