<?xml version="1.0" encoding="UTF-8"?> <svg xmlns="http://www.w3.org/2000/svg" width="210" height="80" viewBox="0 0 210 80" fill="none"><path d="M80.8952 41.2046H71.3658L74.3783 29.6772C74.422 29.5189 74.3837 29.3443 74.2799 29.2133C74.1814 29.0823 74.0229 29.0059 73.8534 29.0059H71.2947C71.0487 29.0059 70.8355 29.1696 70.7753 29.4043L67.1615 43.2513C67.1178 43.4096 67.156 43.5843 67.2544 43.7153C67.3583 43.8462 67.5114 43.9227 67.6809 43.9227H80.4688C80.7148 43.9227 80.928 43.7589 80.9882 43.5242L81.4146 41.8814C81.4584 41.7176 81.4256 41.5484 81.3217 41.4174C81.2178 41.281 81.0592 41.2046 80.8952 41.2046Z" fill="white" fill-opacity="0.5"></path><path d="M95.4325 37.5368H90.8236L92.8137 35.0315C93.3823 34.3274 93.9399 33.5579 94.3719 32.9356C94.4648 33.5142 94.5905 34.1965 94.7491 34.8241L95.4325 37.5368ZM97.0672 29.4043C97.0071 29.1696 96.7938 29.0059 96.5478 29.0059H93.9837C93.8197 29.0059 93.6666 29.0768 93.5682 29.2078L82.415 43.0494C82.2838 43.2077 82.2619 43.4314 82.3494 43.617C82.4368 43.8026 82.6282 43.9172 82.8359 43.9172H85.4602C85.6242 43.9172 85.7773 43.8462 85.8812 43.7153L88.7515 40.1348H96.105L96.9688 43.5133C97.0289 43.7535 97.2422 43.9172 97.4882 43.9172H100.205C100.369 43.9172 100.528 43.8408 100.632 43.7098C100.73 43.5788 100.769 43.4096 100.725 43.2513L97.0672 29.4043Z" fill="white" fill-opacity="0.5"></path><path d="M117.264 29.0059H102.333C102.087 29.0059 101.879 29.1696 101.814 29.4043L101.387 31.0472C101.343 31.2054 101.382 31.3801 101.48 31.5111C101.584 31.6421 101.737 31.7185 101.906 31.7185H107.407L104.394 43.2459C104.35 43.4041 104.389 43.5788 104.487 43.7098C104.585 43.8408 104.744 43.9172 104.913 43.9172H107.478C107.724 43.9172 107.937 43.7535 107.997 43.5188L111.081 31.7185H116.821C117.073 31.7185 117.297 31.5548 117.357 31.3201L117.8 29.6772C117.844 29.5189 117.811 29.3443 117.701 29.2133C117.597 29.0823 117.433 29.0059 117.264 29.0059Z" fill="white" fill-opacity="0.5"></path><path d="M134.163 31.3142L134.59 29.6713C134.633 29.5131 134.601 29.3384 134.497 29.2074C134.393 29.0764 134.234 29 134.07 29H119.161C118.904 29 118.685 29.1637 118.62 29.3984L118.177 31.0413C118.133 31.1996 118.166 31.3742 118.275 31.5052C118.379 31.6362 118.543 31.7126 118.713 31.7126H124.191L121.178 43.24C121.14 43.3983 121.173 43.5729 121.271 43.7039C121.37 43.8349 121.528 43.9113 121.698 43.9113H124.262C124.508 43.9113 124.721 43.7476 124.781 43.5129L127.865 31.7126H133.644C133.89 31.7181 134.103 31.5544 134.163 31.3142Z" fill="white" fill-opacity="0.5"></path><path d="M140.116 29.2133C140.013 29.0823 139.854 29.0059 139.69 29.0059H137.066C136.82 29.0059 136.606 29.1696 136.546 29.4043L132.932 43.2459C132.894 43.4041 132.922 43.5788 133.025 43.7098C133.129 43.8408 133.282 43.9172 133.452 43.9172H136.076C136.317 43.9172 136.53 43.7535 136.596 43.5188L140.209 29.6717C140.253 29.5135 140.215 29.3443 140.116 29.2133Z" fill="white" fill-opacity="0.5"></path><path d="M153.78 41.2042H148.072C146.186 41.2042 144.917 40.8057 144.311 40.0143C143.747 39.2829 143.665 38.1695 144.075 36.6085C144.945 33.2736 147.093 31.7181 150.828 31.7181H156.535C156.781 31.7181 156.995 31.5544 157.055 31.3142L157.481 29.6713C157.525 29.5131 157.492 29.3384 157.388 29.2074C157.284 29.0764 157.131 29 156.962 29H151.041C145.601 29 141.637 31.7399 140.44 36.3356C139.888 38.4424 140.134 40.2545 141.156 41.5644C142.342 43.1036 144.513 43.9113 147.427 43.9113H153.348C153.594 43.9113 153.807 43.7476 153.867 43.5129L154.294 41.87C154.338 41.7063 154.305 41.5371 154.201 41.4061C154.102 41.2806 153.944 41.2042 153.78 41.2042Z" fill="white" fill-opacity="0.5"></path><path d="M174.452 29.2133C174.353 29.0823 174.195 29.0059 174.031 29.0059H160.39C160.144 29.0059 159.931 29.1696 159.87 29.4043L156.257 43.2459C156.218 43.4041 156.246 43.5788 156.355 43.7098C156.453 43.8408 156.612 43.9172 156.776 43.9172H170.63C170.876 43.9172 171.089 43.7535 171.149 43.5188L171.576 41.8759C171.62 41.7122 171.581 41.543 171.483 41.412C171.379 41.281 171.226 41.2046 171.056 41.2046H160.461L161.412 37.575H171.16C171.406 37.575 171.62 37.4112 171.68 37.1765L172.079 35.6483C172.117 35.49 172.09 35.3153 171.986 35.1844C171.887 35.0534 171.729 34.9769 171.559 34.9769H162.09L162.938 31.724H173.604C173.845 31.724 174.058 31.5602 174.124 31.3255L174.555 29.6827C174.588 29.5135 174.555 29.3443 174.452 29.2133Z" fill="white" fill-opacity="0.5"></path><path d="M40.4325 35.397H46.3644C46.5886 35.397 46.7854 35.2442 46.8401 35.0258L48.1632 29.6879C48.2014 29.5405 48.1632 29.3877 48.0757 29.2676C47.9827 29.1475 47.8406 29.082 47.693 29.082H41.7555C41.5314 29.082 41.3346 29.2349 41.2799 29.4532L39.9568 34.7911C39.924 34.9385 39.9568 35.0913 40.0443 35.2114C40.1372 35.326 40.2794 35.397 40.4325 35.397Z" fill="white" fill-opacity="0.5"></path><path d="M44.8613 42.9784L46.1843 37.6404C46.2226 37.4931 46.1843 37.3402 46.0969 37.2256C46.0039 37.111 45.8618 37.04 45.7141 37.04H39.7822C39.558 37.04 39.3612 37.1929 39.3065 37.4112L37.9834 42.7491C37.9452 42.8965 37.978 43.0493 38.0709 43.1639C38.1639 43.284 38.306 43.3495 38.4536 43.3495H44.3856C44.6152 43.3441 44.8066 43.1967 44.8613 42.9784Z" fill="white" fill-opacity="0.5"></path><path d="M43.74 44.9863H37.8081C37.5839 44.9863 37.3871 45.1392 37.3379 45.3575L36.0148 50.6954C35.9765 50.8428 36.0148 50.9956 36.1023 51.1157C36.1952 51.2358 36.3374 51.3013 36.485 51.3013H42.417C42.6411 51.3013 42.8379 51.1484 42.8926 50.9301L44.2157 45.5922C44.254 45.4503 44.2157 45.2974 44.1282 45.1774C44.0298 45.0573 43.8877 44.9863 43.74 44.9863Z" fill="white" fill-opacity="0.5"></path><path d="M49.0325 35.397H54.9644C55.1886 35.397 55.3854 35.2442 55.4401 35.0258L56.7632 29.6879C56.8014 29.5405 56.7686 29.3877 56.6757 29.2676C56.5827 29.1475 56.4406 29.082 56.293 29.082H50.3555C50.1314 29.082 49.9345 29.2349 49.8799 29.4532L48.5568 34.7911C48.5185 34.9385 48.5568 35.0913 48.6443 35.2114C48.7427 35.326 48.8848 35.397 49.0325 35.397Z" fill="white" fill-opacity="0.5"></path><path d="M53.4664 42.9784L54.7895 37.6404C54.8278 37.4931 54.7895 37.3402 54.6966 37.2256C54.6036 37.111 54.4615 37.04 54.3139 37.04H48.3819C48.1577 37.04 47.9609 37.1929 47.9062 37.4112L46.5832 42.7491C46.5449 42.8965 46.5832 43.0493 46.6706 43.1639C46.7636 43.284 46.9057 43.3495 47.0534 43.3495H52.9853C53.215 43.3441 53.4118 43.1967 53.4664 42.9784Z" fill="white" fill-opacity="0.5"></path><path d="M52.3451 44.9863H46.4131C46.189 44.9863 45.9922 45.1392 45.9375 45.3575L44.6144 50.6954C44.5761 50.8428 44.6144 50.9956 44.7019 51.1157C44.7948 51.2358 44.937 51.3013 45.0846 51.3013H51.0166C51.2407 51.3013 51.4376 51.1484 51.4922 50.9301L52.8153 45.5922C52.8536 45.4503 52.8153 45.2974 52.7278 45.1774C52.6349 45.0573 52.4927 44.9863 52.3451 44.9863Z" fill="white" fill-opacity="0.5"></path><path d="M65.2807 29.2676C65.1877 29.1475 65.0456 29.082 64.898 29.082H58.9605C58.7364 29.082 58.5396 29.2349 58.4849 29.4532L57.1618 34.7911C57.129 34.9385 57.1618 35.0913 57.2547 35.2114C57.3477 35.3315 57.4898 35.397 57.6375 35.397H63.5694C63.7936 35.397 63.9904 35.2442 64.0451 35.0258L65.3682 29.6879C65.4064 29.5405 65.3682 29.3877 65.2807 29.2676Z" fill="white" fill-opacity="0.5"></path><path d="M62.9188 37.0342H56.9868C56.7627 37.0342 56.5659 37.187 56.5112 37.4053L55.1881 42.7433C55.1553 42.8906 55.1826 43.0435 55.2756 43.1581C55.3685 43.2782 55.5107 43.3437 55.6583 43.3437H61.5903C61.8144 43.3437 62.0113 43.1908 62.0659 42.978L63.389 37.64C63.4273 37.4927 63.3945 37.3398 63.3015 37.2252C63.2086 37.1051 63.0719 37.0342 62.9188 37.0342Z" fill="white" fill-opacity="0.5"></path><path d="M60.9452 44.9863H55.0132C54.7891 44.9863 54.5922 45.1392 54.5376 45.3575L53.2145 50.6954C53.1817 50.8428 53.209 50.9956 53.302 51.1157C53.3949 51.2358 53.5371 51.3013 53.6847 51.3013H59.6166C59.8408 51.3013 60.0376 51.1484 60.0923 50.9301L61.4154 45.5922C61.4482 45.4503 61.4208 45.2974 61.3279 45.1774C61.2349 45.0573 61.0983 44.9863 60.9452 44.9863Z" fill="white" fill-opacity="0.5"></path><path d="M71.054 46.8203H68.6429C67.3636 46.8203 66.538 47.2788 66.3193 48.1139C66.2319 48.4523 66.2701 48.7361 66.4396 48.9544C66.6802 49.2655 67.1613 49.4238 67.8775 49.4238H69.0366C69.3755 49.4238 69.5833 49.4784 69.6653 49.5821C69.7254 49.6585 69.7309 49.784 69.6872 49.9532C69.556 50.4499 69.0256 50.5536 68.5992 50.5536H65.8984C65.8437 50.5536 65.789 50.5918 65.7781 50.6464L65.6469 51.154C65.6359 51.1922 65.6469 51.2304 65.6687 51.2632C65.6906 51.2959 65.7289 51.3123 65.7671 51.3123H68.4297C69.6708 51.3123 70.5127 50.832 70.7259 50.0023C70.8189 49.6476 70.7752 49.3583 70.6002 49.1291C70.3596 48.818 69.8731 48.6542 69.1514 48.6542H68.0033C67.6533 48.6542 67.4456 48.6051 67.3636 48.4959C67.3089 48.425 67.298 48.3158 67.3417 48.163C67.4511 47.7482 67.7736 47.5681 68.4242 47.5681H70.9118C70.9665 47.5681 71.0212 47.5299 71.0321 47.4698L71.1633 46.9677C71.1743 46.9295 71.1633 46.8913 71.1415 46.8585C71.1305 46.8421 71.0977 46.8203 71.054 46.8203Z" fill="white" fill-opacity="0.5"></path><path d="M79.3704 46.8203H75.1934C75.1333 46.8203 75.0841 46.8585 75.0731 46.9186L73.9633 51.1594C73.9523 51.1977 73.9633 51.2359 73.9851 51.2686C74.007 51.3014 74.0453 51.3177 74.0836 51.3177H78.3261C78.3863 51.3177 78.4355 51.2741 78.4464 51.2249L78.5776 50.7228C78.5886 50.6846 78.5776 50.6464 78.5558 50.6136C78.5339 50.5809 78.4956 50.5645 78.4574 50.5645H75.1661L75.4777 49.3801H78.4902C78.5503 49.3801 78.5995 49.3419 78.6104 49.2819L78.7307 48.8125C78.7417 48.7743 78.7307 48.7306 78.7089 48.7033C78.687 48.6706 78.6487 48.6542 78.605 48.6542H75.6691L75.9479 47.5844H79.2392C79.2993 47.5844 79.3485 47.5462 79.3595 47.4862L79.4907 46.9841C79.5016 46.9458 79.4907 46.9076 79.4688 46.8749C79.4469 46.8421 79.4141 46.8203 79.3704 46.8203Z" fill="white" fill-opacity="0.5"></path><path d="M88.9382 46.8203H87.872C87.8338 46.8203 87.7955 46.8421 87.7682 46.8749L85.6961 49.6585C85.5539 49.8495 85.3844 50.0951 85.2587 50.2807C85.2259 50.1006 85.1876 49.8823 85.1493 49.7022L84.4823 46.9186C84.4659 46.864 84.4167 46.8203 84.3566 46.8203H83.2905C83.2303 46.8203 83.1811 46.8585 83.1702 46.9186L82.0658 51.154C82.0549 51.1922 82.0658 51.2304 82.0877 51.2632C82.1096 51.2959 82.1478 51.3123 82.1861 51.3123H82.9242C82.9788 51.3123 83.0335 51.2686 83.0499 51.2195L83.6896 48.7634C83.7224 48.6378 83.7607 48.485 83.7935 48.3376C83.8153 48.4686 83.8427 48.5942 83.87 48.7088L84.4769 51.214C84.4933 51.2686 84.5425 51.3123 84.6026 51.3123H85.3899C85.4282 51.3123 85.4664 51.2904 85.4938 51.2632L87.4019 48.7525C87.4839 48.6488 87.5713 48.5287 87.6533 48.4031C87.626 48.5068 87.5932 48.6105 87.5713 48.7033L86.9317 51.154C86.9207 51.1922 86.9317 51.2304 86.9535 51.2632C86.9754 51.2959 87.0137 51.3123 87.052 51.3123H87.8392C87.8994 51.3123 87.9486 51.2686 87.9595 51.2195L89.0639 46.9786C89.0748 46.9404 89.0639 46.9022 89.042 46.8694C89.0147 46.8421 88.9764 46.8203 88.9382 46.8203Z" fill="white" fill-opacity="0.5"></path><path d="M93.9571 46.8203H93.1534C93.0932 46.8203 93.044 46.8585 93.0276 46.9186L91.9232 51.1594C91.9123 51.1977 91.9232 51.2359 91.9451 51.2686C91.967 51.3014 92.0052 51.3177 92.0435 51.3177H92.8472C92.9073 51.3177 92.9565 51.2741 92.9675 51.2249L94.0719 46.9841C94.0828 46.9458 94.0719 46.9076 94.05 46.8749C94.0336 46.8421 93.9953 46.8203 93.9571 46.8203Z" fill="white" fill-opacity="0.5"></path><path d="M102.234 46.8203H100.419C98.7735 46.8203 97.5707 47.6499 97.2098 49.0417C97.0458 49.6749 97.1169 50.2152 97.4231 50.6082C97.7784 51.0667 98.4345 51.3123 99.3147 51.3123H101.13C101.19 51.3123 101.239 51.2686 101.25 51.2195L101.381 50.7173C101.392 50.6791 101.381 50.6409 101.359 50.6082C101.338 50.5754 101.299 50.5591 101.256 50.5591H99.5061C98.9156 50.5591 98.522 50.4335 98.3252 50.177C98.1447 49.9423 98.1174 49.593 98.2486 49.1018C98.522 48.0647 99.189 47.579 100.354 47.579H102.098C102.158 47.579 102.207 47.5408 102.218 47.4807L102.349 46.9786C102.36 46.9404 102.349 46.9022 102.327 46.8694C102.311 46.8421 102.273 46.8203 102.234 46.8203Z" fill="white" fill-opacity="0.5"></path><path d="M107.445 50.6245C106.734 50.6245 106.308 50.5044 106.105 50.2424C105.925 50.0077 105.903 49.6475 106.04 49.1344C106.39 47.7972 107.199 47.5243 108.314 47.5243C109.014 47.5243 109.435 47.6444 109.637 47.9064C109.818 48.1411 109.84 48.5231 109.697 49.0635C109.408 50.1714 108.752 50.6245 107.445 50.6245ZM108.451 46.7656C106.57 46.7656 105.373 47.557 104.979 49.0471C104.804 49.7239 104.864 50.2588 105.165 50.6517C105.531 51.1266 106.253 51.3667 107.303 51.3667C109.2 51.3667 110.364 50.6081 110.753 49.1126C110.933 48.4249 110.867 47.8736 110.561 47.4806C110.2 47.0112 109.49 46.7656 108.451 46.7656Z" fill="white" fill-opacity="0.5"></path><path d="M119.554 46.8203H118.816C118.756 46.8203 118.707 46.8585 118.69 46.9186L117.87 50.0569C117.821 49.9587 117.766 49.8495 117.712 49.7458L116.039 46.8858C116.017 46.8421 115.973 46.8203 115.929 46.8203H115.033C114.978 46.8203 114.923 46.8585 114.912 46.9186L113.808 51.1594C113.797 51.1977 113.808 51.2359 113.83 51.2686C113.852 51.3014 113.89 51.3177 113.928 51.3177H114.666C114.727 51.3177 114.776 51.2741 114.792 51.2249L115.618 48.0593C115.672 48.163 115.732 48.2831 115.804 48.4086L117.471 51.2522C117.493 51.2904 117.537 51.3177 117.58 51.3177H118.45C118.504 51.3177 118.559 51.2741 118.57 51.2249L119.674 46.9841C119.685 46.9458 119.674 46.9076 119.652 46.8749C119.631 46.8421 119.592 46.8203 119.554 46.8203Z" fill="white" fill-opacity="0.5"></path><path d="M124.874 50.5591H123.693L124.469 47.579H125.716C126.399 47.579 126.804 47.6881 126.99 47.9228C127.159 48.1412 127.17 48.5123 127.022 49.0745C126.733 50.1825 126.191 50.5591 124.874 50.5591ZM125.962 46.8203H123.72C123.66 46.8203 123.611 46.8585 123.6 46.9186L122.496 51.1594C122.485 51.1977 122.49 51.2359 122.517 51.2686C122.539 51.3014 122.578 51.3177 122.616 51.3177H124.846C126.612 51.3177 127.711 50.57 128.094 49.0909C128.274 48.4031 128.214 47.8628 127.925 47.4862C127.58 47.0386 126.935 46.8203 125.962 46.8203Z" fill="white" fill-opacity="0.5"></path><path d="M136.967 46.8203H136.185C136.125 46.8203 136.076 46.8585 136.065 46.9186L135.398 49.4729C135.158 50.3789 134.775 50.6246 133.616 50.6246C132.982 50.6246 132.637 50.5427 132.495 50.3626C132.38 50.2098 132.375 49.9587 132.484 49.5384L133.151 46.9786C133.162 46.9404 133.151 46.9022 133.129 46.8694C133.107 46.8421 133.069 46.8203 133.031 46.8203H132.244C132.189 46.8203 132.134 46.8585 132.123 46.9186L131.44 49.5439C131.303 50.0624 131.352 50.4772 131.582 50.7719C131.894 51.1704 132.517 51.3669 133.49 51.3669C135.147 51.3669 136.103 50.7883 136.41 49.6039L137.099 46.9786C137.109 46.9404 137.099 46.9022 137.077 46.8694C137.044 46.8421 137.011 46.8203 136.967 46.8203Z" fill="white" fill-opacity="0.5"></path><path d="M145.032 46.8203H143.222C141.576 46.8203 140.373 47.6499 140.013 49.0417C139.849 49.6749 139.92 50.2152 140.226 50.6082C140.587 51.0667 141.237 51.3123 142.117 51.3123H143.927C143.987 51.3123 144.036 51.2686 144.053 51.2195L144.184 50.7173C144.195 50.6791 144.19 50.6409 144.162 50.6082C144.14 50.5754 144.102 50.5591 144.064 50.5591H142.32C141.729 50.5591 141.33 50.4335 141.139 50.177C140.953 49.9423 140.931 49.593 141.057 49.1018C141.33 48.0647 141.997 47.579 143.162 47.579H144.906C144.966 47.579 145.015 47.5408 145.032 47.4807L145.163 46.9786C145.174 46.9404 145.163 46.9022 145.141 46.8694C145.108 46.8421 145.07 46.8203 145.032 46.8203Z" fill="white" fill-opacity="0.5"></path><path d="M152.872 46.8203H148.29C148.235 46.8203 148.181 46.8585 148.17 46.9186L148.038 47.4207C148.028 47.4589 148.033 47.4971 148.06 47.5299C148.082 47.5626 148.12 47.579 148.159 47.579H149.886L148.952 51.154C148.941 51.1922 148.952 51.2304 148.973 51.2632C148.995 51.2959 149.034 51.3123 149.077 51.3123H149.859C149.919 51.3123 149.968 51.2686 149.979 51.2195L150.931 47.579H152.729C152.79 47.579 152.839 47.5408 152.85 47.4807L152.981 46.9786C152.992 46.9404 152.981 46.9022 152.959 46.8694C152.948 46.8421 152.91 46.8203 152.872 46.8203Z" fill="white" fill-opacity="0.5"></path><path d="M157.994 50.6245C157.284 50.6245 156.857 50.5044 156.655 50.2424C156.474 50.0077 156.453 49.6475 156.589 49.1344C156.939 47.7972 157.754 47.5243 158.864 47.5243C159.563 47.5243 159.984 47.6444 160.187 47.9064C160.373 48.1411 160.389 48.5231 160.247 49.0635C159.957 50.1714 159.306 50.6245 157.994 50.6245ZM159 46.7656C157.12 46.7656 155.922 47.557 155.529 49.0471C155.354 49.7239 155.419 50.2588 155.714 50.6517C156.081 51.1266 156.802 51.3667 157.852 51.3667C159.755 51.3667 160.914 50.6081 161.302 49.1126C161.482 48.4249 161.417 47.8736 161.111 47.4806C160.75 47.0112 160.039 46.7656 159 46.7656Z" fill="white" fill-opacity="0.5"></path><path d="M166.338 47.579H167.874C168.453 47.579 168.776 47.6445 168.891 47.7918C168.934 47.8464 168.984 47.9556 168.907 48.2394C168.76 48.8016 168.448 48.9599 167.447 48.9599H165.977L166.338 47.579ZM169.848 47.3443C169.574 46.9895 169.006 46.8203 168.114 46.8203H165.583C165.523 46.8203 165.479 46.8585 165.463 46.9186L164.353 51.1594C164.342 51.1977 164.353 51.2359 164.375 51.2686C164.402 51.3014 164.435 51.3177 164.479 51.3177H165.26C165.321 51.3177 165.37 51.2741 165.386 51.2249L165.78 49.724H166.857C167.289 49.724 167.371 49.7949 167.59 50.1606L168.235 51.2577C168.257 51.3014 168.3 51.3232 168.344 51.3232H169.23H169.235C169.306 51.3232 169.361 51.2632 169.361 51.1977C169.361 51.1595 169.345 51.1267 169.323 51.1049L168.65 49.9805C168.568 49.8331 168.492 49.7185 168.404 49.6257C169.273 49.4293 169.787 48.9872 169.968 48.2831C170.077 47.8901 170.033 47.5844 169.848 47.3443Z" fill="white" fill-opacity="0.5"></path><path d="M171.275 50.0684H170.29C170.263 50.0684 170.241 50.0902 170.241 50.1175V50.2539C170.241 50.2594 170.241 50.2703 170.247 50.2703C170.252 50.2921 170.274 50.3031 170.296 50.3031H170.651V51.2691C170.651 51.2746 170.651 51.28 170.657 51.2855C170.662 51.3073 170.679 51.3237 170.706 51.3237H170.875C170.903 51.3237 170.925 51.3019 170.925 51.2691V50.3031H171.285C171.313 50.3031 171.335 50.2812 171.335 50.2539V50.1175C171.335 50.1175 171.335 50.112 171.335 50.1066C171.324 50.0902 171.302 50.0684 171.275 50.0684Z" fill="white" fill-opacity="0.5"></path><path d="M172.757 50.0684H172.527C172.505 50.0684 172.489 50.0793 172.478 50.1011L172.188 50.8598C172.177 50.8925 172.166 50.9253 172.15 50.9635C172.139 50.9307 172.128 50.8925 172.117 50.8598L171.816 50.1011C171.811 50.0793 171.789 50.0684 171.767 50.0684H171.537C171.51 50.0684 171.488 50.0956 171.488 50.1229V51.28C171.488 51.3073 171.51 51.3346 171.537 51.3346H171.696C171.712 51.3346 171.729 51.3237 171.734 51.3073C171.745 51.3019 171.745 51.2855 171.745 51.2746V50.636L172.008 51.2964C172.019 51.3128 172.035 51.3292 172.051 51.3292H172.221C172.243 51.3292 172.265 51.3128 172.27 51.2964L172.527 50.636V51.2746C172.527 51.3019 172.549 51.3292 172.576 51.3292H172.746C172.762 51.3292 172.773 51.3183 172.784 51.3073C172.795 51.2964 172.795 51.2855 172.795 51.2746V50.1175C172.806 50.0902 172.784 50.0684 172.757 50.0684Z" fill="white" fill-opacity="0.5"></path></svg> 