<?xml version="1.0" encoding="UTF-8"?> <svg xmlns="http://www.w3.org/2000/svg" width="210" height="80" viewBox="0 0 210 80" fill="none"><path d="M68.8325 34.1649C69.2502 34.1649 69.6012 34.4976 69.6012 34.933V49.6541C69.6012 50.0714 69.2199 50.404 68.8325 50.404H66.829C66.4476 50.404 66.0784 50.1077 66.0784 49.6904V48.3235C65.0675 49.8053 63.3303 50.8335 60.7941 50.8335C56.557 50.8335 53.9481 48.0271 53.9481 43.854V34.8846C53.9481 34.4673 54.3294 34.1347 54.7168 34.1347H56.7204C57.138 34.1347 57.471 34.4673 57.471 34.8846V43.2794C57.471 45.9829 58.8995 47.7852 61.7081 47.7852C64.4562 47.7852 66.0784 45.9224 66.0784 43.3217V34.8846C66.0784 34.4673 66.4597 34.1347 66.829 34.1347H68.8325M39.3603 26C32.5143 26 27 31.3163 27 38.4107C27 45.5293 32.5204 50.8214 39.3603 50.8214C40.5225 50.8214 41.6544 50.6641 42.7197 50.3617L44.0635 53.8212C44.2027 54.2022 44.4812 54.4321 44.9715 54.4321H47.1082C47.6227 54.4321 47.998 54.0994 47.7619 53.4462L46.0247 48.9162C49.4446 46.7631 51.7206 42.9467 51.7206 38.3804C51.7206 31.3223 46.2063 26 39.3603 26ZM44.7475 45.626L43.1858 41.5799C43.0466 41.2472 42.7681 40.9267 42.175 40.9267H40.1351C39.6206 40.9267 39.2271 41.2593 39.4632 41.9125L41.5212 47.2288C40.8493 47.4042 40.1169 47.4828 39.3663 47.4828C34.3605 47.4828 30.8013 43.5516 30.8013 38.4107C30.8013 33.2698 34.3605 29.3385 39.3663 29.3385C44.3722 29.3385 47.9314 33.2698 47.9314 38.4107C47.9253 41.4166 46.7268 43.987 44.7475 45.626ZM181.939 49.5815C182.115 49.9988 181.903 50.3859 181.407 50.3859H179.173C178.756 50.3859 178.423 50.1924 178.283 49.775L174.149 38.6647L169.961 49.775C169.785 50.2105 169.488 50.3859 169.071 50.3859H167.067C166.65 50.3859 166.353 50.2105 166.177 49.775L161.94 38.6103L157.764 49.775C157.588 50.1924 157.292 50.3859 156.874 50.3859H154.78C154.362 50.3859 154.065 50.1924 153.89 49.775L149.755 38.6103L145.482 49.775C145.307 50.2105 145.01 50.3859 144.592 50.3859H142.589C142.171 50.3859 141.874 50.2105 141.699 49.775L137.522 38.6103L133.346 49.775C133.207 50.1924 132.874 50.3859 132.456 50.3859H130.283C129.768 50.3859 129.569 49.9686 129.75 49.5815L135.41 34.7939C135.585 34.3585 135.882 34.1407 136.3 34.1407H138.727C139.145 34.1407 139.441 34.3343 139.617 34.7939L143.69 45.5837L147.728 34.7939C147.903 34.3585 148.2 34.1407 148.618 34.1407H151.008C151.426 34.1407 151.723 34.3343 151.898 34.7939L155.893 45.5837L159.888 34.7939C160.064 34.3585 160.36 34.1407 160.778 34.1407H163.193C163.611 34.1407 163.907 34.3343 164.083 34.7939L168.133 45.5837L172.091 34.7939C172.267 34.3585 172.563 34.1407 172.981 34.1407H175.408C175.826 34.1407 176.123 34.3343 176.298 34.7939L181.939 49.5815ZM88.2022 34.1649H86.1987C85.781 34.1649 85.4299 34.4976 85.4299 34.933V36.2757C84.4191 34.7576 82.4397 33.6629 80.1093 33.6629C75.7027 33.6629 71.9196 37.1466 71.9196 42.221C71.9196 47.3619 75.7148 50.8214 80.0911 50.8214C82.4639 50.8214 84.3827 49.7327 85.4541 48.2086V49.6359C85.4541 50.0533 85.8355 50.3859 86.2229 50.3859H88.2264C88.6441 50.3859 88.977 50.0533 88.977 49.6359V34.927C88.9528 34.4976 88.6138 34.1649 88.2022 34.1649ZM80.4906 47.5856C77.5791 47.5856 75.509 45.2148 75.509 42.2694C75.509 39.2816 77.567 36.9894 80.4906 36.9894C83.3779 36.9894 85.4723 39.2816 85.4723 42.2694C85.4541 45.2329 83.3537 47.5856 80.4906 47.5856ZM112.039 48.0997C112.475 48.6319 112.1 49.0493 111.864 49.2247C110.483 50.271 108.643 50.8455 106.64 50.8455C101.598 50.8455 98.2381 47.1502 98.2381 42.2875C98.2381 37.4248 101.598 33.6871 106.64 33.6871C108.643 33.6871 110.459 34.2617 111.864 35.308C112.106 35.4834 112.439 35.8402 112.039 36.433L111.089 37.7575C110.707 38.2716 110.284 38.1385 109.902 37.8966C109.013 37.3644 107.965 36.9108 106.761 36.9108C103.813 36.9108 101.858 39.2816 101.858 42.2875C101.858 45.2874 103.813 47.6461 106.761 47.6461C107.99 47.6461 108.958 47.1744 109.848 46.6603C110.229 46.4667 110.617 46.2792 111.034 46.8357L112.039 48.0997ZM121.452 33.7113C116.7 33.7113 112.923 37.4248 112.923 42.2694C112.923 47.1562 116.718 50.8274 121.452 50.8274C126.203 50.8274 129.98 47.132 129.98 42.2694C129.998 37.443 126.203 33.7113 121.452 33.7113ZM121.452 47.5614C118.54 47.5614 116.47 45.2269 116.47 42.2815C116.47 39.2937 118.528 37.0015 121.452 37.0015C124.363 37.0015 126.433 39.2937 126.433 42.2815C126.433 45.2329 124.381 47.5614 121.452 47.5614ZM95.1995 26.4355C95.6353 26.4355 95.9501 26.8165 95.9501 27.2036V49.6178C95.9501 50.0351 95.6535 50.3859 95.1995 50.3859H93.196C92.7783 50.3859 92.4272 50.0049 92.4272 49.6178V27.2278C92.4272 26.8104 92.8086 26.4597 93.196 26.4597H95.1995" fill="white" fill-opacity="0.5"></path></svg> 