<svg width="292" height="77" viewBox="0 0 292 77" fill="none" xmlns="http://www.w3.org/2000/svg">
<g clip-path="url(#clip0_2727_7434)">
<path d="M168.485 39.0406H175.845V75.6599H168.485V70.542C166.034 73.2775 161.434 76.7188 153.974 76.7188C143.243 76.7188 133.332 70.1891 133.332 57.3061C133.332 44.4232 143.144 38.1582 153.974 38.1582C162.15 38.1582 166.546 42.0407 168.485 44.2467V39.0406ZM140.891 57.3009C140.891 65.1542 145.998 71.0663 154.79 71.0663C163.582 71.0663 168.893 64.6248 168.893 57.3892C168.893 47.9528 161.329 43.8003 154.79 43.8003C147.534 43.8003 140.891 48.3888 140.891 57.3009Z" fill="black"/>
<path d="M194.851 39.0406H202.211V42.9231C204.563 39.923 208.238 38.1582 212.739 38.1582C220.402 38.1582 223.47 42.8349 224.286 44.0702C228.373 38.5112 234.197 38.1582 237.061 38.1582C249.633 38.1582 250.856 47.2469 250.856 52.453V75.6599H243.496V53.4236C243.496 49.2764 242.884 43.8055 235.932 43.8055C227.448 43.8055 226.528 50.8647 226.528 55.2766V75.6599H219.168V53.953C219.168 51.3941 219.273 43.8055 211.505 43.8055C203.126 43.8055 202.206 51.3059 202.206 55.7178V75.6599H194.846V39.0406H194.851Z" fill="black"/>
<path d="M277.317 39.041V75.6603H269.957V39.041H277.317Z" fill="black"/>
<path d="M273.778 29.7704C275.268 29.7704 276.538 29.2461 277.599 28.1924C278.655 27.1439 279.188 25.893 279.188 24.45C279.188 23.0071 278.66 21.725 277.599 20.7077C276.538 19.6903 275.268 19.1816 273.778 19.1816C272.388 19.1816 271.165 19.7163 270.109 20.7803C269.047 21.8496 268.52 23.0694 268.52 24.45C268.52 25.8307 269.047 27.1024 270.109 28.1665C271.165 29.2357 272.388 29.7704 273.778 29.7704Z" fill="black"/>
<path d="M125.104 68.1367L20.6581 70.1143L0 75.8966H128.376C128.376 75.8966 126.212 70.6282 125.104 68.1367Z" fill="black"/>
<path d="M115.93 62.7413L117.347 65.7725H123.844C123.154 64.2725 122.428 62.7309 121.727 61.2931L35.692 51.6387L9.28906 65.212L30.9717 57.4054L88.9682 61.0439L90.7402 65.7725H103.667L102.047 61.8692L115.93 62.7413Z" fill="black"/>
<path d="M117.792 53.6711L96.9663 48.9685L95.5863 49.3318L95.1263 48.5532L46.9832 37.6738L18.5312 56.2456L43.251 42.3817L83.5584 49.6017L85.4663 53.3441L98.7488 55.1245L97.2068 52.1191L111.754 54.5275L113.108 57.0501L120.071 57.9844L117.792 53.6711Z" fill="black"/>
<path d="M68.0591 25.8214L70.1187 28.7956L86.2134 34.744L81.9218 28.3077L61.1957 19.6914L36.8994 39.4155L58.9375 22.65L68.0591 25.8214Z" fill="black"/>
<path d="M113.635 46.5165L98.3352 41.3779L92.7107 44.6687L91.132 42.2395L98.9207 37.6614L102.261 38.767L103.96 41.3L112.313 44.3988L109.433 40.0179L99.2866 35.6994L90.7714 41.6789L88.4191 38.0507L55.5501 27.0156L29.2256 46.3504L53.0149 30.2338L75.5182 36.7531L78.4455 41.2481L92.7943 45.0268L93.2386 45.6185L97.917 43.807L107.284 46.5944L108.852 49.2519L116.411 51.2399L113.635 46.5165Z" fill="black"/>
<path d="M79.4176 24.8064L77.0287 21.5104L96.0559 30.2617L98.4239 33.3708L107.702 37.5284L103.019 31.2531L66.271 12.7695L47.0713 30.0177L62.9203 17.3891L79.4176 24.8064Z" fill="black"/>
<path d="M88.7383 21.4773L91.4042 24.5501L101.733 29.6421L97.9853 25.1522L69.2093 8.40234L54.3848 22.3286L67.7979 10.6291L88.7383 21.4773Z" fill="black"/>
<path d="M81.0532 13.3385L83.4525 15.7209L96.39 23.3043L91.2098 17.6259L71.0587 5.71875L61.8691 14.2832L70.2484 6.98524L81.0532 13.3385Z" fill="black"/>
<path d="M73.6629 5.9369L75.8323 8.02869L89.0834 15.4252L84.7186 11.0236L72.0843 4.05273L67.5 8.40241L71.64 4.7846L73.6629 5.9369Z" fill="black"/>
<path d="M82.7265 9.07011L79.4752 5.97136L73.1554 2.17188L70.6934 4.91767L72.4811 3.37089L82.7265 9.07011Z" fill="black"/>
<path d="M77.1908 3.78636L73.9029 0.71875L72.502 2.24996L73.469 1.57519L77.1908 3.78636Z" fill="black"/>
<path d="M291.723 41.9574C291.535 41.5162 291.273 41.1321 290.939 40.8103C290.604 40.4833 290.217 40.2342 289.778 40.0577C289.339 39.8812 288.864 39.793 288.362 39.793C287.834 39.793 287.342 39.8812 286.903 40.0577C286.459 40.2342 286.072 40.4885 285.748 40.8103C285.424 41.1321 285.168 41.5214 284.99 41.9574C284.813 42.3986 284.724 42.8813 284.724 43.4056C284.724 43.9298 284.813 44.4126 284.99 44.8538C285.168 45.2949 285.424 45.679 285.748 46.0009C286.072 46.3227 286.464 46.577 286.903 46.7535C287.348 46.93 287.834 47.0182 288.362 47.0182C288.89 47.0182 289.376 46.93 289.82 46.7535C290.265 46.577 290.651 46.3227 290.975 46.0009C291.3 45.679 291.556 45.2949 291.733 44.8538C291.911 44.4126 292 43.9298 292 43.4056C292 42.8813 291.911 42.3934 291.723 41.9574ZM291.2 44.6461C291.043 45.0198 290.819 45.3469 290.536 45.6271C290.254 45.9074 289.925 46.1202 289.554 46.2708C289.182 46.4213 288.785 46.4992 288.362 46.4992C287.912 46.4992 287.499 46.4161 287.118 46.2552C286.741 46.0943 286.412 45.8711 286.14 45.5908C285.863 45.3105 285.654 44.9783 285.497 44.6046C285.346 44.2309 285.267 43.8312 285.267 43.4004C285.267 42.8035 285.398 42.2689 285.665 41.8017C285.931 41.3346 286.297 40.966 286.762 40.7013C287.228 40.4366 287.761 40.3016 288.357 40.3016C288.806 40.3016 289.219 40.3847 289.595 40.5456C289.972 40.7065 290.296 40.9297 290.568 41.21C290.845 41.4903 291.054 41.8225 291.211 42.1962C291.362 42.5699 291.441 42.9696 291.441 43.4004C291.441 43.8572 291.362 44.2724 291.2 44.6461Z" fill="black"/>
<path d="M289.606 43.2587C289.763 43.0771 289.846 42.8331 289.846 42.5217C289.846 42.1013 289.721 41.7846 289.47 41.5718C289.219 41.359 288.822 41.25 288.278 41.25H287.008V45.5582H287.761V43.8505H288.377L289.371 45.5582H290.223L289.073 43.6428C289.266 43.5702 289.444 43.4404 289.606 43.2587ZM288.252 43.2432H287.755V41.8832H288.241C288.534 41.8832 288.743 41.9352 288.879 42.039C289.01 42.1428 289.078 42.3141 289.078 42.5424C289.078 42.7553 289.005 42.9214 288.858 43.0511C288.712 43.1809 288.513 43.2432 288.252 43.2432Z" fill="black"/>
</g>
<defs>
<clipPath id="clip0_2727_7434">
<rect width="292" height="76" fill="white" transform="translate(0 0.71875)"/>
</clipPath>
</defs>
</svg>
