<svg xmlns="http://www.w3.org/2000/svg" version="1.1" xmlns:xlink="http://www.w3.org/1999/xlink" width="512" height="512" x="0" y="0" viewBox="0 0 512 512" style="enable-background:new 0 0 512 512" xml:space="preserve" class=""><g><path d="M371.138 123.461H140.862c-9.607 0-17.401 7.843-17.401 17.401v230.277c0 9.607 7.794 17.401 17.401 17.401h230.277c9.558 0 17.401-7.794 17.401-17.401V140.862c-.001-9.558-7.844-17.401-17.402-17.401zm7.598 247.677c0 4.215-3.431 7.597-7.597 7.597H140.862a7.572 7.572 0 0 1-7.597-7.597V140.862c0-4.166 3.382-7.597 7.597-7.597h230.277c4.166 0 7.597 3.431 7.597 7.597z" fill="#ffffff" opacity="1" data-original="#000000" class=""></path><path d="M483.238 239.727c12.401 0 22.547-10.097 22.547-22.547 0-12.401-10.146-22.547-22.547-22.547h-50.584v-32.547h50.584c12.401 0 22.547-10.097 22.547-22.547 0-12.401-10.146-22.547-22.547-22.547h-50.634c-.245-20.636-16.96-37.35-37.595-37.595V28.762c0-12.401-10.146-22.547-22.547-22.547-12.45 0-22.547 10.146-22.547 22.547v50.584h-32.547V28.762c0-12.401-10.146-22.547-22.547-22.547-12.45 0-22.547 10.146-22.547 22.547v50.584h-32.547V28.762c0-12.401-10.146-22.547-22.547-22.547-12.45 0-22.547 10.146-22.547 22.547v50.584h-32.547V28.762c0-12.401-10.146-22.547-22.547-22.547-12.45 0-22.547 10.146-22.547 22.547v50.634c-20.636.245-37.35 16.96-37.644 37.595H28.762c-12.45 0-22.547 10.146-22.547 22.547 0 12.45 10.097 22.547 22.547 22.547h50.584v32.547H28.762c-12.45 0-22.547 10.146-22.547 22.547 0 12.45 10.097 22.547 22.547 22.547h50.584v32.546H28.762c-12.45 0-22.547 10.146-22.547 22.547 0 12.45 10.097 22.547 22.547 22.547h50.584v32.547H28.762c-12.45 0-22.547 10.146-22.547 22.547 0 12.45 10.097 22.547 22.547 22.547h50.584c.294 20.635 17.008 37.35 37.644 37.644v50.584c0 12.45 10.097 22.547 22.547 22.547 12.401 0 22.547-10.097 22.547-22.547v-50.584h32.547v50.584c0 12.45 10.097 22.547 22.547 22.547 12.401 0 22.547-10.097 22.547-22.547v-50.584h32.547v50.584c0 12.45 10.097 22.547 22.547 22.547 12.401 0 22.547-10.097 22.547-22.547v-50.584h32.547v50.584c0 12.45 10.097 22.547 22.547 22.547 12.401 0 22.547-10.097 22.547-22.547v-50.584c20.635-.294 37.35-17.009 37.595-37.644h50.634c12.401 0 22.547-10.097 22.547-22.547 0-12.401-10.146-22.547-22.547-22.547h-50.584v-32.547h50.584c12.401 0 22.547-10.097 22.547-22.547 0-12.401-10.146-22.547-22.547-22.547h-50.584v-32.546h50.586zM422.85 394.519c0 15.636-12.744 28.331-28.331 28.331H117.481c-15.636 0-28.331-12.695-28.331-28.331V117.481c0-15.587 12.695-28.331 28.331-28.331h277.038c15.587 0 28.331 12.744 28.331 28.331z" fill="#ffffff" opacity="1" data-original="#000000" class=""></path><path d="M203.063 241.834c0-10.489-8.529-19.018-19.067-19.018H166.84a4.885 4.885 0 0 0-4.902 4.902v56.613a4.917 4.917 0 0 0 4.902 4.902h17.156c10.539 0 19.067-8.529 19.067-19.067 0-5.637-2.5-10.636-6.421-14.165 3.921-3.481 6.421-8.481 6.421-14.167zm-19.068 37.596h-12.254v-18.528h12.254c5.098 0 9.264 4.166 9.264 9.264.001 5.097-4.166 9.264-9.264 9.264zm0-28.331h-12.254V232.62h12.254c5.098 0 9.264 4.117 9.264 9.215.001 5.146-4.166 9.264-9.264 9.264zM278.302 222.816c-10.489 0-19.067 8.529-19.067 19.018v28.331c0 10.539 8.578 19.067 19.067 19.067 10.538 0 19.067-8.529 19.067-19.067v-28.331c0-10.489-8.528-19.018-19.067-19.018zm9.264 47.35c0 5.098-4.166 9.264-9.264 9.264s-9.264-4.166-9.264-9.264v-28.331c0-5.098 4.166-9.215 9.264-9.215s9.264 4.117 9.264 9.215zM330.958 232.603h14.159a4.902 4.902 0 0 0 0-9.804h-14.159c-10.509 0-19.058 8.549-19.058 19.058s8.549 19.061 19.058 19.061c5.105 0 9.257 4.152 9.257 9.255 0 5.105-4.152 9.257-9.257 9.257h-14.157a4.902 4.902 0 0 0 0 9.804h14.157c10.509 0 19.061-8.551 19.061-19.061s-8.551-19.058-19.061-19.058c-5.103 0-9.255-4.152-9.255-9.257 0-5.102 4.153-9.255 9.255-9.255zM239.824 232.603a4.902 4.902 0 0 0 0-9.804h-20.355a4.902 4.902 0 0 0 0 9.804h5.275v46.828h-5.275a4.902 4.902 0 0 0 0 9.804h20.355a4.902 4.902 0 0 0 0-9.804h-5.277v-46.828z" fill="#ffffff" opacity="1" data-original="#000000" class=""></path></g></svg>