<svg width="40" height="40" viewBox="0 0 40 40" fill="none" xmlns="http://www.w3.org/2000/svg">
<path d="M20 37.5C29.6641 37.5 37.5 29.6641 37.5 20C37.5 10.3359 29.6641 2.5 20 2.5C10.3359 2.5 2.5 10.3359 2.5 20C2.5 29.6641 10.3359 37.5 20 37.5ZM20 0C31.0469 0 40 8.95312 40 20C40 31.0469 31.0469 40 20 40C8.95312 40 0 31.0469 0 20C0 8.95312 8.95312 0 20 0ZM21.875 7.5C21.875 8.53906 21.0391 9.375 20 9.375C18.9609 9.375 18.125 8.53906 18.125 7.5C18.125 6.46094 18.9609 5.625 20 5.625C21.0391 5.625 21.875 6.46094 21.875 7.5ZM17.5 27.5C17.5 28.8828 18.6172 30 20 30C21.3828 30 22.5 28.8828 22.5 27.5C22.5 26.1172 21.3828 25 20 25C18.6172 25 17.5 26.1172 17.5 27.5ZM15 27.5C15 24.7422 17.2422 22.5 20 22.5C21.3672 22.5 22.6094 23.0469 23.5078 23.9375L31.8594 18.9297L32.9297 18.2891L34.2188 20.4297L33.1484 21.0703L24.8047 26.0781C24.9375 26.5312 25.0078 27.0078 25.0078 27.5C25.0078 30.2578 22.7656 32.5 20.0078 32.5C17.25 32.5 15.0078 30.2578 15.0078 27.5H15ZM30.625 11.25C30.625 12.2891 29.7891 13.125 28.75 13.125C27.7109 13.125 26.875 12.2891 26.875 11.25C26.875 10.2109 27.7109 9.375 28.75 9.375C29.7891 9.375 30.625 10.2109 30.625 11.25ZM7.5 18.125C8.53906 18.125 9.375 18.9609 9.375 20C9.375 21.0391 8.53906 21.875 7.5 21.875C6.46094 21.875 5.625 21.0391 5.625 20C5.625 18.9609 6.46094 18.125 7.5 18.125ZM13.125 11.25C13.125 12.2891 12.2891 13.125 11.25 13.125C10.2109 13.125 9.375 12.2891 9.375 11.25C9.375 10.2109 10.2109 9.375 11.25 9.375C12.2891 9.375 13.125 10.2109 13.125 11.25Z" fill="black"/>
</svg>
