<svg width="36" height="41" viewBox="0 0 36 41" fill="none" xmlns="http://www.w3.org/2000/svg">
<path d="M36 10.2518V30.7553L18 41L0 30.7553V10.2518L18 0L36 10.2518ZM16.875 37.7641V32.3733L5.19609 31.1156L16.875 37.7641ZM19.125 32.3733V37.7641L30.8039 31.1156L19.125 32.3733ZM3.13594 28.6145L15.9258 29.9922L9.49922 18.716L3.12891 28.6145H3.13594ZM20.0672 29.9922L32.857 28.6145L26.4867 18.716L20.0602 29.9922H20.0672ZM18 29.0808L24.4969 17.6774H11.5031L18 29.0808ZM2.25 25.8308L8.02969 16.8437L2.25 12.7317V25.8308ZM27.9703 16.8437L33.75 25.8308V12.7458L27.9703 16.8508V16.8437ZM11.5102 15.4165H24.4969L18 4.07668L11.5102 15.4165ZM3.50156 10.8594L9.20391 14.9078L15.4055 4.08375L3.50859 10.8594H3.50156ZM26.7961 14.9078L32.4984 10.8594L20.6016 4.08375L26.8031 14.9078H26.7961Z" fill="black"/>
</svg>
