<svg width="44" height="44" viewBox="0 0 44 44" fill="none" xmlns="http://www.w3.org/2000/svg">
<path d="M12.2862 0C12.2862 0 14.1407 0.493542 17.8348 1.4881L18.7621 1.73487C18.7471 2.00408 18.6873 3.38749 18.5826 5.89259C18.7097 6.01224 18.8368 6.13936 18.9565 6.26649C21.4616 6.16179 22.8525 6.10197 23.1142 6.08701L23.361 7.01428L24.6023 11.6356L24.8491 12.5629C24.6173 12.6825 23.3834 13.3256 21.155 14.4847C21.1176 14.6567 21.0653 14.8287 21.0204 14.9932C22.3664 17.1094 23.1142 18.2835 23.2563 18.5078L22.5758 19.1883L19.1883 22.5758L18.5078 23.2563C18.2835 23.1142 17.1094 22.3664 14.9932 21.0204C14.8212 21.0727 14.6567 21.1176 14.4772 21.155C13.3182 23.3759 12.675 24.6098 12.5554 24.8491L11.6281 24.6023L7.0068 23.361L6.07954 23.1142C6.09449 22.845 6.15432 21.4616 6.25901 18.9565C6.13188 18.8368 6.00476 18.7097 5.88511 18.5826C3.38001 18.6873 1.98912 18.7471 1.7274 18.7621C1.7274 18.7621 1.23385 16.9075 0.239293 13.2135L0 12.2862L3.69409 10.3644C3.73148 10.1924 3.78382 10.0204 3.82869 9.85588C2.48266 7.73963 1.73487 6.5656 1.59279 6.34126L5.6533 2.28076L6.33379 1.60027C6.55812 1.74235 7.73215 2.49014 9.8484 3.83617C10.0204 3.78382 10.1849 3.73895 10.3644 3.70156C11.5235 1.48063 12.1666 0.246771 12.2862 0.00747793V0ZM13.5201 2.81169C12.4806 4.80082 11.9572 5.81033 11.9422 5.83277L11.3515 5.92998C10.9252 5.99728 10.5065 6.10945 10.1101 6.26649L9.54928 6.47587C9.52685 6.46091 8.5622 5.84772 6.67029 4.64378L4.64378 6.67029C5.84772 8.56968 6.46091 9.52685 6.47587 9.54928L6.26649 10.1101C6.19171 10.312 6.1244 10.5139 6.07206 10.7233C6.01971 10.9327 5.96737 11.1421 5.93746 11.3515L5.83277 11.9422C5.81033 11.9572 4.80082 12.4806 2.80421 13.5201L3.54453 16.2869L6.95445 16.1373L7.33583 16.601C7.60503 16.93 7.91162 17.2366 8.24813 17.5133L8.71176 17.8946C8.71176 17.9245 8.65941 19.0612 8.5622 21.3046L11.329 22.0449C12.3685 20.0557 12.8919 19.0462 12.9069 19.0238L13.4976 18.9266C13.9239 18.8593 14.3426 18.7471 14.739 18.5901L15.2998 18.3807C15.3222 18.3956 16.2869 19.0088 18.1788 20.2128L20.2053 18.1863C19.0014 16.2944 18.3882 15.3297 18.3732 15.3073L18.5826 14.7464C18.6574 14.5445 18.7247 14.3426 18.777 14.1332C18.8294 13.9239 18.8817 13.7145 18.9116 13.5051L19.0088 12.9143C19.0313 12.8994 20.0408 12.3759 22.0374 11.3365L21.2971 8.56968C19.0537 8.66689 17.9171 8.71924 17.8872 8.71924L17.5058 8.25561C17.2366 7.92658 16.93 7.61999 16.5935 7.3433L16.1298 6.96193C16.1298 6.93202 16.1822 5.79538 16.2794 3.55201L13.5126 2.81169H13.5201ZM11.344 16.4738C9.10809 15.8756 7.7845 13.5799 8.38273 11.344C8.98096 9.10809 11.2767 7.7845 13.5126 8.38273C15.7485 8.98096 17.0721 11.2767 16.4738 13.5126C15.8756 15.7485 13.5799 17.0721 11.344 16.4738ZM14.1632 12.8919C14.4174 11.9347 13.8491 10.9477 12.8919 10.6934C11.9347 10.4392 10.9477 11.0075 10.6934 11.9646C10.4392 12.9218 11.0075 13.9089 11.9646 14.1632C12.9218 14.4174 13.9089 13.8491 14.1632 12.8919ZM25.2305 20.8858L26.1577 20.639L30.7791 19.3977L31.7063 19.1509C31.826 19.3902 32.4691 20.6166 33.6281 22.845C33.8001 22.8899 33.9721 22.9347 34.1441 22.9796C36.2604 21.6336 37.4344 20.8858 37.6587 20.7437L38.3392 21.4242L41.7267 24.8117L42.4072 25.4922C42.2651 25.7165 41.5173 26.8906 40.1713 29.0068C40.2237 29.1713 40.2685 29.3433 40.3059 29.5153C42.5343 30.6744 43.7607 31.3175 44 31.4371L43.7532 32.3644L42.5119 36.9857L42.2651 37.913C41.9959 37.898 40.6125 37.8382 38.1074 37.7335C37.9878 37.8606 37.8606 37.9878 37.7335 38.1074C37.8382 40.6125 37.898 41.9959 37.913 42.2651L36.9857 42.5119L32.3644 43.7532L31.4371 44C31.3175 43.7607 30.6744 42.5343 29.5153 40.3059C29.3433 40.2685 29.1713 40.2162 28.9993 40.1713C26.8831 41.5173 25.709 42.2651 25.4847 42.4072L24.8042 41.7267L21.4167 38.3392L20.7362 37.6587C20.8783 37.4344 21.6261 36.2604 22.9721 34.1441C22.9497 34.0619 22.9198 33.9721 22.8973 33.8899C22.8749 33.8076 22.8525 33.7179 22.83 33.6356C20.6016 32.4765 19.3753 31.8334 19.136 31.7138L19.3827 30.7865L20.6241 26.1652L20.8708 25.2379C21.14 25.2529 22.5235 25.3127 25.0286 25.4174C25.1482 25.2903 25.2753 25.1632 25.4024 25.0435C25.2978 22.5384 25.2379 21.155 25.223 20.8858H25.2305ZM27.7056 22.7029L27.8253 25.5146L27.8477 26.1128L27.3841 26.4942C27.0476 26.7709 26.7485 27.0775 26.4718 27.4065L26.0904 27.8702L25.4922 27.8477L22.6805 27.7281L21.9402 30.4949L24.4378 31.7961L24.9687 32.0727L25.0659 32.6635C25.1033 32.8729 25.1482 33.0823 25.2005 33.2916C25.2529 33.501 25.3202 33.7104 25.395 33.9048L25.6043 34.4657L25.2828 34.9667L23.7723 37.3447L25.7988 39.3712C27.6907 38.1672 28.6553 37.554 28.6778 37.5391L29.2386 37.7485C29.6424 37.898 30.0537 38.0102 30.4799 38.085L31.0707 38.1822L31.3474 38.7131L32.6485 41.2107L35.4154 40.4704L35.2957 37.6587L35.2733 37.0605L35.7369 36.6791C36.0734 36.4024 36.3725 36.0959 36.6492 35.7668L37.0306 35.3032L37.6288 35.3256L40.4405 35.4453L41.1808 32.6784L38.6832 31.3773L38.1523 31.1006L38.0551 30.5099C38.0177 30.3005 37.9728 30.0911 37.9205 29.8817C37.8681 29.6723 37.8008 29.4629 37.726 29.2685L37.5167 28.7077C37.5316 28.6852 38.1448 27.7206 39.3487 25.8287L37.3222 23.8022C35.4303 25.0061 34.4657 25.6193 34.4432 25.6343L33.8824 25.4249C33.4786 25.2753 33.0673 25.1632 32.6411 25.0884L32.0503 24.9912L31.7736 24.4602L30.4725 21.9626L27.7056 22.7029ZM32.6485 35.6247C30.4126 36.223 28.1169 34.8994 27.5187 32.6635C26.9205 30.4276 28.244 28.1319 30.4799 27.5336C32.7158 26.9354 35.0116 28.259 35.6098 30.4949C36.208 32.7308 34.8844 35.0265 32.6485 35.6247ZM33.2991 31.1156C33.0449 30.1584 32.0578 29.5901 31.1006 29.8443C30.1434 30.0986 29.5751 31.0857 29.8294 32.0428C30.0836 33 31.0707 33.5683 32.0279 33.3141C32.985 33.0598 33.5534 32.0727 33.2991 31.1156Z" fill="black"/>
</svg>
