<svg width="2044" height="230" viewBox="0 0 2044 230" fill="none" xmlns="http://www.w3.org/2000/svg">
<g clip-path="url(#clip0_3421_4202)">
<rect x="0.5" y="0.5" width="435" height="229" rx="14.5" fill="url(#paint0_linear_3421_4202)" stroke="#B3B3B3"/>
<path d="M76.1719 122L68.8125 100.969H72.6719L78.3281 118.281L84.0469 100.969H87.8906L80.4219 122L76.1719 122ZM94.3438 122.219C92.6875 122.219 91.4531 121.734 90.6406 120.766C89.8281 119.797 89.4219 118.443 89.4219 116.703V106.766H92.7969V116.281C92.7969 116.885 92.875 117.422 93.0312 117.891C93.1875 118.359 93.4635 118.729 93.8594 119C94.2552 119.26 94.8021 119.391 95.5 119.391C96.4792 119.391 97.3073 119.182 97.9844 118.766C98.6719 118.339 99.2448 117.833 99.7031 117.25V106.766H103.078V122H99.8125L99.75 119.672C99.25 120.307 98.5573 120.891 97.6719 121.422C96.7865 121.953 95.6771 122.219 94.3438 122.219ZM112.875 122C111.479 122 110.401 121.812 109.641 121.437C108.891 121.052 108.37 120.484 108.078 119.734C107.797 118.974 107.656 118.026 107.656 116.891V100.969H111.031V116.687C111.031 117.562 111.146 118.224 111.375 118.672C111.604 119.109 112.151 119.328 113.016 119.328H113.844V122H112.875ZM116.719 122V106.766H119.969L120.047 109.078C120.547 108.443 121.224 107.865 122.078 107.344C122.932 106.812 124.031 106.547 125.375 106.547C126.99 106.547 128.198 107.031 129 108C129.812 108.958 130.219 110.333 130.219 112.125V122H126.844V112.578C126.844 111.932 126.766 111.365 126.609 110.875C126.453 110.375 126.188 109.99 125.812 109.719C125.448 109.437 124.943 109.297 124.297 109.297C123.318 109.297 122.484 109.526 121.797 109.984C121.12 110.432 120.557 110.943 120.109 111.516V122H116.719ZM141.484 122.281C139.818 122.281 138.427 121.953 137.312 121.297C136.208 120.63 135.38 119.703 134.828 118.516C134.276 117.318 134 115.932 134 114.359C134 112.776 134.266 111.401 134.797 110.234C135.339 109.057 136.141 108.146 137.203 107.5C138.276 106.844 139.615 106.516 141.219 106.516C143.385 106.516 145.094 107.161 146.344 108.453C147.594 109.745 148.219 111.589 148.219 113.984C148.219 114.13 148.208 114.312 148.188 114.531C148.177 114.74 148.161 114.891 148.141 114.984H137.375C137.385 115.849 137.526 116.646 137.797 117.375C138.078 118.094 138.521 118.672 139.125 119.109C139.729 119.547 140.516 119.766 141.484 119.766C142.526 119.766 143.344 119.536 143.938 119.078C144.531 118.609 144.844 117.922 144.875 117.016H148.203C148.151 118.141 147.844 119.099 147.281 119.891C146.729 120.672 145.958 121.266 144.969 121.672C143.99 122.078 142.828 122.281 141.484 122.281ZM137.406 112.719H144.859C144.828 111.49 144.484 110.557 143.828 109.922C143.182 109.276 142.312 108.953 141.219 108.953C140.094 108.953 139.198 109.276 138.531 109.922C137.875 110.568 137.5 111.5 137.406 112.719ZM152.156 122V106.766H155.375L155.453 109.375C155.87 108.531 156.464 107.854 157.234 107.344C158.016 106.823 158.995 106.562 160.172 106.562H160.469V109.516H160.109C159.411 109.516 158.776 109.594 158.203 109.75C157.641 109.896 157.141 110.125 156.703 110.437C156.266 110.74 155.88 111.12 155.547 111.578V122H152.156ZM166.484 122.266C165.609 122.266 164.802 122.104 164.062 121.781C163.333 121.448 162.745 120.953 162.297 120.297C161.849 119.63 161.625 118.802 161.625 117.812C161.625 116.427 162.047 115.38 162.891 114.672C163.745 113.964 164.938 113.479 166.469 113.219C168.01 112.958 169.812 112.812 171.875 112.781V111.844C171.875 110.708 171.594 109.927 171.031 109.5C170.469 109.073 169.755 108.859 168.891 108.859C167.953 108.859 167.172 109.089 166.547 109.547C165.922 110.005 165.609 110.74 165.609 111.75H162.406C162.406 110.479 162.677 109.464 163.219 108.703C163.771 107.932 164.531 107.375 165.5 107.031C166.479 106.687 167.609 106.516 168.891 106.516C169.755 106.516 170.568 106.594 171.328 106.75C172.089 106.906 172.755 107.182 173.328 107.578C173.911 107.964 174.365 108.5 174.688 109.187C175.021 109.865 175.188 110.734 175.188 111.797V122L172.031 122L171.906 119.859C171.24 120.609 170.458 121.198 169.562 121.625C168.677 122.052 167.651 122.266 166.484 122.266ZM167.5 119.859C168.417 119.859 169.25 119.635 170 119.187C170.75 118.74 171.365 118.193 171.844 117.547V114.781C169.365 114.792 167.604 115.021 166.562 115.469C165.521 115.917 165 116.641 165 117.641C165 118.349 165.219 118.896 165.656 119.281C166.104 119.667 166.719 119.859 167.5 119.859ZM187.828 122.281C186.703 122.281 185.76 122.068 185 121.641C184.25 121.203 183.625 120.609 183.125 119.859L182.969 122H179.781V100.969H183.172V109.078C183.703 108.307 184.375 107.687 185.188 107.219C186.01 106.74 187 106.5 188.156 106.5C189.365 106.5 190.422 106.792 191.328 107.375C192.245 107.958 192.958 108.833 193.469 110C193.979 111.156 194.234 112.62 194.234 114.391C194.234 116.151 193.958 117.62 193.406 118.797C192.865 119.964 192.109 120.839 191.141 121.422C190.182 121.995 189.078 122.281 187.828 122.281ZM187.062 119.625C188.26 119.625 189.177 119.177 189.812 118.281C190.448 117.385 190.766 116.104 190.766 114.437C190.766 112.687 190.464 111.365 189.859 110.469C189.266 109.573 188.411 109.125 187.297 109.125C186.318 109.125 185.479 109.396 184.781 109.937C184.083 110.479 183.547 111.13 183.172 111.891V117.062C183.526 117.771 184.026 118.375 184.672 118.875C185.328 119.375 186.125 119.625 187.062 119.625ZM198.156 122V106.766H201.547V122H198.156ZM199.859 104.328C199.224 104.328 198.734 104.161 198.391 103.828C198.047 103.495 197.875 103.078 197.875 102.578C197.875 102.057 198.047 101.63 198.391 101.297C198.734 100.964 199.224 100.797 199.859 100.797C200.484 100.797 200.969 100.964 201.312 101.297C201.667 101.63 201.844 102.052 201.844 102.562C201.844 103.073 201.667 103.495 201.312 103.828C200.969 104.161 200.484 104.328 199.859 104.328ZM211.344 122C209.948 122 208.87 121.812 208.109 121.437C207.359 121.052 206.839 120.484 206.547 119.734C206.266 118.974 206.125 118.026 206.125 116.891V100.969H209.5V116.687C209.5 117.562 209.615 118.224 209.844 118.672C210.073 119.109 210.62 119.328 211.484 119.328H212.312V122H211.344ZM215.188 122V106.766H218.578V122H215.188ZM216.891 104.328C216.255 104.328 215.766 104.161 215.422 103.828C215.078 103.495 214.906 103.078 214.906 102.578C214.906 102.057 215.078 101.63 215.422 101.297C215.766 100.964 216.255 100.797 216.891 100.797C217.516 100.797 218 100.964 218.344 101.297C218.698 101.63 218.875 102.052 218.875 102.562C218.875 103.073 218.698 103.495 218.344 103.828C218 104.161 217.516 104.328 216.891 104.328ZM229.109 122C227.724 122 226.656 121.812 225.906 121.437C225.156 121.052 224.635 120.484 224.344 119.734C224.062 118.974 223.922 118.026 223.922 116.891V109.422H221.375V106.766H223.922V103.219H227.281V106.766H230.828V109.422H227.281V116.687C227.281 117.562 227.396 118.224 227.625 118.672C227.865 119.12 228.417 119.344 229.281 119.344H230.828V122H229.109ZM233.531 127.594V124.828H234.875C235.479 124.828 235.984 124.693 236.391 124.422C236.797 124.161 237.125 123.724 237.375 123.109L237.828 122L231.828 106.766H235.359L239.641 118.625L243.531 106.766H246.953L241.359 122L240.719 123.672C240.344 124.672 239.927 125.453 239.469 126.016C239.01 126.589 238.443 126.995 237.766 127.234C237.099 127.474 236.26 127.594 235.25 127.594H233.531ZM262.891 122.281C261.339 122.281 259.938 122.052 258.688 121.594C257.448 121.135 256.464 120.417 255.734 119.437C255.005 118.458 254.641 117.177 254.641 115.594H258.297C258.318 116.552 258.536 117.307 258.953 117.859C259.37 118.411 259.927 118.802 260.625 119.031C261.333 119.26 262.115 119.375 262.969 119.375C263.781 119.375 264.51 119.266 265.156 119.047C265.812 118.828 266.328 118.49 266.703 118.031C267.089 117.573 267.281 116.995 267.281 116.297C267.281 115.651 267.125 115.12 266.812 114.703C266.5 114.286 265.974 113.922 265.234 113.609C264.495 113.286 263.479 112.948 262.188 112.594C260.677 112.187 259.401 111.734 258.359 111.234C257.318 110.734 256.526 110.104 255.984 109.344C255.453 108.573 255.188 107.589 255.188 106.391C255.188 105.109 255.495 104.052 256.109 103.219C256.724 102.375 257.583 101.745 258.688 101.328C259.792 100.911 261.083 100.703 262.562 100.703C263.969 100.703 265.25 100.922 266.406 101.359C267.573 101.786 268.505 102.443 269.203 103.328C269.901 104.214 270.25 105.328 270.25 106.672H266.594C266.604 105.63 266.214 104.849 265.422 104.328C264.641 103.797 263.688 103.531 262.562 103.531C261.427 103.531 260.516 103.755 259.828 104.203C259.151 104.641 258.812 105.302 258.812 106.187C258.812 106.698 258.958 107.141 259.25 107.516C259.542 107.88 260.062 108.219 260.812 108.531C261.562 108.844 262.62 109.193 263.984 109.578C265.589 110.026 266.901 110.505 267.922 111.016C268.943 111.526 269.698 112.182 270.188 112.984C270.677 113.776 270.922 114.823 270.922 116.125C270.922 117.542 270.568 118.703 269.859 119.609C269.151 120.516 268.193 121.187 266.984 121.625C265.776 122.062 264.411 122.281 262.891 122.281ZM274.438 122V106.766H277.828V122H274.438ZM276.141 104.328C275.505 104.328 275.016 104.161 274.672 103.828C274.328 103.495 274.156 103.078 274.156 102.578C274.156 102.057 274.328 101.63 274.672 101.297C275.016 100.964 275.505 100.797 276.141 100.797C276.766 100.797 277.25 100.964 277.594 101.297C277.948 101.63 278.125 102.052 278.125 102.562C278.125 103.073 277.948 103.495 277.594 103.828C277.25 104.161 276.766 104.328 276.141 104.328ZM288.219 127.891C286.49 127.891 285.109 127.703 284.078 127.328C283.047 126.953 282.302 126.453 281.844 125.828C281.396 125.214 281.172 124.552 281.172 123.844C281.172 122.969 281.568 122.198 282.359 121.531C283.151 120.854 284.385 120.38 286.062 120.109L286.641 118.937H288.641C291.161 118.937 292.979 119.281 294.094 119.969C295.208 120.646 295.766 121.693 295.766 123.109C295.766 124.526 295.125 125.677 293.844 126.562C292.562 127.448 290.688 127.891 288.219 127.891ZM288.156 125.641C289.74 125.641 290.854 125.427 291.5 125C292.156 124.573 292.484 124.042 292.484 123.406C292.484 123.021 292.37 122.687 292.141 122.406C291.922 122.135 291.531 121.927 290.969 121.781C290.417 121.625 289.641 121.547 288.641 121.547H286.109C285.547 121.714 285.104 121.974 284.781 122.328C284.469 122.693 284.312 123.109 284.312 123.578C284.312 124.109 284.609 124.583 285.203 125C285.807 125.427 286.792 125.641 288.156 125.641ZM286.062 121.391C285.021 121.276 284.188 121.062 283.562 120.75C282.948 120.437 282.5 120.083 282.219 119.687C281.948 119.281 281.812 118.891 281.812 118.516C281.812 117.932 282.036 117.422 282.484 116.984C282.932 116.536 283.635 116.156 284.594 115.844L286.312 116.641C285.76 116.776 285.307 116.953 284.953 117.172C284.609 117.391 284.438 117.646 284.438 117.937C284.438 118.146 284.542 118.323 284.75 118.469C284.958 118.615 285.318 118.729 285.828 118.812C286.339 118.896 287.047 118.937 287.953 118.937L286.062 121.391ZM287.984 117.109C286.672 117.109 285.552 116.87 284.625 116.391C283.708 115.901 283.01 115.26 282.531 114.469C282.062 113.667 281.828 112.802 281.828 111.875C281.828 110.906 282.068 110.026 282.547 109.234C283.026 108.432 283.729 107.797 284.656 107.328C285.594 106.849 286.734 106.609 288.078 106.609C289.453 106.609 290.594 106.849 291.5 107.328C292.406 107.797 293.083 108.432 293.531 109.234C293.99 110.026 294.219 110.906 294.219 111.875C294.219 112.823 293.984 113.698 293.516 114.5C293.057 115.292 292.37 115.927 291.453 116.406C290.536 116.875 289.38 117.109 287.984 117.109ZM287.969 114.984C288.865 114.984 289.604 114.724 290.188 114.203C290.771 113.672 291.062 112.896 291.062 111.875C291.062 110.812 290.786 110.021 290.234 109.5C289.682 108.979 288.964 108.719 288.078 108.719C287.193 108.719 286.458 108.99 285.875 109.531C285.302 110.062 285.016 110.844 285.016 111.875C285.016 112.906 285.312 113.682 285.906 114.203C286.51 114.724 287.198 114.984 287.969 114.984ZM292.141 108.609L291.016 107.328C291.432 106.297 292.036 105.594 292.828 105.219C293.62 104.844 294.599 104.651 295.766 104.641V107.25C294.995 107.25 294.286 107.328 293.641 107.484C293.005 107.63 292.505 108.005 292.141 108.609ZM298.5 122V100.969H301.828V109.078C302.328 108.443 303.005 107.865 303.859 107.344C304.714 106.812 305.807 106.547 307.141 106.547C308.776 106.547 309.995 107.026 310.797 107.984C311.599 108.932 312 110.312 312 112.125V122H308.609V112.578C308.609 111.932 308.531 111.365 308.375 110.875C308.229 110.375 307.974 109.99 307.609 109.719C307.245 109.437 306.734 109.297 306.078 109.297C305.099 109.297 304.266 109.526 303.578 109.984C302.901 110.432 302.339 110.943 301.891 111.516V122H298.5ZM322.391 122C321.005 122 319.938 121.812 319.188 121.437C318.438 121.052 317.917 120.484 317.625 119.734C317.344 118.974 317.203 118.026 317.203 116.891V109.422H314.656V106.766H317.203V103.219L320.562 103.219V106.766L324.109 106.766V109.422L320.562 109.422V116.687C320.562 117.562 320.677 118.224 320.906 118.672C321.146 119.12 321.698 119.344 322.562 119.344H324.109V122H322.391ZM327.469 122V106.766H330.859V122H327.469ZM329.172 104.328C328.536 104.328 328.047 104.161 327.703 103.828C327.359 103.495 327.188 103.078 327.188 102.578C327.188 102.057 327.359 101.63 327.703 101.297C328.047 100.964 328.536 100.797 329.172 100.797C329.797 100.797 330.281 100.964 330.625 101.297C330.979 101.63 331.156 102.052 331.156 102.562C331.156 103.073 330.979 103.495 330.625 103.828C330.281 104.161 329.797 104.328 329.172 104.328ZM335.594 122V106.766H338.844L338.922 109.078C339.422 108.443 340.099 107.865 340.953 107.344C341.807 106.812 342.906 106.547 344.25 106.547C345.865 106.547 347.073 107.031 347.875 108C348.688 108.958 349.094 110.333 349.094 112.125V122H345.719V112.578C345.719 111.932 345.641 111.365 345.484 110.875C345.328 110.375 345.062 109.99 344.688 109.719C344.323 109.437 343.818 109.297 343.172 109.297C342.193 109.297 341.359 109.526 340.672 109.984C339.995 110.432 339.432 110.943 338.984 111.516V122H335.594ZM359.344 127.891C357.615 127.891 356.234 127.703 355.203 127.328C354.172 126.953 353.427 126.453 352.969 125.828C352.521 125.214 352.297 124.552 352.297 123.844C352.297 122.969 352.693 122.198 353.484 121.531C354.276 120.854 355.51 120.38 357.188 120.109L357.766 118.937H359.766C362.286 118.937 364.104 119.281 365.219 119.969C366.333 120.646 366.891 121.693 366.891 123.109C366.891 124.526 366.25 125.677 364.969 126.562C363.688 127.448 361.812 127.891 359.344 127.891ZM359.281 125.641C360.865 125.641 361.979 125.427 362.625 125C363.281 124.573 363.609 124.042 363.609 123.406C363.609 123.021 363.495 122.687 363.266 122.406C363.047 122.135 362.656 121.927 362.094 121.781C361.542 121.625 360.766 121.547 359.766 121.547H357.234C356.672 121.714 356.229 121.974 355.906 122.328C355.594 122.693 355.438 123.109 355.438 123.578C355.438 124.109 355.734 124.583 356.328 125C356.932 125.427 357.917 125.641 359.281 125.641ZM357.188 121.391C356.146 121.276 355.312 121.062 354.688 120.75C354.073 120.437 353.625 120.083 353.344 119.687C353.073 119.281 352.938 118.891 352.938 118.516C352.938 117.932 353.161 117.422 353.609 116.984C354.057 116.536 354.76 116.156 355.719 115.844L357.438 116.641C356.885 116.776 356.432 116.953 356.078 117.172C355.734 117.391 355.562 117.646 355.562 117.937C355.562 118.146 355.667 118.323 355.875 118.469C356.083 118.615 356.443 118.729 356.953 118.812C357.464 118.896 358.172 118.937 359.078 118.937L357.188 121.391ZM359.109 117.109C357.797 117.109 356.677 116.87 355.75 116.391C354.833 115.901 354.135 115.26 353.656 114.469C353.188 113.667 352.953 112.802 352.953 111.875C352.953 110.906 353.193 110.026 353.672 109.234C354.151 108.432 354.854 107.797 355.781 107.328C356.719 106.849 357.859 106.609 359.203 106.609C360.578 106.609 361.719 106.849 362.625 107.328C363.531 107.797 364.208 108.432 364.656 109.234C365.115 110.026 365.344 110.906 365.344 111.875C365.344 112.823 365.109 113.698 364.641 114.5C364.182 115.292 363.495 115.927 362.578 116.406C361.661 116.875 360.505 117.109 359.109 117.109ZM359.094 114.984C359.99 114.984 360.729 114.724 361.312 114.203C361.896 113.672 362.188 112.896 362.188 111.875C362.188 110.812 361.911 110.021 361.359 109.5C360.807 108.979 360.089 108.719 359.203 108.719C358.318 108.719 357.583 108.99 357 109.531C356.427 110.062 356.141 110.844 356.141 111.875C356.141 112.906 356.438 113.682 357.031 114.203C357.635 114.724 358.323 114.984 359.094 114.984ZM363.266 108.609L362.141 107.328C362.557 106.297 363.161 105.594 363.953 105.219C364.745 104.844 365.724 104.651 366.891 104.641V107.25C366.12 107.25 365.411 107.328 364.766 107.484C364.13 107.63 363.63 108.005 363.266 108.609Z" fill="black"/>
<rect x="536.5" y="0.5" width="435" height="229" rx="14.5" fill="url(#paint1_linear_3421_4202)" stroke="#B3B3B3"/>
<path d="M620.922 113V91.9687H624.5L635.109 107.422V91.9687H638.5V113H634.922L624.297 97.4844V113H620.922ZM643.797 113V91.9687H651.25C653.469 91.9687 655.365 92.3854 656.938 93.2187C658.51 94.0417 659.714 95.2396 660.547 96.8125C661.38 98.375 661.797 100.255 661.797 102.453C661.797 104.703 661.375 106.615 660.531 108.187C659.698 109.75 658.495 110.943 656.922 111.766C655.349 112.589 653.458 113 651.25 113H643.797ZM647.391 109.984H650.688C652.365 109.984 653.745 109.714 654.828 109.172C655.922 108.62 656.74 107.786 657.281 106.672C657.823 105.557 658.094 104.146 658.094 102.437C658.094 100.771 657.812 99.3854 657.25 98.2812C656.688 97.1771 655.854 96.3542 654.75 95.8125C653.656 95.2604 652.302 94.9844 650.688 94.9844H647.391V109.984ZM662.859 113L670.594 91.9687H674.375L682.047 113H678.312L676.562 107.75H668.406L666.578 113H662.859ZM669.312 104.734H675.625L672.469 95.5312L669.312 104.734ZM688.734 113L696.469 91.9687H700.25L707.922 113H704.188L702.438 107.75H694.281L692.453 113H688.734ZM695.188 104.734H701.5L698.344 95.5312L695.188 104.734ZM715.625 113.266C714.438 113.266 713.385 112.974 712.469 112.391C711.562 111.807 710.854 110.927 710.344 109.75C709.833 108.562 709.578 107.083 709.578 105.312C709.578 103.562 709.849 102.115 710.391 100.969C710.943 99.8125 711.698 98.9479 712.656 98.375C713.625 97.7917 714.74 97.5 716 97.5C717.062 97.5 717.984 97.7292 718.766 98.1875C719.547 98.6458 720.172 99.2552 720.641 100.016V91.9687L724.016 91.9687V113H720.812L720.641 110.812C720.099 111.552 719.417 112.146 718.594 112.594C717.771 113.042 716.781 113.266 715.625 113.266ZM716.5 110.625C717.5 110.625 718.344 110.375 719.031 109.875C719.719 109.365 720.255 108.76 720.641 108.062V102.891C720.276 102.13 719.771 101.484 719.125 100.953C718.49 100.411 717.698 100.141 716.75 100.141C715.542 100.141 714.62 100.589 713.984 101.484C713.349 102.37 713.031 103.641 713.031 105.297C713.031 107.068 713.328 108.401 713.922 109.297C714.526 110.182 715.385 110.625 716.5 110.625ZM732.062 113L726.375 97.7656H729.906L733.953 109.781L738.078 97.7656H741.5L735.859 113H732.062ZM743.859 113V97.7656H747.25V113H743.859ZM745.562 95.3281C744.927 95.3281 744.438 95.1615 744.094 94.8281C743.75 94.4948 743.578 94.0781 743.578 93.5781C743.578 93.0573 743.75 92.6302 744.094 92.2969C744.438 91.9635 744.927 91.7969 745.562 91.7969C746.188 91.7969 746.672 91.9635 747.016 92.2969C747.37 92.6302 747.547 93.0521 747.547 93.5625C747.547 94.0729 747.37 94.4948 747.016 94.8281C746.672 95.1615 746.188 95.3281 745.562 95.3281ZM757.75 113.281C756.896 113.281 756.073 113.193 755.281 113.016C754.5 112.849 753.797 112.568 753.172 112.172C752.557 111.776 752.068 111.25 751.703 110.594C751.349 109.937 751.172 109.13 751.172 108.172H754.359C754.359 109.193 754.693 109.906 755.359 110.312C756.026 110.719 756.833 110.922 757.781 110.922C758.677 110.922 759.396 110.766 759.938 110.453C760.479 110.13 760.75 109.599 760.75 108.859C760.75 108.203 760.474 107.714 759.922 107.391C759.37 107.068 758.406 106.75 757.031 106.437C755.896 106.156 754.911 105.833 754.078 105.469C753.255 105.104 752.62 104.625 752.172 104.031C751.734 103.427 751.516 102.656 751.516 101.719C751.516 100.99 751.677 100.359 752 99.8281C752.333 99.2969 752.781 98.8594 753.344 98.5156C753.906 98.1719 754.552 97.9167 755.281 97.75C756.01 97.5833 756.781 97.5 757.594 97.5C758.375 97.5 759.13 97.5885 759.859 97.7656C760.589 97.9323 761.24 98.2083 761.812 98.5937C762.385 98.9792 762.839 99.4844 763.172 100.109C763.505 100.734 763.672 101.5 763.672 102.406H760.5C760.5 101.479 760.214 100.828 759.641 100.453C759.068 100.068 758.385 99.875 757.594 99.875C756.76 99.875 756.094 100.01 755.594 100.281C755.104 100.552 754.859 100.99 754.859 101.594C754.859 101.937 754.99 102.234 755.25 102.484C755.51 102.724 755.932 102.948 756.516 103.156C757.109 103.354 757.901 103.568 758.891 103.797C759.953 104.047 760.875 104.359 761.656 104.734C762.438 105.099 763.036 105.583 763.453 106.187C763.88 106.781 764.094 107.557 764.094 108.516C764.094 109.37 763.922 110.099 763.578 110.703C763.245 111.307 762.786 111.802 762.203 112.187C761.62 112.562 760.943 112.839 760.172 113.016C759.411 113.193 758.604 113.281 757.75 113.281ZM774.344 113.25C772.833 113.25 771.521 112.943 770.406 112.328C769.302 111.703 768.448 110.807 767.844 109.641C767.25 108.464 766.953 107.057 766.953 105.422C766.953 103.755 767.25 102.328 767.844 101.141C768.448 99.9531 769.302 99.0469 770.406 98.4219C771.521 97.7969 772.833 97.4844 774.344 97.4844C775.896 97.4844 777.229 97.7969 778.344 98.4219C779.469 99.0469 780.333 99.9531 780.938 101.141C781.552 102.328 781.859 103.755 781.859 105.422C781.859 107.057 781.552 108.464 780.938 109.641C780.333 110.807 779.469 111.703 778.344 112.328C777.229 112.943 775.896 113.25 774.344 113.25ZM774.344 110.625C775.365 110.625 776.172 110.396 776.766 109.937C777.359 109.479 777.781 108.859 778.031 108.078C778.281 107.286 778.406 106.401 778.406 105.422C778.406 104.422 778.281 103.521 778.031 102.719C777.781 101.917 777.359 101.286 776.766 100.828C776.172 100.359 775.365 100.125 774.344 100.125C773.365 100.125 772.589 100.359 772.016 100.828C771.443 101.286 771.031 101.917 770.781 102.719C770.531 103.521 770.406 104.422 770.406 105.422C770.406 106.401 770.531 107.286 770.781 108.078C771.031 108.859 771.443 109.479 772.016 109.937C772.589 110.396 773.365 110.625 774.344 110.625ZM785.766 113V97.7656H788.984L789.062 100.375C789.479 99.5312 790.073 98.8542 790.844 98.3437C791.625 97.8229 792.604 97.5625 793.781 97.5625H794.078V100.516H793.719C793.021 100.516 792.385 100.594 791.812 100.75C791.25 100.896 790.75 101.125 790.312 101.437C789.875 101.74 789.49 102.12 789.156 102.578V113H785.766ZM796.859 118.594V115.828H798.203C798.807 115.828 799.312 115.693 799.719 115.422C800.125 115.161 800.453 114.724 800.703 114.109L801.156 113L795.156 97.7656H798.688L802.969 109.625L806.859 97.7656H810.281L804.688 113L804.047 114.672C803.672 115.672 803.255 116.453 802.797 117.016C802.339 117.589 801.771 117.995 801.094 118.234C800.427 118.474 799.589 118.594 798.578 118.594H796.859ZM823.047 113L816.859 91.9687H820.594L824.969 108.641L829.594 91.9687H833.359L837.984 108.641L842.375 91.9687H846.031L839.812 113H836.062L831.422 96.25L826.828 113H823.047ZM848.484 113V97.7656H851.875V113H848.484ZM850.188 95.3281C849.552 95.3281 849.062 95.1615 848.719 94.8281C848.375 94.4948 848.203 94.0781 848.203 93.5781C848.203 93.0573 848.375 92.6302 848.719 92.2969C849.062 91.9635 849.552 91.7969 850.188 91.7969C850.812 91.7969 851.297 91.9635 851.641 92.2969C851.995 92.6302 852.172 93.0521 852.172 93.5625C852.172 94.0729 851.995 94.4948 851.641 94.8281C851.297 95.1615 850.812 95.3281 850.188 95.3281ZM862.406 113C861.021 113 859.953 112.812 859.203 112.437C858.453 112.052 857.932 111.484 857.641 110.734C857.359 109.974 857.219 109.026 857.219 107.891V100.422H854.672V97.7656H857.219V94.2187L860.578 94.2187V97.7656H864.125V100.422H860.578V107.687C860.578 108.562 860.693 109.224 860.922 109.672C861.161 110.12 861.714 110.344 862.578 110.344H864.125V113H862.406ZM867.484 113V91.9687H870.812V100.078C871.312 99.4427 871.99 98.8646 872.844 98.3437C873.698 97.8125 874.792 97.5469 876.125 97.5469C877.76 97.5469 878.979 98.026 879.781 98.9844C880.583 99.9323 880.984 101.312 880.984 103.125V113H877.594V103.578C877.594 102.932 877.516 102.365 877.359 101.875C877.214 101.375 876.958 100.99 876.594 100.719C876.229 100.437 875.719 100.297 875.062 100.297C874.083 100.297 873.25 100.526 872.562 100.984C871.885 101.432 871.323 101.943 870.875 102.516V113H867.484ZM590.656 149V127.969H604.078V130.969H594.25V136.781H603.094V139.672H594.25V149H590.656ZM607 149V133.766H610.391V149H607ZM608.703 131.328C608.068 131.328 607.578 131.161 607.234 130.828C606.891 130.495 606.719 130.078 606.719 129.578C606.719 129.057 606.891 128.63 607.234 128.297C607.578 127.964 608.068 127.797 608.703 127.797C609.328 127.797 609.812 127.964 610.156 128.297C610.51 128.63 610.688 129.052 610.688 129.562C610.688 130.073 610.51 130.495 610.156 130.828C609.812 131.161 609.328 131.328 608.703 131.328ZM612.859 149L618.609 140.469L620.016 139.531L623.578 133.766H627.188L621.844 141.703L620.547 142.625L616.438 149H612.859ZM624.078 149L619.953 142.625L618.703 141.734L613.359 133.766H616.969L620.547 139.516L621.859 140.406L627.672 149H624.078ZM636.234 149.281C634.568 149.281 633.177 148.953 632.062 148.297C630.958 147.63 630.13 146.703 629.578 145.516C629.026 144.318 628.75 142.932 628.75 141.359C628.75 139.776 629.016 138.401 629.547 137.234C630.089 136.057 630.891 135.146 631.953 134.5C633.026 133.844 634.365 133.516 635.969 133.516C638.135 133.516 639.844 134.161 641.094 135.453C642.344 136.745 642.969 138.589 642.969 140.984C642.969 141.13 642.958 141.312 642.938 141.531C642.927 141.74 642.911 141.891 642.891 141.984H632.125C632.135 142.849 632.276 143.646 632.547 144.375C632.828 145.094 633.271 145.672 633.875 146.109C634.479 146.547 635.266 146.766 636.234 146.766C637.276 146.766 638.094 146.536 638.688 146.078C639.281 145.609 639.594 144.922 639.625 144.016H642.953C642.901 145.141 642.594 146.099 642.031 146.891C641.479 147.672 640.708 148.266 639.719 148.672C638.74 149.078 637.578 149.281 636.234 149.281ZM632.156 139.719H639.609C639.578 138.49 639.234 137.557 638.578 136.922C637.932 136.276 637.062 135.953 635.969 135.953C634.844 135.953 633.948 136.276 633.281 136.922C632.625 137.568 632.25 138.5 632.156 139.719ZM652.516 149.281C651.661 149.281 650.839 149.193 650.047 149.016C649.266 148.849 648.562 148.568 647.938 148.172C647.323 147.776 646.833 147.25 646.469 146.594C646.115 145.938 645.938 145.13 645.938 144.172H649.125C649.125 145.193 649.458 145.906 650.125 146.312C650.792 146.719 651.599 146.922 652.547 146.922C653.443 146.922 654.161 146.766 654.703 146.453C655.245 146.13 655.516 145.599 655.516 144.859C655.516 144.203 655.24 143.714 654.688 143.391C654.135 143.068 653.172 142.75 651.797 142.438C650.661 142.156 649.677 141.833 648.844 141.469C648.021 141.104 647.385 140.625 646.938 140.031C646.5 139.427 646.281 138.656 646.281 137.719C646.281 136.99 646.443 136.359 646.766 135.828C647.099 135.297 647.547 134.859 648.109 134.516C648.672 134.172 649.318 133.917 650.047 133.75C650.776 133.583 651.547 133.5 652.359 133.5C653.141 133.5 653.896 133.589 654.625 133.766C655.354 133.932 656.005 134.208 656.578 134.594C657.151 134.979 657.604 135.484 657.938 136.109C658.271 136.734 658.438 137.5 658.438 138.406H655.266C655.266 137.479 654.979 136.828 654.406 136.453C653.833 136.068 653.151 135.875 652.359 135.875C651.526 135.875 650.859 136.01 650.359 136.281C649.87 136.552 649.625 136.99 649.625 137.594C649.625 137.938 649.755 138.234 650.016 138.484C650.276 138.724 650.698 138.948 651.281 139.156C651.875 139.354 652.667 139.568 653.656 139.797C654.719 140.047 655.641 140.359 656.422 140.734C657.203 141.099 657.802 141.583 658.219 142.188C658.646 142.781 658.859 143.557 658.859 144.516C658.859 145.37 658.688 146.099 658.344 146.703C658.01 147.307 657.552 147.802 656.969 148.188C656.385 148.562 655.708 148.839 654.938 149.016C654.177 149.193 653.37 149.281 652.516 149.281ZM675.078 149C673.693 149 672.625 148.812 671.875 148.438C671.125 148.052 670.604 147.484 670.312 146.734C670.031 145.974 669.891 145.026 669.891 143.891V136.422H667.344V133.766H669.891V130.219H673.25V133.766H676.797V136.422H673.25V143.688C673.25 144.562 673.365 145.224 673.594 145.672C673.833 146.12 674.385 146.344 675.25 146.344H676.797V149H675.078ZM686.578 149.25C685.068 149.25 683.755 148.943 682.641 148.328C681.536 147.703 680.682 146.807 680.078 145.641C679.484 144.464 679.188 143.057 679.188 141.422C679.188 139.755 679.484 138.328 680.078 137.141C680.682 135.953 681.536 135.047 682.641 134.422C683.755 133.797 685.068 133.484 686.578 133.484C688.13 133.484 689.464 133.797 690.578 134.422C691.703 135.047 692.568 135.953 693.172 137.141C693.786 138.328 694.094 139.755 694.094 141.422C694.094 143.057 693.786 144.464 693.172 145.641C692.568 146.807 691.703 147.703 690.578 148.328C689.464 148.943 688.13 149.25 686.578 149.25ZM686.578 146.625C687.599 146.625 688.406 146.396 689 145.938C689.594 145.479 690.016 144.859 690.266 144.078C690.516 143.286 690.641 142.401 690.641 141.422C690.641 140.422 690.516 139.521 690.266 138.719C690.016 137.917 689.594 137.286 689 136.828C688.406 136.359 687.599 136.125 686.578 136.125C685.599 136.125 684.823 136.359 684.25 136.828C683.677 137.286 683.266 137.917 683.016 138.719C682.766 139.521 682.641 140.422 682.641 141.422C682.641 142.401 682.766 143.286 683.016 144.078C683.266 144.859 683.677 145.479 684.25 145.938C684.823 146.396 685.599 146.625 686.578 146.625ZM702.219 149L709.953 127.969H713.734L721.406 149H717.672L715.922 143.75H707.766L705.938 149H702.219ZM708.672 140.734H714.984L711.828 131.531L708.672 140.734ZM724.156 149V127.969H728.203L735.25 139.766H733.812L740.734 127.969H744.656V149H741.109V130.312H742.547L735.547 142.328H733.281L726.125 130.312H727.609V149L724.156 149ZM749.938 149V127.969H753.531V149H749.938ZM774.438 149.281C772.281 149.281 770.448 148.833 768.938 147.937C767.427 147.031 766.276 145.771 765.484 144.156C764.693 142.542 764.297 140.656 764.297 138.5C764.297 136.344 764.693 134.458 765.484 132.844C766.276 131.219 767.427 129.953 768.938 129.047C770.448 128.141 772.281 127.687 774.438 127.687C775.969 127.687 777.401 127.953 778.734 128.484C780.068 129.016 781.161 129.818 782.016 130.891C782.87 131.953 783.354 133.286 783.469 134.891H779.812C779.698 133.932 779.385 133.146 778.875 132.531C778.365 131.906 777.724 131.443 776.953 131.141C776.182 130.828 775.344 130.672 774.438 130.672C772.906 130.672 771.667 131.031 770.719 131.75C769.771 132.458 769.083 133.406 768.656 134.594C768.229 135.771 768.016 137.073 768.016 138.5C768.016 139.917 768.229 141.219 768.656 142.406C769.083 143.583 769.771 144.526 770.719 145.234C771.667 145.943 772.906 146.297 774.438 146.297C776.01 146.297 777.271 145.901 778.219 145.109C779.177 144.307 779.724 143.146 779.859 141.625H783.531C783.385 143.302 782.917 144.714 782.125 145.859C781.333 146.995 780.281 147.849 778.969 148.422C777.656 148.995 776.146 149.281 774.438 149.281ZM792.188 149.219C790.531 149.219 789.297 148.734 788.484 147.766C787.672 146.797 787.266 145.443 787.266 143.703V133.766H790.641V143.281C790.641 143.885 790.719 144.422 790.875 144.891C791.031 145.359 791.307 145.729 791.703 146C792.099 146.26 792.646 146.391 793.344 146.391C794.323 146.391 795.151 146.182 795.828 145.766C796.516 145.339 797.089 144.833 797.547 144.25V133.766H800.922V149H797.656L797.594 146.672C797.094 147.307 796.401 147.891 795.516 148.422C794.63 148.953 793.521 149.219 792.188 149.219ZM811.422 149.281C810.568 149.281 809.745 149.193 808.953 149.016C808.172 148.849 807.469 148.568 806.844 148.172C806.229 147.776 805.74 147.25 805.375 146.594C805.021 145.937 804.844 145.13 804.844 144.172H808.031C808.031 145.193 808.365 145.906 809.031 146.312C809.698 146.719 810.505 146.922 811.453 146.922C812.349 146.922 813.068 146.766 813.609 146.453C814.151 146.13 814.422 145.599 814.422 144.859C814.422 144.203 814.146 143.714 813.594 143.391C813.042 143.068 812.078 142.75 810.703 142.437C809.568 142.156 808.583 141.833 807.75 141.469C806.927 141.104 806.292 140.625 805.844 140.031C805.406 139.427 805.188 138.656 805.188 137.719C805.188 136.99 805.349 136.359 805.672 135.828C806.005 135.297 806.453 134.859 807.016 134.516C807.578 134.172 808.224 133.917 808.953 133.75C809.682 133.583 810.453 133.5 811.266 133.5C812.047 133.5 812.802 133.589 813.531 133.766C814.26 133.932 814.911 134.208 815.484 134.594C816.057 134.979 816.51 135.484 816.844 136.109C817.177 136.734 817.344 137.5 817.344 138.406H814.172C814.172 137.479 813.885 136.828 813.312 136.453C812.74 136.068 812.057 135.875 811.266 135.875C810.432 135.875 809.766 136.01 809.266 136.281C808.776 136.552 808.531 136.99 808.531 137.594C808.531 137.937 808.661 138.234 808.922 138.484C809.182 138.724 809.604 138.948 810.188 139.156C810.781 139.354 811.573 139.568 812.562 139.797C813.625 140.047 814.547 140.359 815.328 140.734C816.109 141.099 816.708 141.583 817.125 142.187C817.552 142.781 817.766 143.557 817.766 144.516C817.766 145.37 817.594 146.099 817.25 146.703C816.917 147.307 816.458 147.802 815.875 148.187C815.292 148.562 814.615 148.839 813.844 149.016C813.083 149.193 812.276 149.281 811.422 149.281ZM827.234 149C825.849 149 824.781 148.812 824.031 148.437C823.281 148.052 822.76 147.484 822.469 146.734C822.188 145.974 822.047 145.026 822.047 143.891V136.422H819.5V133.766H822.047V130.219H825.406V133.766H828.953V136.422H825.406V143.687C825.406 144.562 825.521 145.224 825.75 145.672C825.99 146.12 826.542 146.344 827.406 146.344H828.953V149H827.234ZM838.734 149.25C837.224 149.25 835.911 148.943 834.797 148.328C833.693 147.703 832.839 146.807 832.234 145.641C831.641 144.464 831.344 143.057 831.344 141.422C831.344 139.755 831.641 138.328 832.234 137.141C832.839 135.953 833.693 135.047 834.797 134.422C835.911 133.797 837.224 133.484 838.734 133.484C840.286 133.484 841.62 133.797 842.734 134.422C843.859 135.047 844.724 135.953 845.328 137.141C845.943 138.328 846.25 139.755 846.25 141.422C846.25 143.057 845.943 144.464 845.328 145.641C844.724 146.807 843.859 147.703 842.734 148.328C841.62 148.943 840.286 149.25 838.734 149.25ZM838.734 146.625C839.755 146.625 840.562 146.396 841.156 145.937C841.75 145.479 842.172 144.859 842.422 144.078C842.672 143.286 842.797 142.401 842.797 141.422C842.797 140.422 842.672 139.521 842.422 138.719C842.172 137.917 841.75 137.286 841.156 136.828C840.562 136.359 839.755 136.125 838.734 136.125C837.755 136.125 836.979 136.359 836.406 136.828C835.833 137.286 835.422 137.917 835.172 138.719C834.922 139.521 834.797 140.422 834.797 141.422C834.797 142.401 834.922 143.286 835.172 144.078C835.422 144.859 835.833 145.479 836.406 145.937C836.979 146.396 837.755 146.625 838.734 146.625ZM850.156 149V133.766H853.406L853.484 136.078C853.964 135.443 854.635 134.865 855.5 134.344C856.375 133.812 857.458 133.547 858.75 133.547C860.365 133.547 861.562 134.036 862.344 135.016C863.125 135.995 863.516 137.365 863.516 139.125V149H860.125V139.578C860.125 138.932 860.047 138.365 859.891 137.875C859.745 137.375 859.484 136.99 859.109 136.719C858.745 136.437 858.234 136.297 857.578 136.297C856.641 136.297 855.844 136.526 855.188 136.984C854.531 137.432 853.984 137.943 853.547 138.516V149L850.156 149ZM870.078 149V139.578C870.078 138.932 870 138.365 869.844 137.875C869.698 137.375 869.438 136.99 869.062 136.719C868.698 136.437 868.188 136.297 867.531 136.297C866.594 136.297 865.797 136.516 865.141 136.953C864.484 137.38 863.922 137.88 863.453 138.453L863 136.203C863.625 135.526 864.406 134.917 865.344 134.375C866.292 133.823 867.411 133.547 868.703 133.547C870.307 133.547 871.5 134.036 872.281 135.016C873.062 135.995 873.453 137.365 873.453 139.125V149H870.078ZM884.703 149.281C883.036 149.281 881.646 148.953 880.531 148.297C879.427 147.63 878.599 146.703 878.047 145.516C877.495 144.318 877.219 142.932 877.219 141.359C877.219 139.776 877.484 138.401 878.016 137.234C878.557 136.057 879.359 135.146 880.422 134.5C881.495 133.844 882.833 133.516 884.438 133.516C886.604 133.516 888.312 134.161 889.562 135.453C890.812 136.745 891.438 138.589 891.438 140.984C891.438 141.13 891.427 141.312 891.406 141.531C891.396 141.74 891.38 141.891 891.359 141.984L880.594 141.984C880.604 142.849 880.745 143.646 881.016 144.375C881.297 145.094 881.74 145.672 882.344 146.109C882.948 146.547 883.734 146.766 884.703 146.766C885.745 146.766 886.562 146.536 887.156 146.078C887.75 145.609 888.062 144.922 888.094 144.016H891.422C891.37 145.141 891.062 146.099 890.5 146.891C889.948 147.672 889.177 148.266 888.188 148.672C887.208 149.078 886.047 149.281 884.703 149.281ZM880.625 139.719L888.078 139.719C888.047 138.49 887.703 137.557 887.047 136.922C886.401 136.276 885.531 135.953 884.438 135.953C883.312 135.953 882.417 136.276 881.75 136.922C881.094 137.568 880.719 138.5 880.625 139.719ZM895.375 149V133.766H898.594L898.672 136.375C899.089 135.531 899.682 134.854 900.453 134.344C901.234 133.823 902.214 133.562 903.391 133.562H903.688V136.516H903.328C902.63 136.516 901.995 136.594 901.422 136.75C900.859 136.896 900.359 137.125 899.922 137.437C899.484 137.74 899.099 138.12 898.766 138.578V149H895.375ZM912.078 149.281C911.224 149.281 910.401 149.193 909.609 149.016C908.828 148.849 908.125 148.568 907.5 148.172C906.885 147.776 906.396 147.25 906.031 146.594C905.677 145.937 905.5 145.13 905.5 144.172H908.688C908.688 145.193 909.021 145.906 909.688 146.312C910.354 146.719 911.161 146.922 912.109 146.922C913.005 146.922 913.724 146.766 914.266 146.453C914.807 146.13 915.078 145.599 915.078 144.859C915.078 144.203 914.802 143.714 914.25 143.391C913.698 143.068 912.734 142.75 911.359 142.437C910.224 142.156 909.24 141.833 908.406 141.469C907.583 141.104 906.948 140.625 906.5 140.031C906.062 139.427 905.844 138.656 905.844 137.719C905.844 136.99 906.005 136.359 906.328 135.828C906.661 135.297 907.109 134.859 907.672 134.516C908.234 134.172 908.88 133.917 909.609 133.75C910.339 133.583 911.109 133.5 911.922 133.5C912.703 133.5 913.458 133.589 914.188 133.766C914.917 133.932 915.568 134.208 916.141 134.594C916.714 134.979 917.167 135.484 917.5 136.109C917.833 136.734 918 137.5 918 138.406H914.828C914.828 137.479 914.542 136.828 913.969 136.453C913.396 136.068 912.714 135.875 911.922 135.875C911.089 135.875 910.422 136.01 909.922 136.281C909.432 136.552 909.188 136.99 909.188 137.594C909.188 137.937 909.318 138.234 909.578 138.484C909.839 138.724 910.26 138.948 910.844 139.156C911.438 139.354 912.229 139.568 913.219 139.797C914.281 140.047 915.203 140.359 915.984 140.734C916.766 141.099 917.365 141.583 917.781 142.187C918.208 142.781 918.422 143.557 918.422 144.516C918.422 145.37 918.25 146.099 917.906 146.703C917.573 147.307 917.115 147.802 916.531 148.187C915.948 148.562 915.271 148.839 914.5 149.016C913.74 149.193 912.932 149.281 912.078 149.281Z" fill="black"/>
<rect x="1072.5" y="0.5" width="435" height="229" rx="14.5" fill="url(#paint2_linear_3421_4202)" stroke="#B3B3B3"/>
<path d="M1202.05 113.281C1200.49 113.281 1199.09 113.052 1197.84 112.594C1196.6 112.135 1195.62 111.417 1194.89 110.437C1194.16 109.458 1193.8 108.177 1193.8 106.594H1197.45C1197.47 107.552 1197.69 108.307 1198.11 108.859C1198.53 109.411 1199.08 109.802 1199.78 110.031C1200.49 110.26 1201.27 110.375 1202.12 110.375C1202.94 110.375 1203.67 110.266 1204.31 110.047C1204.97 109.828 1205.48 109.49 1205.86 109.031C1206.24 108.573 1206.44 107.995 1206.44 107.297C1206.44 106.651 1206.28 106.12 1205.97 105.703C1205.66 105.286 1205.13 104.922 1204.39 104.609C1203.65 104.286 1202.64 103.948 1201.34 103.594C1199.83 103.187 1198.56 102.734 1197.52 102.234C1196.47 101.734 1195.68 101.104 1195.14 100.344C1194.61 99.5729 1194.34 98.5885 1194.34 97.3906C1194.34 96.1094 1194.65 95.0521 1195.27 94.2187C1195.88 93.375 1196.74 92.7448 1197.84 92.3281C1198.95 91.9115 1200.24 91.7031 1201.72 91.7031C1203.12 91.7031 1204.41 91.9219 1205.56 92.3594C1206.73 92.7865 1207.66 93.4427 1208.36 94.3281C1209.06 95.2135 1209.41 96.3281 1209.41 97.6719H1205.75C1205.76 96.6302 1205.37 95.849 1204.58 95.3281C1203.8 94.7969 1202.84 94.5312 1201.72 94.5312C1200.58 94.5312 1199.67 94.7552 1198.98 95.2031C1198.31 95.6406 1197.97 96.3021 1197.97 97.1875C1197.97 97.6979 1198.11 98.1406 1198.41 98.5156C1198.7 98.8802 1199.22 99.2187 1199.97 99.5312C1200.72 99.8437 1201.78 100.193 1203.14 100.578C1204.74 101.026 1206.06 101.505 1207.08 102.016C1208.1 102.526 1208.85 103.182 1209.34 103.984C1209.83 104.776 1210.08 105.823 1210.08 107.125C1210.08 108.542 1209.72 109.703 1209.02 110.609C1208.31 111.516 1207.35 112.187 1206.14 112.625C1204.93 113.062 1203.57 113.281 1202.05 113.281ZM1218.47 113.219C1216.81 113.219 1215.58 112.734 1214.77 111.766C1213.95 110.797 1213.55 109.443 1213.55 107.703V97.7656H1216.92V107.281C1216.92 107.885 1217 108.422 1217.16 108.891C1217.31 109.359 1217.59 109.729 1217.98 110C1218.38 110.26 1218.93 110.391 1219.62 110.391C1220.6 110.391 1221.43 110.182 1222.11 109.766C1222.8 109.339 1223.37 108.833 1223.83 108.25V97.7656H1227.2V113H1223.94L1223.88 110.672C1223.38 111.307 1222.68 111.891 1221.8 112.422C1220.91 112.953 1219.8 113.219 1218.47 113.219ZM1231.94 118.594V97.7656H1235.17L1235.33 100.172C1235.88 99.349 1236.57 98.7031 1237.39 98.2344C1238.21 97.7552 1239.18 97.5156 1240.3 97.5156C1241.52 97.5156 1242.58 97.8073 1243.48 98.3906C1244.4 98.974 1245.11 99.849 1245.62 101.016C1246.14 102.182 1246.39 103.656 1246.39 105.437C1246.39 107.177 1246.11 108.625 1245.56 109.781C1245.02 110.937 1244.27 111.807 1243.3 112.391C1242.34 112.974 1241.23 113.271 1239.98 113.281C1238.94 113.281 1238.03 113.073 1237.23 112.656C1236.44 112.229 1235.8 111.641 1235.31 110.891V118.594H1231.94ZM1239.22 110.625C1240.44 110.625 1241.36 110.177 1241.98 109.281C1242.61 108.385 1242.92 107.094 1242.92 105.406C1242.92 103.667 1242.63 102.354 1242.05 101.469C1241.46 100.583 1240.63 100.141 1239.55 100.141C1238.52 100.141 1237.64 100.422 1236.92 100.984C1236.21 101.536 1235.68 102.167 1235.33 102.875V108.078C1235.69 108.797 1236.2 109.401 1236.86 109.891C1237.52 110.38 1238.3 110.625 1239.22 110.625ZM1250.31 118.594V97.7656L1253.55 97.7656L1253.7 100.172C1254.26 99.349 1254.94 98.7031 1255.77 98.2344C1256.59 97.7552 1257.56 97.5156 1258.67 97.5156C1259.89 97.5156 1260.95 97.8073 1261.86 98.3906C1262.78 98.974 1263.49 99.849 1264 101.016C1264.51 102.182 1264.77 103.656 1264.77 105.437C1264.77 107.177 1264.49 108.625 1263.94 109.781C1263.4 110.937 1262.64 111.807 1261.67 112.391C1260.71 112.974 1259.61 113.271 1258.36 113.281C1257.32 113.281 1256.4 113.073 1255.61 112.656C1254.82 112.229 1254.18 111.641 1253.69 110.891V118.594H1250.31ZM1257.59 110.625C1258.81 110.625 1259.73 110.177 1260.36 109.281C1260.98 108.385 1261.3 107.094 1261.3 105.406C1261.3 103.667 1261.01 102.354 1260.42 101.469C1259.84 100.583 1259.01 100.141 1257.92 100.141C1256.89 100.141 1256.02 100.422 1255.3 100.984C1254.59 101.536 1254.06 102.167 1253.7 102.875V108.078C1254.07 108.797 1254.58 109.401 1255.23 109.891C1255.89 110.38 1256.68 110.625 1257.59 110.625ZM1273.75 113C1272.35 113 1271.28 112.812 1270.52 112.437C1269.77 112.052 1269.24 111.484 1268.95 110.734C1268.67 109.974 1268.53 109.026 1268.53 107.891V91.9687H1271.91V107.687C1271.91 108.562 1272.02 109.224 1272.25 109.672C1272.48 110.109 1273.03 110.328 1273.89 110.328H1274.72V113H1273.75ZM1276.94 118.594V115.828H1278.28C1278.89 115.828 1279.39 115.693 1279.8 115.422C1280.2 115.161 1280.53 114.724 1280.78 114.109L1281.23 113L1275.23 97.7656H1278.77L1283.05 109.625L1286.94 97.7656H1290.36L1284.77 113L1284.12 114.672C1283.75 115.672 1283.33 116.453 1282.88 117.016C1282.42 117.589 1281.85 117.995 1281.17 118.234C1280.51 118.474 1279.67 118.594 1278.66 118.594H1276.94ZM1308.62 113.281C1306.47 113.281 1304.64 112.833 1303.12 111.937C1301.61 111.031 1300.46 109.771 1299.67 108.156C1298.88 106.542 1298.48 104.656 1298.48 102.5C1298.48 100.344 1298.88 98.4583 1299.67 96.8437C1300.46 95.2187 1301.61 93.9531 1303.12 93.0469C1304.64 92.1406 1306.47 91.6875 1308.62 91.6875C1310.16 91.6875 1311.59 91.9531 1312.92 92.4844C1314.26 93.0156 1315.35 93.8177 1316.2 94.8906C1317.06 95.9531 1317.54 97.2865 1317.66 98.8906H1314C1313.89 97.9323 1313.57 97.1458 1313.06 96.5312C1312.55 95.9062 1311.91 95.4427 1311.14 95.1406C1310.37 94.8281 1309.53 94.6719 1308.62 94.6719C1307.09 94.6719 1305.85 95.0312 1304.91 95.75C1303.96 96.4583 1303.27 97.4062 1302.84 98.5937C1302.42 99.7708 1302.2 101.073 1302.2 102.5C1302.2 103.917 1302.42 105.219 1302.84 106.406C1303.27 107.583 1303.96 108.526 1304.91 109.234C1305.85 109.943 1307.09 110.297 1308.62 110.297C1310.2 110.297 1311.46 109.901 1312.41 109.109C1313.36 108.307 1313.91 107.146 1314.05 105.625H1317.72C1317.57 107.302 1317.1 108.714 1316.31 109.859C1315.52 110.995 1314.47 111.849 1313.16 112.422C1311.84 112.995 1310.33 113.281 1308.62 113.281ZM1321.59 113V91.9687H1324.92V100.078C1325.42 99.4427 1326.1 98.8646 1326.95 98.3437C1327.81 97.8125 1328.9 97.5469 1330.23 97.5469C1331.87 97.5469 1333.09 98.026 1333.89 98.9844C1334.69 99.9323 1335.09 101.312 1335.09 103.125V113H1331.7V103.578C1331.7 102.932 1331.62 102.365 1331.47 101.875C1331.32 101.375 1331.07 100.99 1330.7 100.719C1330.34 100.437 1329.83 100.297 1329.17 100.297C1328.19 100.297 1327.36 100.526 1326.67 100.984C1325.99 101.432 1325.43 101.943 1324.98 102.516V113H1321.59ZM1343.73 113.266C1342.86 113.266 1342.05 113.104 1341.31 112.781C1340.58 112.448 1339.99 111.953 1339.55 111.297C1339.1 110.63 1338.88 109.802 1338.88 108.812C1338.88 107.427 1339.3 106.38 1340.14 105.672C1340.99 104.964 1342.19 104.479 1343.72 104.219C1345.26 103.958 1347.06 103.812 1349.12 103.781V102.844C1349.12 101.708 1348.84 100.927 1348.28 100.5C1347.72 100.073 1347.01 99.8594 1346.14 99.8594C1345.2 99.8594 1344.42 100.089 1343.8 100.547C1343.17 101.005 1342.86 101.74 1342.86 102.75H1339.66C1339.66 101.479 1339.93 100.464 1340.47 99.7031C1341.02 98.9323 1341.78 98.375 1342.75 98.0312C1343.73 97.6875 1344.86 97.5156 1346.14 97.5156C1347.01 97.5156 1347.82 97.5937 1348.58 97.75C1349.34 97.9062 1350.01 98.1823 1350.58 98.5781C1351.16 98.9635 1351.61 99.5 1351.94 100.187C1352.27 100.865 1352.44 101.734 1352.44 102.797V113H1349.28L1349.16 110.859C1348.49 111.609 1347.71 112.198 1346.81 112.625C1345.93 113.052 1344.9 113.266 1343.73 113.266ZM1344.75 110.859C1345.67 110.859 1346.5 110.635 1347.25 110.187C1348 109.74 1348.61 109.193 1349.09 108.547V105.781C1346.61 105.792 1344.85 106.021 1343.81 106.469C1342.77 106.917 1342.25 107.641 1342.25 108.641C1342.25 109.349 1342.47 109.896 1342.91 110.281C1343.35 110.667 1343.97 110.859 1344.75 110.859ZM1357.03 113V97.7656H1360.42V113H1357.03ZM1358.73 95.3281C1358.1 95.3281 1357.61 95.1615 1357.27 94.8281C1356.92 94.4948 1356.75 94.0781 1356.75 93.5781C1356.75 93.0573 1356.92 92.6302 1357.27 92.2969C1357.61 91.9635 1358.1 91.7969 1358.73 91.7969C1359.36 91.7969 1359.84 91.9635 1360.19 92.2969C1360.54 92.6302 1360.72 93.0521 1360.72 93.5625C1360.72 94.0729 1360.54 94.4948 1360.19 94.8281C1359.84 95.1615 1359.36 95.3281 1358.73 95.3281ZM1365.16 113V97.7656H1368.41L1368.48 100.078C1368.98 99.4427 1369.66 98.8646 1370.52 98.3437C1371.37 97.8125 1372.47 97.5469 1373.81 97.5469C1375.43 97.5469 1376.64 98.0312 1377.44 99C1378.25 99.9583 1378.66 101.333 1378.66 103.125V113H1375.28V103.578C1375.28 102.932 1375.2 102.365 1375.05 101.875C1374.89 101.375 1374.62 100.99 1374.25 100.719C1373.89 100.437 1373.38 100.297 1372.73 100.297C1371.76 100.297 1370.92 100.526 1370.23 100.984C1369.56 101.432 1368.99 101.943 1368.55 102.516V113H1365.16ZM1159.17 149V127.969H1162.77V149H1159.17ZM1167.77 149V133.766H1171.02L1171.09 136.078C1171.59 135.443 1172.27 134.865 1173.12 134.344C1173.98 133.812 1175.08 133.547 1176.42 133.547C1178.04 133.547 1179.24 134.031 1180.05 135C1180.86 135.958 1181.27 137.333 1181.27 139.125V149H1177.89V139.578C1177.89 138.932 1177.81 138.365 1177.66 137.875C1177.5 137.375 1177.23 136.99 1176.86 136.719C1176.49 136.438 1175.99 136.297 1175.34 136.297C1174.36 136.297 1173.53 136.526 1172.84 136.984C1172.17 137.432 1171.6 137.943 1171.16 138.516V149H1167.77ZM1191.66 149C1190.27 149 1189.2 148.812 1188.45 148.438C1187.7 148.052 1187.18 147.484 1186.89 146.734C1186.61 145.974 1186.47 145.026 1186.47 143.891V136.422H1183.92V133.766H1186.47V130.219H1189.83V133.766H1193.38V136.422H1189.83V143.688C1189.83 144.562 1189.94 145.224 1190.17 145.672C1190.41 146.12 1190.96 146.344 1191.83 146.344H1193.38V149H1191.66ZM1203.25 149.281C1201.58 149.281 1200.19 148.953 1199.08 148.297C1197.97 147.63 1197.15 146.703 1196.59 145.516C1196.04 144.318 1195.77 142.932 1195.77 141.359C1195.77 139.776 1196.03 138.401 1196.56 137.234C1197.1 136.057 1197.91 135.146 1198.97 134.5C1200.04 133.844 1201.38 133.516 1202.98 133.516C1205.15 133.516 1206.86 134.161 1208.11 135.453C1209.36 136.745 1209.98 138.589 1209.98 140.984C1209.98 141.13 1209.97 141.312 1209.95 141.531C1209.94 141.74 1209.93 141.891 1209.91 141.984H1199.14C1199.15 142.849 1199.29 143.646 1199.56 144.375C1199.84 145.094 1200.29 145.672 1200.89 146.109C1201.49 146.547 1202.28 146.766 1203.25 146.766C1204.29 146.766 1205.11 146.536 1205.7 146.078C1206.3 145.609 1206.61 144.922 1206.64 144.016H1209.97C1209.92 145.141 1209.61 146.099 1209.05 146.891C1208.49 147.672 1207.72 148.266 1206.73 148.672C1205.76 149.078 1204.59 149.281 1203.25 149.281ZM1199.17 139.719H1206.62C1206.59 138.49 1206.25 137.557 1205.59 136.922C1204.95 136.276 1204.08 135.953 1202.98 135.953C1201.86 135.953 1200.96 136.276 1200.3 136.922C1199.64 137.568 1199.27 138.5 1199.17 139.719ZM1219.48 154.891C1217.76 154.891 1216.38 154.703 1215.34 154.328C1214.31 153.953 1213.57 153.453 1213.11 152.828C1212.66 152.214 1212.44 151.552 1212.44 150.844C1212.44 149.969 1212.83 149.198 1213.62 148.531C1214.42 147.854 1215.65 147.38 1217.33 147.109L1217.91 145.938H1219.91C1222.43 145.938 1224.24 146.281 1225.36 146.969C1226.47 147.646 1227.03 148.693 1227.03 150.109C1227.03 151.526 1226.39 152.677 1225.11 153.562C1223.83 154.448 1221.95 154.891 1219.48 154.891ZM1219.42 152.641C1221.01 152.641 1222.12 152.427 1222.77 152C1223.42 151.573 1223.75 151.042 1223.75 150.406C1223.75 150.021 1223.64 149.688 1223.41 149.406C1223.19 149.135 1222.8 148.927 1222.23 148.781C1221.68 148.625 1220.91 148.547 1219.91 148.547H1217.38C1216.81 148.714 1216.37 148.974 1216.05 149.328C1215.73 149.693 1215.58 150.109 1215.58 150.578C1215.58 151.109 1215.88 151.583 1216.47 152C1217.07 152.427 1218.06 152.641 1219.42 152.641ZM1217.33 148.391C1216.29 148.276 1215.45 148.062 1214.83 147.75C1214.21 147.438 1213.77 147.083 1213.48 146.688C1213.21 146.281 1213.08 145.891 1213.08 145.516C1213.08 144.932 1213.3 144.422 1213.75 143.984C1214.2 143.536 1214.9 143.156 1215.86 142.844L1217.58 143.641C1217.03 143.776 1216.57 143.953 1216.22 144.172C1215.88 144.391 1215.7 144.646 1215.7 144.938C1215.7 145.146 1215.81 145.323 1216.02 145.469C1216.22 145.615 1216.58 145.729 1217.09 145.812C1217.6 145.896 1218.31 145.938 1219.22 145.938L1217.33 148.391ZM1219.25 144.109C1217.94 144.109 1216.82 143.87 1215.89 143.391C1214.97 142.901 1214.28 142.26 1213.8 141.469C1213.33 140.667 1213.09 139.802 1213.09 138.875C1213.09 137.906 1213.33 137.026 1213.81 136.234C1214.29 135.432 1214.99 134.797 1215.92 134.328C1216.86 133.849 1218 133.609 1219.34 133.609C1220.72 133.609 1221.86 133.849 1222.77 134.328C1223.67 134.797 1224.35 135.432 1224.8 136.234C1225.26 137.026 1225.48 137.906 1225.48 138.875C1225.48 139.823 1225.25 140.698 1224.78 141.5C1224.32 142.292 1223.64 142.927 1222.72 143.406C1221.8 143.875 1220.65 144.109 1219.25 144.109ZM1219.23 141.984C1220.13 141.984 1220.87 141.724 1221.45 141.203C1222.04 140.672 1222.33 139.896 1222.33 138.875C1222.33 137.812 1222.05 137.021 1221.5 136.5C1220.95 135.979 1220.23 135.719 1219.34 135.719C1218.46 135.719 1217.72 135.99 1217.14 136.531C1216.57 137.062 1216.28 137.844 1216.28 138.875C1216.28 139.906 1216.58 140.682 1217.17 141.203C1217.78 141.724 1218.46 141.984 1219.23 141.984ZM1223.41 135.609L1222.28 134.328C1222.7 133.297 1223.3 132.594 1224.09 132.219C1224.89 131.844 1225.86 131.651 1227.03 131.641V134.25C1226.26 134.25 1225.55 134.328 1224.91 134.484C1224.27 134.63 1223.77 135.005 1223.41 135.609ZM1229.77 149V133.766H1232.98L1233.06 136.375C1233.48 135.531 1234.07 134.854 1234.84 134.344C1235.62 133.823 1236.6 133.562 1237.78 133.562H1238.08V136.516H1237.72C1237.02 136.516 1236.39 136.594 1235.81 136.75C1235.25 136.896 1234.75 137.125 1234.31 137.437C1233.88 137.74 1233.49 138.12 1233.16 138.578V149H1229.77ZM1244.09 149.266C1243.22 149.266 1242.41 149.104 1241.67 148.781C1240.94 148.448 1240.35 147.953 1239.91 147.297C1239.46 146.63 1239.23 145.802 1239.23 144.812C1239.23 143.427 1239.66 142.38 1240.5 141.672C1241.35 140.964 1242.55 140.479 1244.08 140.219C1245.62 139.958 1247.42 139.812 1249.48 139.781V138.844C1249.48 137.708 1249.2 136.927 1248.64 136.5C1248.08 136.073 1247.36 135.859 1246.5 135.859C1245.56 135.859 1244.78 136.089 1244.16 136.547C1243.53 137.005 1243.22 137.74 1243.22 138.75H1240.02C1240.02 137.479 1240.29 136.464 1240.83 135.703C1241.38 134.932 1242.14 134.375 1243.11 134.031C1244.09 133.687 1245.22 133.516 1246.5 133.516C1247.36 133.516 1248.18 133.594 1248.94 133.75C1249.7 133.906 1250.36 134.182 1250.94 134.578C1251.52 134.964 1251.97 135.5 1252.3 136.187C1252.63 136.865 1252.8 137.734 1252.8 138.797V149H1249.64L1249.52 146.859C1248.85 147.609 1248.07 148.198 1247.17 148.625C1246.29 149.052 1245.26 149.266 1244.09 149.266ZM1245.11 146.859C1246.03 146.859 1246.86 146.635 1247.61 146.187C1248.36 145.74 1248.97 145.193 1249.45 144.547V141.781C1246.97 141.792 1245.21 142.021 1244.17 142.469C1243.13 142.917 1242.61 143.641 1242.61 144.641C1242.61 145.349 1242.83 145.896 1243.27 146.281C1243.71 146.667 1244.33 146.859 1245.11 146.859ZM1262.94 149C1261.55 149 1260.48 148.812 1259.73 148.438C1258.98 148.052 1258.46 147.484 1258.17 146.734C1257.89 145.974 1257.75 145.026 1257.75 143.891V136.422H1255.2V133.766H1257.75V130.219H1261.11V133.766H1264.66V136.422H1261.11V143.687C1261.11 144.562 1261.22 145.224 1261.45 145.672C1261.69 146.12 1262.24 146.344 1263.11 146.344H1264.66V149H1262.94ZM1268.02 149V133.766H1271.41V149H1268.02ZM1269.72 131.328C1269.08 131.328 1268.59 131.161 1268.25 130.828C1267.91 130.495 1267.73 130.078 1267.73 129.578C1267.73 129.057 1267.91 128.63 1268.25 128.297C1268.59 127.964 1269.08 127.797 1269.72 127.797C1270.34 127.797 1270.83 127.964 1271.17 128.297C1271.53 128.63 1271.7 129.052 1271.7 129.562C1271.7 130.073 1271.53 130.495 1271.17 130.828C1270.83 131.161 1270.34 131.328 1269.72 131.328ZM1282.72 149.25C1281.21 149.25 1279.9 148.943 1278.78 148.328C1277.68 147.703 1276.82 146.807 1276.22 145.641C1275.62 144.464 1275.33 143.057 1275.33 141.422C1275.33 139.755 1275.62 138.328 1276.22 137.141C1276.82 135.953 1277.68 135.047 1278.78 134.422C1279.9 133.797 1281.21 133.484 1282.72 133.484C1284.27 133.484 1285.6 133.797 1286.72 134.422C1287.84 135.047 1288.71 135.953 1289.31 137.141C1289.93 138.328 1290.23 139.755 1290.23 141.422C1290.23 143.057 1289.93 144.464 1289.31 145.641C1288.71 146.807 1287.84 147.703 1286.72 148.328C1285.6 148.943 1284.27 149.25 1282.72 149.25ZM1282.72 146.625C1283.74 146.625 1284.55 146.396 1285.14 145.937C1285.73 145.479 1286.16 144.859 1286.41 144.078C1286.66 143.286 1286.78 142.401 1286.78 141.422C1286.78 140.422 1286.66 139.521 1286.41 138.719C1286.16 137.917 1285.73 137.286 1285.14 136.828C1284.55 136.359 1283.74 136.125 1282.72 136.125C1281.74 136.125 1280.96 136.359 1280.39 136.828C1279.82 137.286 1279.41 137.917 1279.16 138.719C1278.91 139.521 1278.78 140.422 1278.78 141.422C1278.78 142.401 1278.91 143.286 1279.16 144.078C1279.41 144.859 1279.82 145.479 1280.39 145.937C1280.96 146.396 1281.74 146.625 1282.72 146.625ZM1294.14 149V133.766H1297.39L1297.47 136.078C1297.97 135.443 1298.65 134.865 1299.5 134.344C1300.35 133.812 1301.45 133.547 1302.8 133.547C1304.41 133.547 1305.62 134.031 1306.42 135C1307.23 135.958 1307.64 137.333 1307.64 139.125V149H1304.27V139.578C1304.27 138.932 1304.19 138.365 1304.03 137.875C1303.88 137.375 1303.61 136.99 1303.23 136.719C1302.87 136.437 1302.36 136.297 1301.72 136.297C1300.74 136.297 1299.91 136.526 1299.22 136.984C1298.54 137.432 1297.98 137.943 1297.53 138.516V149H1294.14ZM1325.31 149.25C1323.8 149.25 1322.49 148.943 1321.38 148.328C1320.27 147.703 1319.42 146.807 1318.81 145.641C1318.22 144.464 1317.92 143.057 1317.92 141.422C1317.92 139.755 1318.22 138.328 1318.81 137.141C1319.42 135.953 1320.27 135.047 1321.38 134.422C1322.49 133.797 1323.8 133.484 1325.31 133.484C1326.86 133.484 1328.2 133.797 1329.31 134.422C1330.44 135.047 1331.3 135.953 1331.91 137.141C1332.52 138.328 1332.83 139.755 1332.83 141.422C1332.83 143.057 1332.52 144.464 1331.91 145.641C1331.3 146.807 1330.44 147.703 1329.31 148.328C1328.2 148.943 1326.86 149.25 1325.31 149.25ZM1325.31 146.625C1326.33 146.625 1327.14 146.396 1327.73 145.937C1328.33 145.479 1328.75 144.859 1329 144.078C1329.25 143.286 1329.38 142.401 1329.38 141.422C1329.38 140.422 1329.25 139.521 1329 138.719C1328.75 137.917 1328.33 137.286 1327.73 136.828C1327.14 136.359 1326.33 136.125 1325.31 136.125C1324.33 136.125 1323.56 136.359 1322.98 136.828C1322.41 137.286 1322 137.917 1321.75 138.719C1321.5 139.521 1321.38 140.422 1321.38 141.422C1321.38 142.401 1321.5 143.286 1321.75 144.078C1322 144.859 1322.41 145.479 1322.98 145.937C1323.56 146.396 1324.33 146.625 1325.31 146.625ZM1337.34 149V136.422H1334.8V133.766H1337.34V133.094C1337.34 132.24 1337.42 131.495 1337.56 130.859C1337.72 130.214 1337.98 129.677 1338.36 129.25C1338.74 128.823 1339.27 128.505 1339.94 128.297C1340.61 128.078 1341.48 127.969 1342.53 127.969H1344.09V130.5H1342.7C1341.84 130.5 1341.29 130.719 1341.05 131.156C1340.82 131.583 1340.7 132.234 1340.7 133.109V133.766H1344.11V136.422H1340.7V149H1337.34ZM1353.7 149V127.969H1367.12V130.969H1357.3V136.781H1366.14V139.672H1357.3V149H1353.7ZM1370.05 149V133.766H1373.44V149H1370.05ZM1371.75 131.328C1371.11 131.328 1370.62 131.161 1370.28 130.828C1369.94 130.495 1369.77 130.078 1369.77 129.578C1369.77 129.057 1369.94 128.63 1370.28 128.297C1370.62 127.964 1371.11 127.797 1371.75 127.797C1372.38 127.797 1372.86 127.964 1373.2 128.297C1373.56 128.63 1373.73 129.052 1373.73 129.562C1373.73 130.073 1373.56 130.495 1373.2 130.828C1372.86 131.161 1372.38 131.328 1371.75 131.328ZM1375.91 149L1381.66 140.469L1383.06 139.531L1386.62 133.766H1390.23L1384.89 141.703L1383.59 142.625L1379.48 149H1375.91ZM1387.12 149L1383 142.625L1381.75 141.734L1376.41 133.766H1380.02L1383.59 139.516L1384.91 140.406L1390.72 149L1387.12 149ZM1399.28 149.281C1397.61 149.281 1396.22 148.953 1395.11 148.297C1394.01 147.63 1393.18 146.703 1392.62 145.516C1392.07 144.318 1391.8 142.932 1391.8 141.359C1391.8 139.776 1392.06 138.401 1392.59 137.234C1393.14 136.057 1393.94 135.146 1395 134.5C1396.07 133.844 1397.41 133.516 1399.02 133.516C1401.18 133.516 1402.89 134.161 1404.14 135.453C1405.39 136.745 1406.02 138.589 1406.02 140.984C1406.02 141.13 1406.01 141.312 1405.98 141.531C1405.97 141.74 1405.96 141.891 1405.94 141.984H1395.17C1395.18 142.849 1395.32 143.646 1395.59 144.375C1395.88 145.094 1396.32 145.672 1396.92 146.109C1397.53 146.547 1398.31 146.766 1399.28 146.766C1400.32 146.766 1401.14 146.536 1401.73 146.078C1402.33 145.609 1402.64 144.922 1402.67 144.016H1406C1405.95 145.141 1405.64 146.099 1405.08 146.891C1404.53 147.672 1403.76 148.266 1402.77 148.672C1401.79 149.078 1400.62 149.281 1399.28 149.281ZM1395.2 139.719H1402.66C1402.62 138.49 1402.28 137.557 1401.62 136.922C1400.98 136.276 1400.11 135.953 1399.02 135.953C1397.89 135.953 1396.99 136.276 1396.33 136.922C1395.67 137.568 1395.3 138.5 1395.2 139.719ZM1415.56 149.281C1414.71 149.281 1413.89 149.193 1413.09 149.016C1412.31 148.849 1411.61 148.568 1410.98 148.172C1410.37 147.776 1409.88 147.25 1409.52 146.594C1409.16 145.937 1408.98 145.13 1408.98 144.172H1412.17C1412.17 145.193 1412.51 145.906 1413.17 146.312C1413.84 146.719 1414.65 146.922 1415.59 146.922C1416.49 146.922 1417.21 146.766 1417.75 146.453C1418.29 146.13 1418.56 145.599 1418.56 144.859C1418.56 144.203 1418.29 143.714 1417.73 143.391C1417.18 143.068 1416.22 142.75 1414.84 142.437C1413.71 142.156 1412.72 141.833 1411.89 141.469C1411.07 141.104 1410.43 140.625 1409.98 140.031C1409.55 139.427 1409.33 138.656 1409.33 137.719C1409.33 136.99 1409.49 136.359 1409.81 135.828C1410.15 135.297 1410.59 134.859 1411.16 134.516C1411.72 134.172 1412.36 133.917 1413.09 133.75C1413.82 133.583 1414.59 133.5 1415.41 133.5C1416.19 133.5 1416.94 133.589 1417.67 133.766C1418.4 133.932 1419.05 134.208 1419.62 134.594C1420.2 134.979 1420.65 135.484 1420.98 136.109C1421.32 136.734 1421.48 137.5 1421.48 138.406L1418.31 138.406C1418.31 137.479 1418.03 136.828 1417.45 136.453C1416.88 136.068 1416.2 135.875 1415.41 135.875C1414.57 135.875 1413.91 136.01 1413.41 136.281C1412.92 136.552 1412.67 136.99 1412.67 137.594C1412.67 137.937 1412.8 138.234 1413.06 138.484C1413.32 138.724 1413.74 138.948 1414.33 139.156C1414.92 139.354 1415.71 139.568 1416.7 139.797C1417.77 140.047 1418.69 140.359 1419.47 140.734C1420.25 141.099 1420.85 141.583 1421.27 142.187C1421.69 142.781 1421.91 143.557 1421.91 144.516C1421.91 145.37 1421.73 146.099 1421.39 146.703C1421.06 147.307 1420.6 147.802 1420.02 148.187C1419.43 148.562 1418.76 148.839 1417.98 149.016C1417.22 149.193 1416.42 149.281 1415.56 149.281Z" fill="black"/>
<rect x="1608.5" y="0.5" width="435" height="229" rx="14.5" fill="url(#paint3_linear_3421_4202)" stroke="#B3B3B3"/>
<path d="M1704.94 122V100.969H1712.86C1714.2 100.969 1715.42 101.219 1716.5 101.719C1717.59 102.208 1718.46 102.943 1719.09 103.922C1719.74 104.901 1720.06 106.13 1720.06 107.609C1720.06 109.047 1719.74 110.25 1719.09 111.219C1718.46 112.177 1717.59 112.901 1716.5 113.391C1715.42 113.87 1714.2 114.109 1712.86 114.109H1708.53V122H1704.94ZM1708.53 111.187H1712.55C1713.68 111.187 1714.6 110.891 1715.31 110.297C1716.03 109.693 1716.39 108.797 1716.39 107.609C1716.39 106.349 1716.03 105.417 1715.31 104.812C1714.59 104.208 1713.67 103.906 1712.55 103.906H1708.53V111.187ZM1727.56 122.219C1725.91 122.219 1724.67 121.734 1723.86 120.766C1723.05 119.797 1722.64 118.443 1722.64 116.703V106.766H1726.02V116.281C1726.02 116.885 1726.09 117.422 1726.25 117.891C1726.41 118.359 1726.68 118.729 1727.08 119C1727.47 119.26 1728.02 119.391 1728.72 119.391C1729.7 119.391 1730.53 119.182 1731.2 118.766C1731.89 118.339 1732.46 117.833 1732.92 117.25V106.766H1736.3V122H1733.03L1732.97 119.672C1732.47 120.307 1731.78 120.891 1730.89 121.422C1730.01 121.953 1728.9 122.219 1727.56 122.219ZM1749.08 122.281C1747.95 122.281 1747.01 122.068 1746.25 121.641C1745.5 121.203 1744.88 120.609 1744.38 119.859L1744.22 122H1741.03V100.969H1744.42V109.078C1744.95 108.307 1745.62 107.687 1746.44 107.219C1747.26 106.74 1748.25 106.5 1749.41 106.5C1750.61 106.5 1751.67 106.792 1752.58 107.375C1753.49 107.958 1754.21 108.833 1754.72 110C1755.23 111.156 1755.48 112.62 1755.48 114.391C1755.48 116.151 1755.21 117.62 1754.66 118.797C1754.11 119.964 1753.36 120.839 1752.39 121.422C1751.43 121.995 1750.33 122.281 1749.08 122.281ZM1748.31 119.625C1749.51 119.625 1750.43 119.177 1751.06 118.281C1751.7 117.385 1752.02 116.104 1752.02 114.437C1752.02 112.687 1751.71 111.365 1751.11 110.469C1750.52 109.573 1749.66 109.125 1748.55 109.125C1747.57 109.125 1746.73 109.396 1746.03 109.937C1745.33 110.479 1744.8 111.13 1744.42 111.891V117.062C1744.78 117.771 1745.28 118.375 1745.92 118.875C1746.58 119.375 1747.38 119.625 1748.31 119.625ZM1764.47 122C1763.07 122 1761.99 121.812 1761.23 121.437C1760.48 121.052 1759.96 120.484 1759.67 119.734C1759.39 118.974 1759.25 118.026 1759.25 116.891V100.969H1762.62V116.687C1762.62 117.562 1762.74 118.224 1762.97 118.672C1763.2 119.109 1763.74 119.328 1764.61 119.328H1765.44V122H1764.47ZM1768.31 122V106.766H1771.7V122H1768.31ZM1770.02 104.328C1769.38 104.328 1768.89 104.161 1768.55 103.828C1768.2 103.495 1768.03 103.078 1768.03 102.578C1768.03 102.057 1768.2 101.63 1768.55 101.297C1768.89 100.964 1769.38 100.797 1770.02 100.797C1770.64 100.797 1771.12 100.964 1771.47 101.297C1771.82 101.63 1772 102.052 1772 102.562C1772 103.073 1771.82 103.495 1771.47 103.828C1771.12 104.161 1770.64 104.328 1770.02 104.328ZM1782.97 122.234C1781.56 122.234 1780.31 121.958 1779.2 121.406C1778.1 120.844 1777.22 119.984 1776.58 118.828C1775.94 117.672 1775.62 116.208 1775.62 114.437C1775.62 112.656 1775.93 111.182 1776.55 110.016C1777.17 108.839 1778.03 107.964 1779.12 107.391C1780.23 106.807 1781.51 106.516 1782.97 106.516C1784.2 106.516 1785.31 106.719 1786.3 107.125C1787.29 107.531 1788.07 108.141 1788.66 108.953C1789.25 109.766 1789.56 110.792 1789.59 112.031H1786.3C1786.24 111.146 1785.93 110.448 1785.36 109.937C1784.79 109.427 1784 109.172 1783 109.172C1781.66 109.172 1780.67 109.635 1780.03 110.562C1779.4 111.479 1779.08 112.771 1779.08 114.437C1779.08 115.521 1779.22 116.448 1779.5 117.219C1779.78 117.99 1780.21 118.578 1780.78 118.984C1781.36 119.391 1782.1 119.594 1783 119.594C1784.02 119.594 1784.84 119.323 1785.45 118.781C1786.07 118.24 1786.39 117.458 1786.42 116.437H1789.72C1789.69 117.708 1789.38 118.776 1788.78 119.641C1788.19 120.505 1787.39 121.156 1786.38 121.594C1785.38 122.021 1784.24 122.234 1782.97 122.234ZM1800.41 122V100.969H1807.86C1810.08 100.969 1811.97 101.385 1813.55 102.219C1815.12 103.042 1816.32 104.24 1817.16 105.812C1817.99 107.375 1818.41 109.255 1818.41 111.453C1818.41 113.703 1817.98 115.615 1817.14 117.187C1816.31 118.75 1815.1 119.943 1813.53 120.766C1811.96 121.589 1810.07 122 1807.86 122H1800.41ZM1804 118.984H1807.3C1808.97 118.984 1810.35 118.714 1811.44 118.172C1812.53 117.62 1813.35 116.786 1813.89 115.672C1814.43 114.557 1814.7 113.146 1814.7 111.437C1814.7 109.771 1814.42 108.385 1813.86 107.281C1813.3 106.177 1812.46 105.354 1811.36 104.812C1810.27 104.26 1808.91 103.984 1807.3 103.984H1804V118.984ZM1822.41 122V106.766H1825.8V122H1822.41ZM1824.11 104.328C1823.47 104.328 1822.98 104.161 1822.64 103.828C1822.3 103.495 1822.12 103.078 1822.12 102.578C1822.12 102.057 1822.3 101.63 1822.64 101.297C1822.98 100.964 1823.47 100.797 1824.11 100.797C1824.73 100.797 1825.22 100.964 1825.56 101.297C1825.92 101.63 1826.09 102.052 1826.09 102.562C1826.09 103.073 1825.92 103.495 1825.56 103.828C1825.22 104.161 1824.73 104.328 1824.11 104.328ZM1836.3 122.281C1835.44 122.281 1834.62 122.193 1833.83 122.016C1833.05 121.849 1832.34 121.568 1831.72 121.172C1831.1 120.776 1830.61 120.25 1830.25 119.594C1829.9 118.937 1829.72 118.13 1829.72 117.172H1832.91C1832.91 118.193 1833.24 118.906 1833.91 119.312C1834.57 119.719 1835.38 119.922 1836.33 119.922C1837.22 119.922 1837.94 119.766 1838.48 119.453C1839.03 119.13 1839.3 118.599 1839.3 117.859C1839.3 117.203 1839.02 116.714 1838.47 116.391C1837.92 116.068 1836.95 115.75 1835.58 115.437C1834.44 115.156 1833.46 114.833 1832.62 114.469C1831.8 114.104 1831.17 113.625 1830.72 113.031C1830.28 112.427 1830.06 111.656 1830.06 110.719C1830.06 109.99 1830.22 109.359 1830.55 108.828C1830.88 108.297 1831.33 107.859 1831.89 107.516C1832.45 107.172 1833.1 106.917 1833.83 106.75C1834.56 106.583 1835.33 106.5 1836.14 106.5C1836.92 106.5 1837.68 106.589 1838.41 106.766C1839.14 106.932 1839.79 107.208 1840.36 107.594C1840.93 107.979 1841.39 108.484 1841.72 109.109C1842.05 109.734 1842.22 110.5 1842.22 111.406H1839.05C1839.05 110.479 1838.76 109.828 1838.19 109.453C1837.61 109.068 1836.93 108.875 1836.14 108.875C1835.31 108.875 1834.64 109.01 1834.14 109.281C1833.65 109.552 1833.41 109.99 1833.41 110.594C1833.41 110.937 1833.54 111.234 1833.8 111.484C1834.06 111.724 1834.48 111.948 1835.06 112.156C1835.66 112.354 1836.45 112.568 1837.44 112.797C1838.5 113.047 1839.42 113.359 1840.2 113.734C1840.98 114.099 1841.58 114.583 1842 115.187C1842.43 115.781 1842.64 116.557 1842.64 117.516C1842.64 118.37 1842.47 119.099 1842.12 119.703C1841.79 120.307 1841.33 120.802 1840.75 121.187C1840.17 121.562 1839.49 121.839 1838.72 122.016C1837.96 122.193 1837.15 122.281 1836.3 122.281ZM1852.84 122.234C1851.44 122.234 1850.18 121.958 1849.08 121.406C1847.97 120.844 1847.1 119.984 1846.45 118.828C1845.82 117.672 1845.5 116.208 1845.5 114.437C1845.5 112.656 1845.81 111.182 1846.42 110.016C1847.05 108.839 1847.91 107.964 1849 107.391C1850.1 106.807 1851.39 106.516 1852.84 106.516C1854.07 106.516 1855.18 106.719 1856.17 107.125C1857.16 107.531 1857.95 108.141 1858.53 108.953C1859.12 109.766 1859.44 110.792 1859.47 112.031H1856.17C1856.12 111.146 1855.81 110.448 1855.23 109.937C1854.66 109.427 1853.88 109.172 1852.88 109.172C1851.53 109.172 1850.54 109.635 1849.91 110.562C1849.27 111.479 1848.95 112.771 1848.95 114.437C1848.95 115.521 1849.09 116.448 1849.38 117.219C1849.66 117.99 1850.08 118.578 1850.66 118.984C1851.24 119.391 1851.98 119.594 1852.88 119.594C1853.9 119.594 1854.71 119.323 1855.33 118.781C1855.94 118.24 1856.27 117.458 1856.3 116.437H1859.59C1859.56 117.708 1859.25 118.776 1858.66 119.641C1858.06 120.505 1857.26 121.156 1856.25 121.594C1855.25 122.021 1854.11 122.234 1852.84 122.234ZM1868.25 122C1866.85 122 1865.78 121.812 1865.02 121.437C1864.27 121.052 1863.74 120.484 1863.45 119.734C1863.17 118.974 1863.03 118.026 1863.03 116.891V100.969H1866.41V116.687C1866.41 117.562 1866.52 118.224 1866.75 118.672C1866.98 119.109 1867.53 119.328 1868.39 119.328H1869.22V122H1868.25ZM1878.67 122.25C1877.16 122.25 1875.85 121.943 1874.73 121.328C1873.63 120.703 1872.78 119.807 1872.17 118.641C1871.58 117.464 1871.28 116.057 1871.28 114.422C1871.28 112.755 1871.58 111.328 1872.17 110.141C1872.78 108.953 1873.63 108.047 1874.73 107.422C1875.85 106.797 1877.16 106.484 1878.67 106.484C1880.22 106.484 1881.56 106.797 1882.67 107.422C1883.8 108.047 1884.66 108.953 1885.27 110.141C1885.88 111.328 1886.19 112.755 1886.19 114.422C1886.19 116.057 1885.88 117.464 1885.27 118.641C1884.66 119.807 1883.8 120.703 1882.67 121.328C1881.56 121.943 1880.22 122.25 1878.67 122.25ZM1878.67 119.625C1879.69 119.625 1880.5 119.396 1881.09 118.937C1881.69 118.479 1882.11 117.859 1882.36 117.078C1882.61 116.286 1882.73 115.401 1882.73 114.422C1882.73 113.422 1882.61 112.521 1882.36 111.719C1882.11 110.917 1881.69 110.286 1881.09 109.828C1880.5 109.359 1879.69 109.125 1878.67 109.125C1877.69 109.125 1876.92 109.359 1876.34 109.828C1875.77 110.286 1875.36 110.917 1875.11 111.719C1874.86 112.521 1874.73 113.422 1874.73 114.422C1874.73 115.401 1874.86 116.286 1875.11 117.078C1875.36 117.859 1875.77 118.479 1876.34 118.937C1876.92 119.396 1877.69 119.625 1878.67 119.625ZM1895.61 122.281C1894.76 122.281 1893.93 122.193 1893.14 122.016C1892.36 121.849 1891.66 121.568 1891.03 121.172C1890.42 120.776 1889.93 120.25 1889.56 119.594C1889.21 118.937 1889.03 118.13 1889.03 117.172H1892.22C1892.22 118.193 1892.55 118.906 1893.22 119.312C1893.89 119.719 1894.69 119.922 1895.64 119.922C1896.54 119.922 1897.26 119.766 1897.8 119.453C1898.34 119.13 1898.61 118.599 1898.61 117.859C1898.61 117.203 1898.33 116.714 1897.78 116.391C1897.23 116.068 1896.27 115.75 1894.89 115.437C1893.76 115.156 1892.77 114.833 1891.94 114.469C1891.11 114.104 1890.48 113.625 1890.03 113.031C1889.59 112.427 1889.38 111.656 1889.38 110.719C1889.38 109.99 1889.54 109.359 1889.86 108.828C1890.19 108.297 1890.64 107.859 1891.2 107.516C1891.77 107.172 1892.41 106.917 1893.14 106.75C1893.87 106.583 1894.64 106.5 1895.45 106.5C1896.23 106.5 1896.99 106.589 1897.72 106.766C1898.45 106.932 1899.1 107.208 1899.67 107.594C1900.24 107.979 1900.7 108.484 1901.03 109.109C1901.36 109.734 1901.53 110.5 1901.53 111.406H1898.36C1898.36 110.479 1898.07 109.828 1897.5 109.453C1896.93 109.068 1896.24 108.875 1895.45 108.875C1894.62 108.875 1893.95 109.01 1893.45 109.281C1892.96 109.552 1892.72 109.99 1892.72 110.594C1892.72 110.937 1892.85 111.234 1893.11 111.484C1893.37 111.724 1893.79 111.948 1894.38 112.156C1894.97 112.354 1895.76 112.568 1896.75 112.797C1897.81 113.047 1898.73 113.359 1899.52 113.734C1900.3 114.099 1900.9 114.583 1901.31 115.187C1901.74 115.781 1901.95 116.557 1901.95 117.516C1901.95 118.37 1901.78 119.099 1901.44 119.703C1901.1 120.307 1900.65 120.802 1900.06 121.187C1899.48 121.562 1898.8 121.839 1898.03 122.016C1897.27 122.193 1896.46 122.281 1895.61 122.281ZM1910.41 122.219C1908.75 122.219 1907.52 121.734 1906.7 120.766C1905.89 119.797 1905.48 118.443 1905.48 116.703V106.766H1908.86V116.281C1908.86 116.885 1908.94 117.422 1909.09 117.891C1909.25 118.359 1909.53 118.729 1909.92 119C1910.32 119.26 1910.86 119.391 1911.56 119.391C1912.54 119.391 1913.37 119.182 1914.05 118.766C1914.73 118.339 1915.31 117.833 1915.77 117.25V106.766H1919.14V122H1915.88L1915.81 119.672C1915.31 120.307 1914.62 120.891 1913.73 121.422C1912.85 121.953 1911.74 122.219 1910.41 122.219ZM1923.88 122V106.766H1927.09L1927.17 109.375C1927.59 108.531 1928.18 107.854 1928.95 107.344C1929.73 106.823 1930.71 106.562 1931.89 106.562H1932.19V109.516H1931.83C1931.13 109.516 1930.49 109.594 1929.92 109.75C1929.36 109.896 1928.86 110.125 1928.42 110.437C1927.98 110.74 1927.6 111.12 1927.27 111.578V122H1923.88ZM1941.39 122.281C1939.72 122.281 1938.33 121.953 1937.22 121.297C1936.11 120.63 1935.29 119.703 1934.73 118.516C1934.18 117.318 1933.91 115.932 1933.91 114.359C1933.91 112.776 1934.17 111.401 1934.7 110.234C1935.24 109.057 1936.05 108.146 1937.11 107.5C1938.18 106.844 1939.52 106.516 1941.12 106.516C1943.29 106.516 1945 107.161 1946.25 108.453C1947.5 109.745 1948.12 111.589 1948.12 113.984C1948.12 114.13 1948.11 114.312 1948.09 114.531C1948.08 114.74 1948.07 114.891 1948.05 114.984L1937.28 114.984C1937.29 115.849 1937.43 116.646 1937.7 117.375C1937.98 118.094 1938.43 118.672 1939.03 119.109C1939.64 119.547 1940.42 119.766 1941.39 119.766C1942.43 119.766 1943.25 119.536 1943.84 119.078C1944.44 118.609 1944.75 117.922 1944.78 117.016H1948.11C1948.06 118.141 1947.75 119.099 1947.19 119.891C1946.64 120.672 1945.86 121.266 1944.88 121.672C1943.9 122.078 1942.73 122.281 1941.39 122.281ZM1937.31 112.719L1944.77 112.719C1944.73 111.49 1944.39 110.557 1943.73 109.922C1943.09 109.276 1942.22 108.953 1941.12 108.953C1940 108.953 1939.1 109.276 1938.44 109.922C1937.78 110.568 1937.41 111.5 1937.31 112.719Z" fill="black"/>
<g clip-path="url(#clip1_3421_4202)">
<path fill-rule="evenodd" clip-rule="evenodd" d="M1052.76 120.241C1053.09 120.575 1053.28 121.028 1053.28 121.5C1053.28 121.972 1053.09 122.425 1052.76 122.759L1038.51 137.009C1038.35 137.184 1038.15 137.324 1037.93 137.421C1037.71 137.519 1037.48 137.571 1037.24 137.575C1037 137.58 1036.76 137.536 1036.54 137.446C1036.32 137.356 1036.11 137.223 1035.95 137.054C1035.78 136.885 1035.64 136.683 1035.55 136.462C1035.46 136.24 1035.42 136.002 1035.42 135.763C1035.43 135.524 1035.48 135.288 1035.58 135.069C1035.68 134.851 1035.82 134.654 1035.99 134.491L1047.2 123.281L1018.24 123.045L989.281 122.809C988.809 122.809 988.356 122.621 988.022 122.287C987.688 121.953 987.5 121.5 987.5 121.028C987.5 120.555 987.688 120.102 988.022 119.768C988.356 119.434 988.809 119.246 989.281 119.246L1047.2 119.719L1035.99 108.509C1035.82 108.346 1035.68 108.149 1035.58 107.931C1035.48 107.712 1035.43 107.476 1035.42 107.237C1035.42 106.998 1035.46 106.76 1035.55 106.538C1035.64 106.317 1035.78 106.115 1035.95 105.946C1036.11 105.777 1036.32 105.644 1036.54 105.554C1036.76 105.464 1037 105.42 1037.24 105.425C1037.48 105.429 1037.71 105.481 1037.93 105.579C1038.15 105.676 1038.35 105.816 1038.51 105.991L1052.76 120.241Z" fill="#008AD8"/>
</g>
<g clip-path="url(#clip2_3421_4202)">
<path fill-rule="evenodd" clip-rule="evenodd" d="M1588.76 120.241C1589.09 120.575 1589.28 121.028 1589.28 121.5C1589.28 121.972 1589.09 122.425 1588.76 122.759L1574.51 137.009C1574.35 137.184 1574.15 137.324 1573.93 137.421C1573.71 137.519 1573.48 137.571 1573.24 137.575C1573 137.58 1572.76 137.536 1572.54 137.446C1572.32 137.356 1572.11 137.223 1571.95 137.054C1571.78 136.885 1571.64 136.683 1571.55 136.462C1571.46 136.24 1571.42 136.002 1571.42 135.763C1571.43 135.524 1571.48 135.288 1571.58 135.069C1571.68 134.851 1571.82 134.654 1571.99 134.491L1583.2 123.281L1554.24 123.045L1525.28 122.809C1524.81 122.809 1524.36 122.621 1524.02 122.287C1523.69 121.953 1523.5 121.5 1523.5 121.028C1523.5 120.555 1523.69 120.102 1524.02 119.768C1524.36 119.434 1524.81 119.246 1525.28 119.246L1583.2 119.719L1571.99 108.509C1571.82 108.346 1571.68 108.149 1571.58 107.931C1571.48 107.712 1571.43 107.476 1571.42 107.237C1571.42 106.998 1571.46 106.76 1571.55 106.538C1571.64 106.317 1571.78 106.115 1571.95 105.946C1572.11 105.777 1572.32 105.644 1572.54 105.554C1572.76 105.464 1573 105.42 1573.24 105.425C1573.48 105.429 1573.71 105.481 1573.93 105.579C1574.15 105.676 1574.35 105.816 1574.51 105.991L1588.76 120.241Z" fill="#008AD8"/>
</g>
<g clip-path="url(#clip3_3421_4202)">
<path fill-rule="evenodd" clip-rule="evenodd" d="M516.758 120.241C517.092 120.575 517.279 121.028 517.279 121.5C517.279 121.972 517.092 122.425 516.758 122.759L502.508 137.009C502.345 137.184 502.149 137.324 501.93 137.421C501.712 137.519 501.476 137.571 501.237 137.575C500.997 137.58 500.76 137.536 500.538 137.446C500.316 137.356 500.115 137.223 499.946 137.054C499.777 136.885 499.643 136.683 499.554 136.462C499.464 136.24 499.42 136.002 499.424 135.763C499.428 135.524 499.481 135.288 499.578 135.069C499.675 134.851 499.816 134.654 499.991 134.491L511.201 123.281L482.241 123.045L453.281 122.809C452.809 122.809 452.356 122.621 452.022 122.287C451.688 121.953 451.5 121.5 451.5 121.028C451.5 120.555 451.688 120.102 452.022 119.768C452.356 119.434 452.809 119.246 453.281 119.246L511.201 119.719L499.991 108.509C499.816 108.346 499.675 108.149 499.578 107.931C499.481 107.712 499.428 107.476 499.424 107.237C499.42 106.998 499.464 106.76 499.554 106.538C499.643 106.317 499.777 106.115 499.946 105.946C500.115 105.777 500.316 105.644 500.538 105.554C500.76 105.464 500.997 105.42 501.237 105.425C501.476 105.429 501.712 105.481 501.93 105.579C502.149 105.676 502.345 105.816 502.508 105.991L516.758 120.241Z" fill="#008AD8"/>
</g>
</g>
<defs>
<linearGradient id="paint0_linear_3421_4202" x1="436" y1="-1.00853e-05" x2="163.514" y2="351.07" gradientUnits="userSpaceOnUse">
<stop stop-color="white" stop-opacity="0.2"/>
<stop offset="1" stop-color="white" stop-opacity="0.05"/>
</linearGradient>
<linearGradient id="paint1_linear_3421_4202" x1="972" y1="-1.00853e-05" x2="699.514" y2="351.07" gradientUnits="userSpaceOnUse">
<stop stop-color="white" stop-opacity="0.2"/>
<stop offset="1" stop-color="white" stop-opacity="0.05"/>
</linearGradient>
<linearGradient id="paint2_linear_3421_4202" x1="1508" y1="-1.00853e-05" x2="1235.51" y2="351.07" gradientUnits="userSpaceOnUse">
<stop stop-color="white" stop-opacity="0.2"/>
<stop offset="1" stop-color="white" stop-opacity="0.05"/>
</linearGradient>
<linearGradient id="paint3_linear_3421_4202" x1="2044" y1="-1.00853e-05" x2="1771.51" y2="351.07" gradientUnits="userSpaceOnUse">
<stop stop-color="white" stop-opacity="0.2"/>
<stop offset="1" stop-color="white" stop-opacity="0.05"/>
</linearGradient>
<clipPath id="clip0_3421_4202">
<rect width="2044" height="230" fill="white"/>
</clipPath>
<clipPath id="clip1_3421_4202">
<rect width="41" height="78" fill="white" transform="translate(1061 101) rotate(90)"/>
</clipPath>
<clipPath id="clip2_3421_4202">
<rect width="41" height="78" fill="white" transform="translate(1597 101) rotate(90)"/>
</clipPath>
<clipPath id="clip3_3421_4202">
<rect width="41" height="78" fill="white" transform="translate(525 101) rotate(90)"/>
</clipPath>
</defs>
</svg>
