<svg width="46" height="36" viewBox="0 0 46 36" fill="none" xmlns="http://www.w3.org/2000/svg">
<path d="M44.3139 2.8052L45.3209 2.06031L43.8534 0.00792416L42.8464 0.752807L36.6798 5.30134L33.6589 3.25688L33.3467 3.04292H11.217C11.2014 3.05877 10.4989 3.77196 9.10945 5.18248L3.10674 0.744882L2.09978 0L0.632276 2.05239L1.63923 2.79727L8.5084 7.86881L9.37485 8.50275L12.263 5.57077H19.9674L10.858 14.8184L9.9759 15.7138L11.8025 17.5681C15.2136 21.031 20.7558 21.031 24.167 17.5681L26.7273 14.969L37.4526 25.8569L33.2842 30.0885L29.4828 26.2294L27.7186 28.0203L31.5201 31.8794L29.9589 33.4642H25.3769L20.748 28.7651L18.9839 30.556L21.8486 33.4642H16.0176L2.64619 19.8899L1.76413 18.9945L0 20.7854L0.882063 21.6808L14.6204 35.6276L14.9873 36H31.0127L46 20.7854L44.2359 18.9945L39.2401 24.066L27.6328 12.2826L26.7507 11.3872C26.5868 11.5536 25.1427 13.0196 22.4263 15.7772C19.9908 18.2496 16.0333 18.2496 13.5978 15.7772L13.5354 15.7138L23.5269 5.57077H32.6207L36.0553 7.89258L36.7813 8.38389L37.4838 7.86089L44.353 2.78935L44.3139 2.8052Z" fill="black"/>
</svg>
