<?xml version="1.0" encoding="utf-8"?>
<!-- Generator: Adobe Illustrator 26.0.1, SVG Export Plug-In . SVG Version: 6.00 Build 0)  -->
<svg version="1.1" id="logo_1_" xmlns="http://www.w3.org/2000/svg" xmlns:xlink="http://www.w3.org/1999/xlink" x="0px" y="0px"
	 viewBox="0 0 123.3 31.9" style="enable-background:new 0 0 123.3 31.9;" xml:space="preserve">
<style type="text/css">
	.st0{fill:#003a70;}
</style>
<g id="_x32_">
	<g>
		<path class="st0" d="M5.5,19.4l-0.3,2.4V23c0,1.8,0.5,3.2,1.4,4.2c0.9,1,2.2,1.6,3.8,1.6c0.8,0,1.7-0.2,2.6-0.5
			c0.9-0.3,1.8-0.7,2.6-1.3l1.2-1.1l1.5-1.6l1.3,0.9l-2.2,2.5c-0.3,0.3-0.6,0.6-0.9,0.9c-0.4,0.3-0.7,0.6-1.1,0.8
			c-2.4,1.7-4.9,2.5-7.4,2.5s-4.5-0.8-5.9-2.5c-0.7-0.9-1.3-1.9-1.6-3C0.1,25.3,0,24,0,22.5c0-3,0.9-6.1,2.7-9.4
			c1.6-2.9,3.6-5.2,6.1-6.9s5-2.6,7.5-2.6c1.7,0,3.1,0.4,4.2,1.3s1.6,2.1,1.6,3.5c0,3-1.5,5.6-4.6,7.7C14.2,18.4,10.3,19.4,5.5,19.4
			z M15.2,5.3c-1.6,0-3.3,1.2-5,3.5S7,14.2,5.9,17.9c1.3,0,2.4-0.1,3.2-0.3c0.8-0.2,1.7-0.6,2.8-1.3c1.8-1,3.2-2.3,4.2-3.9
			s1.5-3.1,1.5-4.5c0-0.8-0.2-1.4-0.6-1.9C16.4,5.6,15.9,5.3,15.2,5.3z"/>
	</g>
	<g>
		<path class="st0" d="M26.5,24.7c1.8,1,4.4,1.9,7.2,1.9c3.5,0,5.4-1.7,5.4-4.1c0-2.3-1.5-3.6-5.3-5c-4.9-1.8-8.1-4.4-8.1-8.8
			c0-4.9,4.1-8.7,10.5-8.7c3.2,0,5.6,0.7,7.2,1.5l-1.3,4.4C41,5.3,39,4.5,36.2,4.5c-3.5,0-5,1.9-5,3.6c0,2.3,1.7,3.4,5.7,5
			c5.2,2,7.7,4.6,7.7,9c0,4.9-3.6,9.1-11.3,9.1c-3.1,0-6.4-0.9-8.1-1.9L26.5,24.7z"/>
		<path class="st0" d="M55.4,3.2v5.6h5.2v4.1h-5.2v9.7c0,2.7,0.7,4,2.8,4c1,0,1.5-0.1,2.1-0.3l0.1,4.2c-0.8,0.3-2.2,0.6-3.9,0.6
			c-2,0-3.7-0.7-4.7-1.8c-1.2-1.3-1.7-3.2-1.7-6.1V13H47V8.8h3.1v-4L55.4,3.2z"/>
		<path class="st0" d="M85,19.6c0,8-5.6,11.6-11.1,11.6c-6.1,0-10.8-4.3-10.8-11.3c0-7.2,4.7-11.6,11.2-11.6
			C80.7,8.4,85,12.9,85,19.6z M68.7,19.8c0,4.2,2,7.4,5.4,7.4c3.1,0,5.3-3.1,5.3-7.5c0-3.4-1.5-7.3-5.2-7.3
			C70.3,12.4,68.7,16.2,68.7,19.8z"/>
		<path class="st0" d="M89.5,15.9c0-3,0-5.1-0.2-7.1H94l0.2,4.2h0.2c1.1-3.1,3.6-4.7,5.9-4.7c0.5,0,0.8,0,1.3,0.1v5.2
			c-0.4-0.1-0.9-0.2-1.6-0.2c-2.6,0-4.4,1.7-4.9,4.2c-0.1,0.5-0.2,1.1-0.2,1.7v11.3h-5.4V15.9z"/>
		<path class="st0" d="M108.7,21.3c0.1,4,3.2,5.7,6.6,5.7c2.5,0,4.3-0.4,6-1l0.8,3.8c-1.9,0.8-4.4,1.4-7.5,1.4
			c-7,0-11.1-4.4-11.1-11.1c0-6.1,3.6-11.8,10.5-11.8c7,0,9.3,5.8,9.3,10.6c0,1-0.1,1.8-0.2,2.3h-14.4V21.3z M118.2,17.5
			c0-2-0.8-5.3-4.5-5.3c-3.4,0-4.8,3.1-5,5.3H118.2z"/>
	</g>
</g>
</svg>
