<svg width="95" height="94" viewBox="0 0 95 94" fill="none" xmlns="http://www.w3.org/2000/svg">
<path d="M35.625 9.40039V18.8004H45.125V9.40039H49.875V18.8004H59.375V9.40039H64.125V18.8004H76V30.5504H85.5V35.2504H76V44.6504H85.5V49.3504H76V58.7504H85.5V63.4504H76V75.2004H64.125V84.6004H59.375V75.2004H49.875V84.6004H45.125V75.2004H35.625V84.6004H30.875V75.2004H19V63.4504H9.5V58.7504H19V49.3504H9.5V44.6504H19V35.2504H9.5V30.5504H19V18.8004H30.875V9.40039H35.625ZM71.25 23.5004H23.75V70.5004H71.25V23.5004ZM57 35.2504H61.75V58.7504H57V35.2504ZM29.6727 58.7504L29.9992 57.9132L33.25 49.4679V49.3504H33.2945L38.1484 36.7632L38.7273 35.2504H41.993L42.5719 36.7632L47.4258 49.3504H47.4703V49.4679L50.7211 57.9132L51.0477 58.7504H45.9562L44.1453 54.0504H36.5305L34.7195 58.7504H29.6281H29.6727ZM40.375 44.1804L38.3859 49.3504H42.3789L40.3898 44.1804H40.375Z" fill="black"/>
</svg>
