<svg width="94" height="95" viewBox="0 0 94 95" fill="none" xmlns="http://www.w3.org/2000/svg">
<path d="M44.0624 16.0312H49.9374V19C49.9374 20.6328 48.6155 21.9688 46.9999 21.9688C45.3843 21.9688 44.0624 20.6328 44.0624 19V16.0312ZM39.3624 11.2812V19C39.3624 23.2602 42.7846 26.7188 46.9999 26.7188C51.2152 26.7188 54.6374 23.2602 54.6374 19V11.2812H39.3624ZM43.4749 76V79.5625H50.5249V76C50.5249 74.0258 48.9533 72.4375 46.9999 72.4375C45.0465 72.4375 43.4749 74.0258 43.4749 76ZM75.1999 43.9375C73.2465 43.9375 71.6749 45.5258 71.6749 47.5C71.6749 49.4742 73.2465 51.0625 75.1999 51.0625H78.7249V43.9375H75.1999ZM18.7999 49.2812H17.0374V45.7188H18.7999C19.7693 45.7188 20.5624 46.5203 20.5624 47.5C20.5624 48.4797 19.7693 49.2812 18.7999 49.2812ZM18.7999 40.9688H12.3374V54.0312H18.7999C22.369 54.0312 25.2624 51.107 25.2624 47.5C25.2624 43.893 22.369 40.9688 18.7999 40.9688ZM71.9246 27.3422L69.4277 29.8656C68.0471 31.2609 65.8146 31.2609 64.4486 29.8656C63.0827 28.4703 63.068 26.2141 64.4486 24.8336L66.9455 22.3102L71.9246 27.3422ZM70.2649 18.9555L66.9455 15.5859C64.5955 17.9609 62.6568 19.9203 61.1293 21.4641C57.9127 24.7148 57.9127 29.9695 61.1293 33.2203C64.3458 36.4711 69.5452 36.4711 72.7618 33.2203C74.2893 31.6766 76.228 29.7172 78.578 27.3422C76.6393 25.3828 73.8633 22.5773 70.2649 18.9406V18.9555ZM21.238 67.6578C23.1768 69.6172 25.1155 71.5766 27.0543 73.5359L29.9624 70.5969C31.5633 68.9789 31.5633 66.3367 29.9624 64.7188C28.3615 63.1008 25.7471 63.1008 24.1462 64.7188L21.238 67.6578ZM68.2968 69.0234L70.7937 66.5L68.2968 63.9766C66.9161 62.5812 64.6837 62.5812 63.3177 63.9766C61.9518 65.3719 61.9371 67.6281 63.3177 69.0086L65.8146 71.532L68.3115 69.0086L68.2968 69.0234ZM25.4093 29.0344L23.7496 27.357L27.069 24.0023L28.7287 25.6797C29.6393 26.6 29.6393 28.1141 28.7287 29.0344C27.818 29.9547 26.3199 29.9547 25.4093 29.0344ZM32.0627 22.3102C31.2255 21.4641 29.5658 19.7867 27.0837 17.2781C22.1046 22.3102 18.7705 25.6797 17.1108 27.357C19.6077 29.8805 21.2674 31.5578 22.0899 32.3891C24.8365 35.1648 29.3015 35.1648 32.0627 32.3891C34.824 29.6133 34.8093 25.1008 32.0627 22.3102Z" fill="black"/>
</svg>
