<svg width="94" height="94" viewBox="0 0 94 94" fill="none" xmlns="http://www.w3.org/2000/svg">
<path d="M60.997 12.4991L61.746 10.2666L57.281 8.7832L56.532 11.0157L33.032 81.5157L32.2829 83.7482L36.7479 85.2316L37.497 82.9991L60.997 12.4991ZM26.8485 30.5501L23.5291 27.2307L21.8695 28.8904L5.41945 45.3404L3.75977 47.0001L5.41945 48.6598L21.8695 65.1098L23.5291 66.7695L26.8485 63.4501L25.1888 61.7904L10.3985 47.0001L25.1888 32.2098L26.8485 30.5501ZM67.1951 30.5501L68.8548 32.2098L83.6451 47.0001L68.8548 61.7904L67.1951 63.4501L70.5145 66.7695L72.1741 65.1098L88.6242 48.6598L90.2838 47.0001L88.6242 45.3404L72.1741 28.8904L70.5145 27.2307L67.1951 30.5501Z" fill="black"/>
</svg>
