<svg width="95" height="94" viewBox="0 0 95 94" fill="none" xmlns="http://www.w3.org/2000/svg">
<path d="M4.75 25.8504L47.5 9.40039L90.25 25.8504V43.3726L85.5297 46.0604V39.921H85.5V37.6004H9.5V84.6004H4.75V25.8504ZM9.5 29.067V32.9004H85.5V29.067L47.5 14.4382L9.5 29.067ZM19 47.0004H49.2961L48.0641 49.1741C47.5742 50.0407 47.0992 50.8926 46.6391 51.7004H19V47.0004ZM19 61.1004H41.3102C40.2266 63.0098 39.3359 64.5813 38.6531 65.8004H19V61.1004ZM19 75.2004H38.6977C39.3953 76.4341 40.2711 77.991 41.3398 79.9004H18.9852V75.2004H19ZM47.5594 66.4613L55.8719 52.2145L60.5922 54.9023C61.3344 54.4029 62.1211 53.9623 62.9375 53.5657V48.1754H79.5625V53.5804L79.5773 53.5657C80.3789 53.9623 81.1656 54.4029 81.9078 54.9023L86.6578 52.1998L94.9703 66.4466L90.1906 69.1638C90.2203 69.5898 90.2352 70.0304 90.2352 70.471C90.2352 70.9116 90.2055 71.3523 90.1758 71.7929L94.9555 74.5248L86.643 88.7716L81.8781 86.0398C81.1508 86.5244 80.3789 86.9798 79.5773 87.3616V92.8107H62.9523V87.391C62.1359 86.9945 61.3641 86.5538 60.6219 86.0691L55.8867 88.7863L47.5742 74.5395L52.2945 71.837C52.2648 71.3963 52.2352 70.941 52.2352 70.4857C52.2352 70.0451 52.25 69.6045 52.2797 69.1638L47.5594 66.4613ZM54.0461 76.2138L57.6086 82.3238L58.232 81.9713L60.8 80.5026L63.2641 82.1476C63.8133 82.5148 64.3922 82.8526 65.0156 83.1463L67.6875 84.4241V88.096H74.8125V84.4241L77.4695 83.1316C78.0633 82.8379 78.6422 82.5148 79.2062 82.1476L81.6703 80.4879L84.2383 81.9566L84.8914 82.3238L88.4539 76.2285C88.3352 76.1551 87.2516 75.5382 85.218 74.3779L85.4258 71.4551C85.4555 71.0585 85.4703 70.7354 85.4703 70.4563C85.4703 70.1626 85.4555 69.8395 85.4258 69.4723L85.2328 66.5494L87.8008 65.0807L88.4539 64.6988L84.8914 58.5888L84.2531 58.956L81.6703 60.4248L79.2062 58.7798C78.6422 58.3979 78.0633 58.0748 77.4547 57.781L74.7977 56.4885V52.846H67.6727V56.4738L67.7023 56.4885L65.0305 57.781C64.407 58.0748 63.8133 58.4126 63.2641 58.7798L60.8 60.4248L58.232 58.956L57.6234 58.6035L54.0609 64.7135L54.6695 65.066L57.2375 66.5348L57.0297 69.4576C56.9703 70.2213 56.9703 70.6766 57.0297 71.4698L57.2375 74.3926L54.6695 75.8613L54.0461 76.2138ZM62.9375 70.471C62.9375 65.9326 66.6633 62.246 71.25 62.246C75.8367 62.246 79.5625 65.9326 79.5625 70.471C79.5625 75.0094 75.8367 78.696 71.25 78.696C66.6633 78.696 62.9375 75.0094 62.9375 70.471ZM67.6875 70.471C67.6875 72.4244 69.2758 73.996 71.25 73.996C73.2242 73.996 74.8125 72.4244 74.8125 70.471C74.8125 68.5176 73.2242 66.946 71.25 66.946C69.2758 66.946 67.6875 68.5176 67.6875 70.471Z" fill="black"/>
</svg>
