<svg width="95" height="95" viewBox="0 0 95 95" fill="none" xmlns="http://www.w3.org/2000/svg">
<path d="M9.5 30.875H19V19H30.875V9.5H35.625V11.875V19H45.125V9.5H49.875V19H59.375V9.5H64.125V19H76V30.875H85.5V35.625H76V45.125H85.5V47.7078C81.893 46.0453 77.8703 45.125 73.625 45.125C72.8234 45.125 72.0367 45.1547 71.25 45.2289V23.75H23.75V71.25H45.2289C45.1695 72.0367 45.125 72.8234 45.125 73.625C45.125 77.8703 46.0453 81.893 47.7078 85.5H45.125V76H35.625V85.5H30.875V76H19V64.125H9.5V59.375H19V49.875H9.5V45.125H19V35.625H9.5V30.875ZM33.25 33.25H38H61.75V47.7078C60.0727 48.4797 58.4844 49.4 57 50.4688V37.9852H38V56.9852H50.4836C49.4148 58.4695 48.4945 60.0578 47.7227 61.7352H33.2648V33.2352L33.25 33.25ZM52.25 73.625C52.25 61.8242 61.8242 52.25 73.625 52.25C85.4258 52.25 95 61.8242 95 73.625C95 85.4258 85.4258 95 73.625 95C61.8242 95 52.25 85.4258 52.25 73.625ZM57 73.625C57 82.8133 64.4367 90.25 73.625 90.25C82.8133 90.25 90.25 82.8133 90.25 73.625C90.25 64.4367 82.8133 57 73.625 57C64.4367 57 57 64.4367 57 73.625ZM61.75 71.25H66.5V76H61.75V71.25ZM71.25 71.25H76V76H71.25V71.25ZM80.75 71.25H85.5V76H80.75V71.25Z" fill="black"/>
</svg>
