<svg width="94" height="94" viewBox="0 0 94 94" fill="none" xmlns="http://www.w3.org/2000/svg">
<path d="M46.9999 79.9004C46.7943 79.9004 46.6033 79.9004 46.3977 79.9004C45.9424 79.6654 45.2374 79.2101 44.2974 78.2994C42.6377 76.7132 40.7871 74.2457 39.0393 71.0585C35.8668 65.2276 33.3699 57.4726 32.944 49.3651H61.0265C60.6152 57.4873 58.1037 65.2276 54.9312 71.0585C53.198 74.2604 51.3327 76.7132 49.673 78.2994C48.733 79.1954 48.028 79.6654 47.5727 79.9004C47.3671 79.9004 47.1761 79.9004 46.9705 79.9004H46.9999ZM32.9587 44.6504C33.3699 36.5282 35.8815 28.7879 39.054 22.957C40.7871 19.7551 42.6524 17.3023 44.3121 15.716C45.2521 14.8201 45.9571 14.3501 46.4124 14.1151C46.809 14.1151 47.2055 14.1151 47.6021 14.1151C48.0574 14.3501 48.7624 14.8054 49.7024 15.716C51.3621 17.3023 53.2127 19.7698 54.9605 22.957C58.133 28.7879 60.6299 36.5429 61.0558 44.6504H32.9733H32.9587ZM65.7412 49.3504H79.8118C78.813 63.5238 68.8402 75.2151 55.5333 78.7841C60.5858 72.2629 65.1977 61.2032 65.7412 49.3504ZM79.8118 44.6504H65.7412C65.1977 32.7976 60.5858 21.7379 55.5333 15.2166C68.8402 18.7857 78.813 30.477 79.8118 44.6504ZM28.244 44.6504H14.1733C15.1868 30.477 25.1596 18.7857 38.4665 15.2166C33.414 21.7379 28.8021 32.7976 28.2587 44.6504H28.244ZM14.188 49.3504H28.2587C28.8021 61.2032 33.414 72.2629 38.4665 78.7841C25.1596 75.2151 15.1868 63.5238 14.188 49.3504ZM46.9999 84.6004C67.768 84.6004 84.5999 67.7685 84.5999 47.0004C84.5999 26.2323 67.768 9.40039 46.9999 9.40039C26.2318 9.40039 9.3999 26.2323 9.3999 47.0004C9.3999 67.7685 26.2318 84.6004 46.9999 84.6004Z" fill="black"/>
</svg>
