<svg width="94" height="94" viewBox="0 0 94 94" fill="none" xmlns="http://www.w3.org/2000/svg">
<path d="M23.4999 14.0996H84.5999V79.8996H9.3999V23.4996H14.0999V75.1996H16.4499C20.3421 75.1996 23.4999 72.0418 23.4999 68.1496V14.0996ZM25.8499 75.1996H79.8999V18.7996H28.1999V68.1496C28.1999 70.7934 27.3187 73.2315 25.8499 75.1996ZM61.0999 32.8996H72.8499V37.5996H61.0999V32.8996ZM61.0999 42.2996H72.8499V46.9996H61.0999V42.2996ZM35.2499 51.6996H72.8499V56.3996H35.2499V51.6996ZM35.2499 61.0996H72.8499V65.7996H35.2499V61.0996ZM42.2999 32.8996V42.2996H51.6999V32.8996H42.2999ZM37.5999 28.1996H56.3999V46.9996H37.5999V28.1996Z" fill="black"/>
</svg>
