<svg width="94" height="94" viewBox="0 0 94 94" fill="none" xmlns="http://www.w3.org/2000/svg">
<path d="M65.8879 12.9684L52.2726 16.6109L54.7107 25.6878L68.326 22.0453L65.8879 12.9684ZM65.6529 66.5484L79.2682 62.9059L69.5304 26.5838L55.9151 30.2263L65.6529 66.5484ZM66.872 71.0869L69.3101 80.1638L82.9254 76.5213L80.4873 67.4444L66.872 71.0869ZM85.0257 66.2253C86.847 73.0403 88.066 77.5787 88.6682 79.8406C87.1554 80.2519 81.1042 81.8675 70.5145 84.7022L65.976 85.9213L64.757 81.3828L51.7439 32.8406V84.5994H9.44385V9.39938H32.9438V23.4994H49.247C48.1895 19.5338 47.2789 16.1263 46.5151 13.2916C48.0279 12.8803 54.0792 11.2647 64.6689 8.43L69.2073 7.21094C69.8095 9.4875 71.0285 14.0259 72.8498 20.8263L74.0689 25.3647L83.8067 61.6869L85.0257 66.2253ZM32.9585 28.1994V79.8994H47.0585V28.1994H32.9585ZM28.2585 23.4994V14.0994H14.1585V23.4994H28.2585ZM28.2585 79.8994V70.4994H14.1585V79.8994H28.2585ZM28.2585 65.7994V28.1994H14.1585V65.7994H28.2585Z" fill="black"/>
</svg>
