<svg width="50" height="50" viewBox="0 0 50 50" fill="none" xmlns="http://www.w3.org/2000/svg">
<path d="M10 17.5H15V12.5C15 6.97656 19.4766 2.5 25 2.5C30.5234 2.5 35 6.97656 35 12.5V13.75H32.5V12.5C32.5 8.35938 29.1406 5 25 5C20.8594 5 17.5 8.35938 17.5 12.5V17.5H40V23.8047C39.5859 23.7734 39.1719 23.75 38.75 23.75C38.3281 23.75 37.9141 23.7656 37.5 23.8047V20H12.5V42.5H24.2266C24.4531 43.3672 24.75 44.2031 25.1172 45H10.0078V17.5H10ZM27.5 38.75C27.5 32.5391 32.5391 27.5 38.75 27.5C44.9609 27.5 50 32.5391 50 38.75C50 44.9609 44.9609 50 38.75 50C32.5391 50 27.5 44.9609 27.5 38.75ZM30 38.75C30 43.5859 33.9141 47.5 38.75 47.5C43.5859 47.5 47.5 43.5859 47.5 38.75C47.5 33.9141 43.5859 30 38.75 30C33.9141 30 30 33.9141 30 38.75ZM32.6016 38.75L34.3672 36.9844L37.3438 39.9609L41.4844 34.2734L42.2188 33.2656L44.2422 34.7344V34.7266L43.5078 35.7344L38.5078 42.6094L37.6484 43.7969L32.6016 38.75Z" fill="black"/>
</svg>
