<svg width="94" height="94" viewBox="0 0 94 94" fill="none" xmlns="http://www.w3.org/2000/svg">
<path d="M16.5379 26.2763L46.9998 14.4382L77.4911 26.2763C78.2695 39.6566 73.2611 68.121 46.9998 79.4744C20.7532 68.121 15.7448 39.6566 16.5379 26.2763ZM82.1911 25.9973L82.0001 22.9863L79.1801 21.8848L48.7036 10.0613L46.9998 9.40039L45.3107 10.0613L14.8342 21.8848L12.0142 22.9863L11.8379 25.9973C11.412 33.3263 12.5576 44.5476 17.3164 55.5045C22.1192 66.5641 30.682 77.5357 45.1345 83.7926L46.9998 84.6004L48.8651 83.7926C63.3176 77.5357 71.8804 66.5641 76.6832 55.5045C81.442 44.5329 82.5876 33.3263 82.1617 25.9973H82.1911ZM46.9998 36.4254C48.9532 36.4254 50.5248 37.997 50.5248 39.9504C50.5248 41.9038 48.9532 43.4754 46.9998 43.4754C45.0464 43.4754 43.4748 41.9038 43.4748 39.9504C43.4748 37.997 45.0464 36.4254 46.9998 36.4254ZM55.2248 39.9504C55.2248 35.412 51.5382 31.7254 46.9998 31.7254C42.4614 31.7254 38.7748 35.412 38.7748 39.9504C38.7748 43.681 41.257 46.8241 44.6498 47.8376V61.1004H49.3498V47.8376C52.7426 46.8241 55.2248 43.681 55.2248 39.9504Z" fill="black"/>
</svg>
