<svg width="94" height="94" viewBox="0 0 94 94" fill="none" xmlns="http://www.w3.org/2000/svg">
<path d="M46.9999 14.1004C65.1683 14.1004 79.8999 28.832 79.8999 47.0004C79.8999 65.1688 65.1683 79.9004 46.9999 79.9004C28.8315 79.9004 14.0999 65.1688 14.0999 47.0004C14.0999 28.832 28.8315 14.1004 46.9999 14.1004ZM46.9999 84.6004C67.768 84.6004 84.5999 67.7685 84.5999 47.0004C84.5999 26.2323 67.768 9.40039 46.9999 9.40039C26.2318 9.40039 9.3999 26.2323 9.3999 47.0004C9.3999 67.7685 26.2318 84.6004 46.9999 84.6004ZM39.9499 62.9069C57.0021 52.4054 65.6237 47.1032 65.7999 47.0004C65.6237 46.8976 57.0021 41.5954 39.9499 31.0938L35.2499 28.2004V65.8004L39.9499 62.9069ZM56.8258 47.0004L39.9499 57.3845V36.6163L56.8258 47.0004Z" fill="black"/>
</svg>
