<svg width="81" height="81" viewBox="0 0 81 81" fill="none" xmlns="http://www.w3.org/2000/svg">
<path d="M67.9691 50.5555L55.7469 62.7776L47.1913 54.2221L50.858 50.5555L55.7469 55.4443L64.3024 46.8888L67.9691 50.5555ZM39.858 31C41.803 31 43.6682 31.7726 45.0435 33.1478C46.4187 34.5231 47.1913 36.3884 47.1913 38.3333C47.1913 40.2782 46.4187 42.1434 45.0435 43.5187C43.6682 44.894 41.803 45.6666 39.858 45.6666C37.9131 45.6666 36.0479 44.894 34.6726 43.5187C33.2973 42.1434 32.5247 40.2782 32.5247 38.3333C32.5247 36.3884 33.2973 34.5231 34.6726 33.1478C36.0479 31.7726 37.9131 31 39.858 31ZM39.858 20C52.0802 20 62.518 27.6022 66.7468 38.3333C66.1357 39.9222 65.378 41.4133 64.498 42.8555C63.0802 41.9999 61.5157 41.3888 59.8535 41.071L61.418 38.3333C57.3846 30.12 49.0491 24.8889 39.858 24.8889C30.667 24.8889 22.3314 30.12 18.2981 38.3333C22.3314 46.5466 30.667 51.7777 39.858 51.7777L42.8158 51.6066C42.4736 52.8288 42.3025 54.1243 42.3025 55.4443V56.5688L39.858 56.6665C27.6359 56.6665 17.1981 49.0643 12.9692 38.3333C17.1981 27.6022 27.6359 20 39.858 20Z" fill="#202020"/>
<path d="M67.9691 50.5555L55.7469 62.7777L47.1914 54.2222L50.8581 50.5555L55.7469 55.4444L64.3025 46.8889L67.9691 50.5555Z" fill="#202020"/>
</svg>
