<svg width="81" height="81" viewBox="0 0 81 81" fill="none" xmlns="http://www.w3.org/2000/svg">
<path d="M33.6957 16.7794C36.7094 16.7794 39.5997 17.9766 41.7307 20.1076C43.8617 22.2387 45.0589 25.1289 45.0589 28.1427C45.0589 31.1564 43.8617 34.0467 41.7307 36.1777C39.5997 38.3087 36.7094 39.5059 33.6957 39.5059C30.682 39.5059 27.7917 38.3087 25.6607 36.1777C23.5297 34.0467 22.3325 31.1564 22.3325 28.1427C22.3325 25.1289 23.5297 22.2387 25.6607 20.1076C27.7917 17.9766 30.682 16.7794 33.6957 16.7794ZM33.6957 45.1875C46.2521 45.1875 56.4222 50.2726 56.4222 56.5507V62.2324H10.9692V56.5507C10.9692 50.2726 21.1393 45.1875 33.6957 45.1875Z" fill="#202020"/>
<path d="M42.0556 45.0741H66.8113V60.5464H42.0556M66.8113 63.6409C67.632 63.6409 68.4191 63.3149 68.9994 62.7345C69.5797 62.1542 69.9057 61.3671 69.9057 60.5464V45.0741C69.9057 43.3567 68.5132 41.9797 66.8113 41.9797H42.0556C40.3382 41.9797 38.9612 43.3567 38.9612 45.0741V60.5464C38.9612 61.3671 39.2872 62.1542 39.8675 62.7345C40.4478 63.3149 41.2349 63.6409 42.0556 63.6409H35.8667V66.7353H73.0002V63.6409H66.8113Z" fill="#202020"/>
<path d="M41.9775 45.1133H66.8899V60.6248H41.9775V45.1133Z" fill="white"/>
</svg>
