<svg width="81" height="81" viewBox="0 0 81 81" fill="none" xmlns="http://www.w3.org/2000/svg">
<path d="M41.4695 14.7794C47.6834 14.7794 52.7163 19.8632 52.7163 26.1398C52.7163 32.4163 47.6834 37.5001 41.4695 37.5001C35.2557 37.5001 30.2228 32.4163 30.2228 26.1398C30.2228 19.8632 35.2557 14.7794 41.4695 14.7794ZM52.7163 44.7139C52.7163 49.7693 50.9296 51.9277 45.5593 57.7215L44.2812 48.8604L46.9242 43.5211C45.181 43.3223 43.3534 43.1803 41.4695 43.1803C39.5857 43.1803 37.7581 43.3223 36.0149 43.5211L38.6579 48.8604L37.3798 57.7215C32.0095 51.9277 30.2228 49.7693 30.2228 44.7139C23.5029 46.702 18.9761 50.2805 18.9761 54.5406V65.9009H63.963V54.5406C63.963 50.2805 59.4643 46.702 52.7163 44.7139Z" fill="#202020"/>
<path d="M46.5585 62.578L44.281 48.8604L46.924 43.521C45.1807 43.3222 43.3531 43.1802 41.4693 43.1802C39.5855 43.1802 37.7579 43.3222 36.0146 43.521L38.6576 48.8604L36.3802 62.578C37.3796 63.3448 41.4693 65.9009 41.4693 65.9009C41.4693 65.9009 43.0029 64.8785 46.5585 62.578Z" fill="#202020"/>
</svg>
