<svg width="81" height="81" viewBox="0 0 81 81" fill="none" xmlns="http://www.w3.org/2000/svg">
<path d="M53.4692 45.7794H58.4692V53.2794H65.9692V58.2794H58.4692V65.7794H53.4692V58.2794H45.9692V53.2794H53.4692V45.7794ZM60.9692 40.7794C60.9692 32.3794 55.7942 25.2044 48.4692 22.2544V23.2794C48.4692 26.0294 46.2192 28.2794 43.4692 28.2794H38.4692V33.2794C38.4692 34.6544 37.3442 35.7794 35.9692 35.7794H30.9692V40.7794H45.9692C47.2192 40.7794 48.2192 41.6544 48.4692 42.8044C43.9692 45.4044 40.9692 50.2544 40.9692 55.7794C40.9692 59.5294 42.3192 62.9044 44.5692 65.5294L40.9692 65.7794C27.2192 65.7794 15.9692 54.5294 15.9692 40.7794C15.9692 27.0294 27.2192 15.7794 40.9692 15.7794C54.7192 15.7794 65.9692 27.0294 65.9692 40.7794L65.7192 44.3794C64.3192 43.1794 62.7192 42.2544 60.9692 41.6294V40.7794ZM38.4692 60.6044V55.7794C35.7192 55.7794 33.4692 53.5294 33.4692 50.7794V48.2794L21.4942 36.3044C21.1692 37.7294 20.9692 39.2294 20.9692 40.7794C20.9692 50.9794 28.6192 59.3794 38.4692 60.6044Z" fill="#202020"/>
<path d="M53.4692 45.7794H58.4692V53.2794H65.9692V58.2794H58.4692V65.7794H53.4692V58.2794H45.9692V53.2794H53.4692V45.7794Z" fill="#202020"/>
</svg>
