<svg width="80" height="81" viewBox="0 0 80 81" fill="none" xmlns="http://www.w3.org/2000/svg">
<path d="M29.6668 35.8195H21.9167V28.1277H16.75V35.8195H9V40.9474H16.75V48.6391H21.9167V40.9474H29.6668V35.8195Z" fill="#202020"/>
<path d="M58.0837 53.767V58.8948H27.0835V53.767C27.0835 53.767 27.0835 43.5113 42.5836 43.5113C58.0837 43.5113 58.0837 53.767 58.0837 53.767ZM50.3336 30.6917C50.3336 29.1704 49.8791 27.6832 49.0275 26.4183C48.1759 25.1534 46.9655 24.1676 45.5494 23.5854C44.1333 23.0032 42.575 22.8509 41.0716 23.1477C39.5683 23.4445 38.1873 24.177 37.1035 25.2527C36.0196 26.3285 35.2815 27.699 34.9825 29.1911C34.6834 30.6831 34.8369 32.2297 35.4235 33.6352C36.0101 35.0407 37.0034 36.2419 38.2779 37.0871C39.5524 37.9323 41.0508 38.3834 42.5836 38.3834C44.639 38.3834 46.6103 37.573 48.0637 36.1306C49.5171 34.6881 50.3336 32.7316 50.3336 30.6917ZM58.6003 43.6651C60.0125 44.9581 61.1509 46.5173 61.9493 48.2517C62.7477 49.9862 63.19 51.861 63.2504 53.767V58.8948H71.0004V53.767C71.0004 53.767 71.0004 44.9214 58.6003 43.6651ZM55.5003 22.9999C54.7198 23.0003 53.9441 23.1214 53.2011 23.3588C54.7125 25.5099 55.5229 28.0692 55.5229 30.6917C55.5229 33.3141 54.7125 35.8734 53.2011 38.0245C53.9441 38.2619 54.7198 38.383 55.5003 38.3834C57.5558 38.3834 59.527 37.573 60.9804 36.1306C62.4338 34.6881 63.2504 32.7316 63.2504 30.6917C63.2504 28.6517 62.4338 26.6952 60.9804 25.2527C59.527 23.8103 57.5558 22.9999 55.5003 22.9999Z" fill="#202020"/>
</svg>
