<svg width="80" height="81" viewBox="0 0 80 81" fill="none" xmlns="http://www.w3.org/2000/svg">
<path d="M36.6869 33.7165C36.2517 33.8735 35.8967 34.1971 35.7 34.6159C35.5033 35.0347 35.4811 35.5145 35.6381 35.9497L44.5606 60.6727C44.8878 61.5796 45.8869 62.0487 46.7938 61.7215C47.204 61.5734 47.5028 61.3192 47.7055 61.0019L50.6218 56.1668L57.027 62.6896C57.5181 63.1713 58.2257 63.3063 58.8519 63.0804C59.0894 62.9946 59.3269 62.9089 59.5021 62.6505L64.4641 57.7359C65.1443 57.0512 65.1745 55.9177 64.4544 55.2746L58.0198 48.738L62.8728 45.8884C63.1794 45.6557 63.4487 45.3877 63.5987 44.9919C63.9323 44.0906 63.4797 43.1069 62.498 42.7535L37.899 33.6939L37.8852 33.7233C37.5188 33.5871 37.0972 33.5684 36.6869 33.7165Z" fill="#202020"/>
<path d="M46.8623 33.2412L45.3038 28.9227L56.0999 25.0265L57.6584 29.3449L46.8623 33.2412ZM40.2527 22.8386L44.158 14.5227L48.3013 16.4685L44.396 24.7844L40.2527 22.8386ZM28.2737 15.5453L32.5921 13.9868L36.4884 24.7828L32.17 26.3414L28.2737 15.5453ZM26.5911 51.9294L30.4964 43.6136L34.6396 45.5593L30.7343 53.8752L26.5911 51.9294ZM17.77 27.4871L19.7157 23.3439L28.0316 27.2492L26.0858 31.3924L17.77 27.4871ZM29.5886 39.4752L18.7925 43.3714L17.234 39.053L28.0301 35.1567L29.5886 39.4752Z" fill="#202020"/>
</svg>
