<svg width="80" height="81" viewBox="0 0 80 81" fill="none" xmlns="http://www.w3.org/2000/svg">
<path d="M40.5003 14.7793C46.7141 14.7793 51.747 19.863 51.747 26.1396C51.747 32.4162 46.7141 37.5 40.5003 37.5C34.2865 37.5 29.2536 32.4162 29.2536 26.1396C29.2536 19.863 34.2865 14.7793 40.5003 14.7793ZM51.747 44.7138C51.747 49.7691 49.9603 51.9276 44.59 57.7214L43.312 48.8603L45.955 43.521C44.2117 43.3221 42.3841 43.1801 40.5003 43.1801C38.6165 43.1801 36.7889 43.3221 35.0456 43.521L37.6886 48.8603L36.4106 57.7214C31.0403 51.9276 29.2536 49.7691 29.2536 44.7138C22.5336 46.7018 18.0068 50.2804 18.0068 54.5405V65.9008H62.9938V54.5405C62.9938 50.2804 58.4951 46.7018 51.747 44.7138Z" fill="#202020"/>
<path d="M45.5892 62.5779L43.3118 48.8603L45.9547 43.5209C44.2115 43.3221 42.3839 43.1801 40.5001 43.1801C38.6162 43.1801 36.7887 43.3221 35.0454 43.5209L37.6884 48.8603L35.4109 62.5779C36.4103 63.3447 40.5001 65.9008 40.5001 65.9008C40.5001 65.9008 42.0337 64.8784 45.5892 62.5779Z" fill="#202020"/>
</svg>
