<svg width="80" height="81" viewBox="0 0 80 81" fill="none" xmlns="http://www.w3.org/2000/svg">
<path d="M31.6667 38.0632H26.1111V43.6328H31.6667V38.0632ZM42.7778 38.0632H37.2222V43.6328H42.7778V38.0632ZM53.8889 38.0632H48.3333V43.6328H53.8889V38.0632ZM59.4444 18.5695H56.6667V12.9999H51.1111V18.5695H28.8889V12.9999H23.3333V18.5695H20.5556C17.4722 18.5695 15 21.0758 15 24.1391V63.1265C15 64.6036 15.5853 66.0203 16.6272 67.0648C17.6691 68.1093 19.0821 68.6961 20.5556 68.6961H59.4444C60.9179 68.6961 62.3309 68.1093 63.3728 67.0648C64.4147 66.0203 65 64.6036 65 63.1265V24.1391C65 22.662 64.4147 21.2453 63.3728 20.2008C62.3309 19.1563 60.9179 18.5695 59.4444 18.5695ZM59.4444 63.1265H20.5556V32.4935H59.4444V63.1265Z" fill="#202020"/>
<path d="M31.6664 38.0632H26.1108V43.6328H31.6664V38.0632ZM53.8886 38.0632H48.3331V43.6328H53.8886V38.0632Z" fill="#202020"/>
</svg>
