<svg viewBox="0 0 1201 322" xmlns="http://www.w3.org/2000/svg" xml:space="preserve" overflow="hidden"><defs><clipPath id="clip0"><rect x="39" y="199" width="1201" height="322"/></clipPath><clipPath id="clip1"><path d="M39 199 1240 199 1240 501.447 1225.05 501.447 1225.05 521 39 521Z" fill-rule="evenodd" clip-rule="evenodd"/></clipPath></defs><g clip-path="url(#clip0)" transform="translate(-39 -199)"><g clip-path="url(#clip1)"><path d="M1231.96 511.797 1231.96 513.44 1233.22 513.44C1233.55 513.44 1233.81 513.362 1233.98 513.207 1234.16 513.056 1234.26 512.833 1234.25 512.6 1234.25 512.065 1233.92 511.797 1233.25 511.797ZM1230.4 510.491 1233.33 510.491C1234.09 510.491 1234.7 510.659 1235.16 510.995 1235.61 511.331 1235.84 511.797 1235.84 512.395 1235.84 512.905 1235.69 513.309 1235.39 513.608L1234.5 514.088 1235.16 514.448C1235.39 514.685 1235.56 515.008 1235.69 515.419L1236.27 517.304 1234.68 517.304 1234.19 515.68C1234.08 515.294 1233.95 515.03 1233.82 514.887 1233.68 514.744 1233.46 514.672 1233.16 514.672L1231.96 514.672 1231.96 517.304 1230.4 517.304ZM1232.97 508.568C1232.01 508.568 1231.12 508.811 1230.3 509.296 1229.49 509.775 1228.81 510.448 1228.33 511.256 1227.84 512.085 1227.58 513.035 1227.59 514 1227.59 514.996 1227.84 515.907 1228.33 516.735 1228.83 517.562 1229.48 518.222 1230.3 518.713 1231.12 519.205 1232.01 519.451 1232.97 519.451 1233.97 519.451 1234.88 519.205 1235.71 518.713 1236.52 518.23 1237.2 517.55 1237.68 516.735 1238.16 515.907 1238.41 514.996 1238.41 514 1238.41 512.992 1238.16 512.078 1237.68 511.256 1237.2 510.446 1236.52 509.772 1235.71 509.296 1234.88 508.81 1233.93 508.559 1232.97 508.568ZM1232.97 507C1234.27 507 1235.45 507.314 1236.51 507.943 1237.56 508.554 1238.43 509.425 1239.05 510.472 1239.68 511.53 1240 512.706 1240 514 1240.01 515.231 1239.68 516.442 1239.05 517.5 1238.43 518.552 1237.56 519.43 1236.51 520.048 1235.45 520.682 1234.27 521 1232.97 521 1231.7 521 1230.53 520.682 1229.48 520.048 1228.43 519.426 1227.56 518.55 1226.95 517.5 1226.32 516.442 1225.99 515.231 1226 514 1226 512.706 1226.32 511.53 1226.95 510.472 1227.56 509.428 1228.44 508.557 1229.48 507.943 1230.53 507.314 1231.7 507 1232.97 507ZM979.578 443.055 979.586 520.824 1001.52 520.824 1001.52 443.057 979.578 443.057ZM807 442.95 807 520.824 829.133 520.824 829.133 461.692 846.28 461.698C851.96 461.698 856.004 463.113 858.74 466.036 862.212 469.737 863.628 475.706 863.628 486.628L863.628 520.824 885.072 520.824 885.072 477.799C885.072 447.091 865.52 442.949 846.392 442.949L807 442.949ZM1014.9 443.057 1014.9 520.824 1050.48 520.824C1069.44 520.824 1075.63 517.666 1082.32 510.59 1087.05 505.621 1090.11 494.713 1090.11 482.795 1090.11 471.865 1087.52 462.112 1083.01 456.039 1074.88 445.18 1063.17 443.057 1045.69 443.057ZM1036.66 459.988 1046.1 459.988C1059.78 459.988 1068.63 466.141 1068.63 482.106 1068.63 498.073 1059.78 504.224 1046.1 504.224L1036.66 504.224 1036.66 459.99ZM947.947 443.057 929.639 504.692 912.094 443.061 888.413 443.057 913.467 520.824 945.088 520.824 970.34 443.057 947.949 443.057ZM1100.32 520.824 1122.26 520.824 1122.26 443.063 1100.31 443.057ZM1161.82 443.084 1131.18 520.797 1152.81 520.797 1157.66 507.061 1193.91 507.061 1198.5 520.797 1221.99 520.797 1191.12 443.077 1161.82 443.086ZM1176.06 457.262 1189.35 493.669 1162.35 493.669ZM950.574 260.888 950.574 242.205C952.408 242.075 954.243 241.98 956.08 241.922 1007.12 240.316 1040.6 285.828 1040.6 285.828 1040.6 285.828 1004.44 336.117 965.663 336.117 960.076 336.117 955.079 335.217 950.574 333.703L950.574 277.049C970.444 279.45 974.438 288.239 986.387 308.174L1012.95 285.747C1012.95 285.747 993.562 260.281 960.869 260.281 957.31 260.281 953.911 260.531 950.574 260.888ZM950.574 199.171 950.574 227.078C952.405 226.933 954.239 226.817 956.08 226.75 1027.06 224.357 1073.3 285.028 1073.3 285.028 1073.3 285.028 1020.18 349.689 964.851 349.689 959.782 349.689 955.036 349.222 950.574 348.429L950.574 365.679C954.388 366.165 958.339 366.453 962.465 366.453 1013.96 366.453 1051.2 340.126 1087.26 308.965 1093.23 313.759 1117.71 325.417 1122.74 330.526 1088.45 359.262 1008.55 382.422 963.255 382.422 959.02 382.406 954.788 382.186 950.574 381.762L950.574 406.006 1146.29 406.006 1146.29 199.169 950.577 199.169ZM950.574 333.703 950.574 348.432C902.947 339.929 889.728 290.366 889.728 290.366 889.728 290.366 912.596 264.999 950.574 260.888L950.574 277.048C950.545 277.048 950.525 277.04 950.5 277.04 930.57 274.643 914.999 293.287 914.999 293.287 914.999 293.287 923.723 324.669 950.574 333.703ZM865.984 288.215C865.984 288.215 894.21 246.513 950.574 242.203L950.574 227.078C888.147 232.093 834.086 285.026 834.086 285.026 834.086 285.026 864.702 373.649 950.577 381.762L950.577 365.682C887.56 357.742 865.985 288.215 865.985 288.215Z" fill="#FFFFFF" fill-rule="evenodd"/><g><g><g><path d="M513.086 330.505C518.373 390.634 425.503 447.945 305.656 458.515 185.809 469.083 84.366 428.905 79.08 368.777 73.792 308.647 166.662 251.335 286.51 240.767 406.357 230.197 507.799 270.375 513.086 330.505Z" fill="#FFFFFF"/><path d="M504.867 271.07C505.948 271.07 506.813 271.287 507.893 271.936 508.758 272.369 509.622 273.235 510.054 274.101 510.703 275.183 510.919 276.049 510.919 277.131 510.919 278.213 510.703 279.295 510.054 280.161 509.622 281.027 508.758 281.892 507.893 282.325 507.029 282.758 505.948 283.191 504.867 283.191 503.787 283.191 502.706 282.975 501.842 282.325 500.977 281.892 500.113 281.027 499.68 280.161 499.248 279.295 498.816 278.213 498.816 277.131 498.816 276.049 499.032 274.966 499.68 274.101 500.329 273.235 500.977 272.369 502.058 271.936 502.922 271.287 504.003 271.071 504.867 271.071ZM504.867 271.503C504.003 271.503 503.138 271.72 502.058 272.153 500.977 272.586 500.545 273.235 499.897 274.101 499.464 274.966 499.248 275.832 499.248 276.914 499.248 277.78 499.464 278.862 499.897 279.728 500.311 280.576 500.995 281.261 501.842 281.676 502.706 282.109 503.571 282.326 504.651 282.326 505.516 282.326 506.596 282.109 507.461 281.676 508.308 281.261 508.992 280.575 509.406 279.728 509.838 278.862 510.054 277.997 510.054 276.914 510.054 276.049 509.838 274.966 509.406 274.101 508.974 273.235 508.325 272.586 507.245 272.153 506.164 271.72 505.948 271.503 504.867 271.503ZM501.626 273.235 504.867 273.235C505.732 273.235 506.38 273.451 506.813 273.885 507.245 274.317 507.461 274.75 507.461 275.183 507.461 275.616 507.245 276.049 507.029 276.265 506.813 276.698 506.164 276.915 505.516 276.915L507.245 279.512 507.893 280.161C508.109 280.161 508.109 280.377 508.325 280.377L508.325 280.594 506.813 280.594 504.219 277.131 503.571 277.131 503.571 279.944C503.571 280.161 503.787 280.377 503.787 280.377 504.003 280.377 504.219 280.594 504.651 280.594L504.651 280.81 501.409 280.81 501.409 280.594 502.058 280.594C502.274 280.594 502.274 280.377 502.274 280.377L502.274 274.317C502.274 274.101 502.058 274.101 502.058 274.101L501.409 274.101 501.409 273.235ZM503.571 276.915C504.219 276.915 504.651 276.915 505.084 276.698 505.3 276.482 505.732 276.482 505.732 276.048 505.948 275.832 505.948 275.616 505.948 275.183 505.948 274.75 505.732 274.317 505.516 274.101 505.3 273.884 504.867 273.668 504.219 273.668 504.003 273.668 503.787 273.668 503.571 273.884L503.571 276.914Z" fill="#003A70"/><path d="M515.025 327.344C523.454 395.304 423.605 463.482 291.985 479.714 160.366 495.947 47.981 453.959 39.552 385.998 31.123 318.038 130.324 249.86 261.944 233.628 393.563 217.395 506.813 259.383 515.025 327.344ZM286.582 240.77C166.633 251.375 73.7 308.73 79.103 368.9 84.506 429.068 185.868 469.325 305.817 458.72 425.766 448.115 518.699 390.759 513.296 330.59 507.893 270.205 406.531 230.164 286.582 240.77Z" fill="#00953B"/><path d="M537.286 361.324C537.286 375.19 526.062 386.431 512.216 386.431 498.37 386.431 487.145 375.19 487.145 361.324 487.145 347.458 498.37 336.218 512.216 336.218 526.062 336.218 537.286 347.458 537.286 361.324Z" fill="#D7282F"/><path d="M167.282 340.113 168.146 340.113C170.956 340.33 172.252 341.196 172.685 341.628 173.117 342.061 173.765 343.576 173.765 348.122L173.765 366.302C173.765 370.632 173.333 373.878 172.252 375.826 170.523 379.289 167.065 381.02 161.662 381.02 156.908 381.02 153.666 379.289 151.937 376.042 151.072 374.094 150.64 371.496 150.64 367.817L150.64 345.307C150.64 342.278 151.288 341.412 151.505 341.196 151.937 340.979 153.017 340.33 156.043 340.113L156.908 340.113 156.908 336.867 135.079 336.867 135.079 340.113 135.944 340.113C139.185 340.33 140.05 340.979 140.482 341.196 140.698 341.412 141.347 342.278 141.347 345.308L141.347 367.168C141.347 371.713 142.211 375.392 143.724 378.206 146.75 383.4 152.153 386.215 160.149 386.215 168.146 386.215 173.765 383.617 176.575 378.206 178.088 375.392 178.952 371.28 178.952 366.302L178.952 348.122C178.952 343.576 179.601 342.278 180.033 341.845 180.465 341.195 181.546 340.547 184.572 340.33L185.436 340.33 185.436 337.084 167.065 337.084 167.065 340.114ZM121.895 351.801 114.331 347.039C111.521 345.308 109.576 343.793 108.28 342.279 106.983 340.979 106.55 339.248 106.55 337.3 106.55 335.135 107.2 333.404 108.712 332.322 110.225 331.023 112.17 330.374 114.332 330.374 117.141 330.374 119.95 331.456 122.976 333.404 125.786 335.352 127.947 339.248 129.244 344.442L129.46 345.308 133.566 345.308 131.405 324.963 127.731 324.963 127.731 325.613C127.515 326.478 127.299 326.911 126.866 327.343 126.65 327.56 126.218 327.777 125.57 327.777 125.57 327.777 124.705 327.56 121.031 326.478 118.221 325.396 115.628 324.963 113.683 324.963 108.712 324.963 104.606 326.478 101.363 329.508 98.338 332.538 96.825 336.434 96.825 341.196 96.825 344.659 98.1219 347.906 100.715 350.935 102.012 352.45 103.957 353.965 106.118 355.48L113.467 360.026C117.573 362.623 120.383 364.57 121.679 365.869 123.624 367.817 124.489 369.981 124.489 372.579 124.489 375.392 123.624 377.557 121.895 379.072 120.166 380.586 118.005 381.452 115.412 381.452 110.657 381.452 106.767 379.505 103.525 375.826 101.58 373.661 100.067 370.631 98.5551 366.952L98.338 366.302 94.448 366.302 97.2581 386.863 100.931 386.863 101.148 385.998C101.148 385.348 101.364 384.916 101.796 384.267 102.091 383.996 102.475 383.841 102.876 383.833 102.876 383.833 103.741 383.833 107.631 385.348 110.406 386.339 113.329 386.851 116.276 386.863 121.896 386.863 126.434 385.132 130.108 382.102 133.782 378.855 135.511 374.743 135.511 369.982 135.511 366.302 134.431 363.272 132.486 360.675 130.108 357.428 126.866 354.615 121.896 351.801ZM204.239 365.004 207.265 365.004C212.668 365.004 217.206 363.921 220.88 361.541 224.771 359.16 226.5 355.481 226.5 350.286 226.5 346.174 224.771 342.927 221.313 340.33 218.071 337.95 213.316 336.65 207.048 336.65L187.597 336.65 187.597 339.897 188.462 339.897C191.487 340.113 192.352 340.763 192.568 340.979 192.784 341.196 193.433 342.279 193.433 345.091L193.433 375.391C193.433 378.855 193 379.937 192.784 380.371 192.568 380.586 191.704 381.236 188.462 381.669L187.597 381.669 187.597 384.916 209.21 384.916 209.21 381.669 208.345 381.669C204.887 381.453 203.807 380.804 203.59 380.586 203.374 380.37 202.726 379.505 202.726 376.474L202.726 364.787C203.158 364.787 203.59 365.004 204.239 365.004ZM202.726 342.711C202.726 341.845 202.942 341.628 202.942 341.628 202.942 341.628 203.374 341.412 204.887 341.412 207.697 341.412 210.074 341.845 212.019 342.711 215.261 344.226 216.99 346.823 216.99 350.502 216.99 354.615 215.477 357.428 212.452 358.943 210.723 359.81 208.345 360.243 205.319 360.243L204.239 360.243C204.023 360.243 203.374 360.243 202.726 360.026L202.726 342.71Z" fill="#003A70"/><path d="M262.16 371.28 261.944 371.93C260.215 375.61 258.486 377.99 256.325 378.855 254.163 379.721 250.922 380.37 246.167 380.37 240.548 380.37 239.035 380.154 238.603 379.937 238.386 379.937 237.954 379.721 237.954 378.422L237.954 362.19 247.68 362.19C251.138 362.19 252.218 362.839 252.651 363.273 253.083 363.705 253.731 365.004 254.38 368.25L254.596 369.116 258.054 369.116 258.054 350.935 254.596 350.935 254.38 351.801C253.731 354.831 253.083 356.129 252.651 356.563 252.218 356.995 251.138 357.644 247.68 357.644L237.954 357.644 237.954 342.711C237.954 341.845 238.17 341.628 237.954 341.628 237.954 341.628 238.386 341.412 239.035 341.412L248.544 341.412C253.515 341.412 255.244 342.061 255.892 342.495 256.541 342.927 257.405 344.442 258.27 347.905L258.486 348.771 262.16 348.771 261.944 336.651 222.825 336.651 222.825 339.897 223.69 339.897C226.716 340.113 227.796 340.763 228.012 340.979 228.229 341.196 228.877 342.279 228.877 345.091L228.877 376.258C228.877 379.505 228.229 380.154 228.012 380.37 227.58 380.586 226.716 381.236 223.474 381.453L222.609 381.453 222.609 384.699 262.376 384.699 266.05 370.847 262.16 370.847Z" fill="#003A70"/><path d="M307.546 381.02C306.682 380.586 306.033 379.937 305.169 378.855L291.769 362.406C295.011 361.757 297.821 360.458 299.766 358.727 302.359 356.563 303.656 353.749 303.656 349.853 303.656 344.226 300.846 340.33 295.227 338.165 292.417 337.084 288.959 336.65 284.853 336.65L264.321 336.65 264.321 339.897 265.186 339.897C268.212 340.113 269.076 340.763 269.508 340.979 269.724 341.196 270.373 342.279 270.373 345.091L270.373 375.391C270.373 379.072 269.941 379.937 269.724 380.371 269.508 380.586 268.644 381.236 265.402 381.669L264.537 381.669 264.537 384.916 286.15 384.916 286.15 381.669 285.285 381.669C282.043 381.453 281.179 380.804 280.747 380.586 280.531 380.37 279.882 379.505 279.882 376.474L279.882 363.705 281.395 363.705 298.901 385.348 311.652 385.348 311.652 382.102 310.788 382.102C309.491 381.669 308.411 381.452 307.546 381.02ZM279.666 358.943 279.666 342.711C279.666 341.845 279.882 341.628 279.882 341.628 279.882 341.628 280.531 341.412 282.908 341.412 285.718 341.412 287.879 341.845 289.608 342.495 292.634 343.793 293.93 346.174 293.93 349.853 293.93 353.533 292.417 356.129 288.959 357.428 287.23 358.294 283.989 358.943 279.666 358.943ZM344.719 370.198 329.375 336.65 313.814 336.65 313.814 339.897 314.894 339.897C318.352 340.113 319.433 340.763 319.649 340.979 320.081 341.196 320.514 342.279 320.514 345.091L320.514 373.661C320.514 378.206 319.865 379.505 319.433 380.154 319.001 380.586 317.92 381.453 314.462 381.669L313.598 381.669 313.598 384.916 332.184 384.916 332.184 381.669 331.32 381.669C328.294 381.453 327.43 380.804 326.997 380.37 326.349 379.721 325.701 377.99 325.701 373.661L325.701 350.718 341.694 385.348 344.071 385.348 360.28 349.203 360.28 375.826C360.28 379.505 359.632 380.586 359.416 380.804 359.2 381.02 358.335 381.669 354.877 381.885L354.013 381.885 354.013 385.132 375.625 385.132 375.625 381.885 374.761 381.885C371.735 381.669 370.654 381.02 370.438 380.804 370.222 380.586 369.574 379.721 369.574 376.691L369.574 345.308C369.574 342.495 370.006 341.412 370.438 341.196 370.654 340.979 371.735 340.33 374.761 340.113L375.625 340.113 375.625 336.867 360.064 336.867 344.719 370.198ZM394.428 380.804C394.212 380.586 393.563 379.937 393.563 376.691L393.563 345.308C393.563 342.278 394.212 341.412 394.428 341.196 394.86 340.763 395.941 340.33 399.399 340.113L400.479 340.113 400.479 336.867 377.786 336.867 377.786 340.113 378.867 340.113C382.325 340.33 383.406 340.763 383.838 341.196 384.054 341.412 384.702 342.278 384.702 345.308L384.702 376.474C384.702 379.721 384.054 380.586 383.838 380.586 383.406 380.804 382.325 381.453 378.867 381.669L378.003 381.669 378.003 384.916 400.696 384.916 400.696 381.669 399.831 381.669C395.941 381.669 394.644 381.02 394.428 380.804Z" fill="#003A70"/><path d="M437.437 374.31C435.492 376.258 433.546 377.773 431.817 378.639 429.008 380.37 425.766 381.02 422.308 381.02 417.553 381.02 413.663 379.289 410.637 375.826 407.612 372.363 405.883 367.601 405.883 361.541 405.883 355.048 407.395 349.853 410.421 346.174 413.447 342.494 417.121 340.764 421.66 340.764 426.198 340.764 429.656 342.494 432.466 345.741 433.979 347.471 435.059 350.07 435.924 352.884L436.14 353.533 439.598 353.533 438.95 335.785 435.708 335.785 435.492 336.434C435.275 336.867 435.059 337.3 434.627 337.516 434.195 337.733 433.763 337.949 433.33 337.949 433.114 337.949 432.466 337.733 429.008 336.867 426.198 336.001 423.605 335.785 421.011 335.785 413.447 335.785 407.179 338.382 402.641 343.36 398.102 348.122 395.941 354.181 395.941 361.324 395.941 368.25 398.102 374.094 402.425 378.639 406.963 383.617 413.231 386.215 421.011 386.215 425.766 386.215 430.305 384.915 434.411 382.318 436.788 380.804 438.733 378.855 440.462 376.908L441.111 376.258 438.517 373.661 437.437 374.311ZM487.145 381.885C485.848 381.669 484.984 381.453 484.119 381.02 483.255 380.586 482.607 379.937 481.742 378.855L468.342 362.406C471.584 361.757 474.394 360.458 476.339 358.727 478.932 356.563 480.229 353.749 480.229 349.853 480.229 344.226 477.42 340.33 471.8 338.165 468.991 337.084 465.533 336.65 461.426 336.65L441.111 336.65 441.111 339.897 441.975 339.897C445.001 340.113 445.866 340.763 446.298 340.979 446.514 341.196 447.162 342.279 447.162 345.091L447.162 375.391C447.162 379.072 446.73 379.937 446.514 380.371 446.298 380.586 445.433 381.236 442.191 381.669L441.327 381.669 441.327 384.916 462.939 384.916 462.939 381.669 462.075 381.669C458.833 381.453 457.968 380.804 457.536 380.586 457.32 380.37 456.672 379.505 456.672 376.474L456.672 363.705 458.185 363.705 475.691 385.348 488.442 385.348 488.442 382.102 487.145 381.885ZM456.239 358.943 456.239 342.711C456.239 341.845 456.456 341.628 456.456 341.628 456.456 341.628 457.104 341.412 459.481 341.412 462.291 341.412 464.452 341.845 466.181 342.495 469.207 343.793 470.504 346.174 470.504 349.853 470.504 353.533 468.991 356.129 465.533 357.428 463.804 358.294 460.562 358.943 456.239 358.943Z" fill="#003A70"/></g></g></g><path d="M669.5 259.5 669.5 457.157" stroke="#FFFFFF" stroke-width="6.875" stroke-miterlimit="8" fill="none"/></g></g></svg>