<svg width="11" height="7" viewBox="0 0 11 7" fill="none" xmlns="http://www.w3.org/2000/svg">
<path fill-rule="evenodd" clip-rule="evenodd" d="M-0.0013372 3.5C-0.00133721 3.60312 0.0396288 3.70203 0.11255 3.77495C0.18547 3.84787 0.284372 3.88883 0.387498 3.88883L9.55854 3.88883L7.11122 6.33538C7.03821 6.40839 6.99719 6.50742 6.99719 6.61067C6.99719 6.71393 7.03821 6.81296 7.11122 6.88597C7.18423 6.95898 7.28326 7 7.38651 7C7.48977 7 7.5888 6.95898 7.66181 6.88597L10.7725 3.77529C10.8087 3.73918 10.8374 3.69627 10.857 3.64903C10.8766 3.60179 10.8867 3.55115 10.8867 3.5C10.8867 3.44885 10.8766 3.39821 10.857 3.35097C10.8374 3.30373 10.8087 3.26082 10.7725 3.2247L7.66181 0.114031C7.62566 0.0778783 7.58274 0.049201 7.5355 0.0296355C7.48827 0.0100701 7.43764 -1.50764e-07 7.38652 -1.52999e-07C7.28326 -1.57512e-07 7.18423 0.0410179 7.11122 0.114031C7.03821 0.187043 6.99719 0.28607 6.99719 0.389325C6.99719 0.492581 7.03821 0.591607 7.11122 0.66462L9.55854 3.11117L0.387498 3.11117C0.284372 3.11117 0.18547 3.15213 0.11255 3.22505C0.0396288 3.29797 -0.0013372 3.39687 -0.0013372 3.5Z" fill="#CEFF00"/>
<path fill-rule="evenodd" clip-rule="evenodd" d="M-0.0013372 3.5C-0.00133721 3.60312 0.0396288 3.70203 0.11255 3.77495C0.18547 3.84787 0.284372 3.88883 0.387498 3.88883L9.55854 3.88883L7.11122 6.33538C7.03821 6.40839 6.99719 6.50742 6.99719 6.61067C6.99719 6.71393 7.03821 6.81296 7.11122 6.88597C7.18423 6.95898 7.28326 7 7.38651 7C7.48977 7 7.5888 6.95898 7.66181 6.88597L10.7725 3.77529C10.8087 3.73918 10.8374 3.69627 10.857 3.64903C10.8766 3.60179 10.8867 3.55115 10.8867 3.5C10.8867 3.44885 10.8766 3.39821 10.857 3.35097C10.8374 3.30373 10.8087 3.26082 10.7725 3.2247L7.66181 0.114031C7.62566 0.0778783 7.58274 0.049201 7.5355 0.0296355C7.48827 0.0100701 7.43764 -1.50764e-07 7.38652 -1.52999e-07C7.28326 -1.57512e-07 7.18423 0.0410179 7.11122 0.114031C7.03821 0.187043 6.99719 0.28607 6.99719 0.389325C6.99719 0.492581 7.03821 0.591607 7.11122 0.66462L9.55854 3.11117L0.387498 3.11117C0.284372 3.11117 0.18547 3.15213 0.11255 3.22505C0.0396288 3.29797 -0.0013372 3.39687 -0.0013372 3.5Z" fill="#CEFF00"/>
<path fill-rule="evenodd" clip-rule="evenodd" d="M-0.0013372 3.5C-0.00133721 3.60312 0.0396288 3.70203 0.11255 3.77495C0.18547 3.84787 0.284372 3.88883 0.387498 3.88883L9.55854 3.88883L7.11122 6.33538C7.03821 6.40839 6.99719 6.50742 6.99719 6.61067C6.99719 6.71393 7.03821 6.81296 7.11122 6.88597C7.18423 6.95898 7.28326 7 7.38651 7C7.48977 7 7.5888 6.95898 7.66181 6.88597L10.7725 3.77529C10.8087 3.73918 10.8374 3.69627 10.857 3.64903C10.8766 3.60179 10.8867 3.55115 10.8867 3.5C10.8867 3.44885 10.8766 3.39821 10.857 3.35097C10.8374 3.30373 10.8087 3.26082 10.7725 3.2247L7.66181 0.114031C7.62566 0.0778783 7.58274 0.049201 7.5355 0.0296355C7.48827 0.0100701 7.43764 -1.50764e-07 7.38652 -1.52999e-07C7.28326 -1.57512e-07 7.18423 0.0410179 7.11122 0.114031C7.03821 0.187043 6.99719 0.28607 6.99719 0.389325C6.99719 0.492581 7.03821 0.591607 7.11122 0.66462L9.55854 3.11117L0.387498 3.11117C0.284372 3.11117 0.18547 3.15213 0.11255 3.22505C0.0396288 3.29797 -0.0013372 3.39687 -0.0013372 3.5Z" fill="black"/>
</svg>
