<svg width="40" height="40" viewBox="0 0 40 40" fill="none" xmlns="http://www.w3.org/2000/svg">
<g clip-path="url(#clip0_173_88)">
<path d="M30.9825 0H9.0175C4.03727 0 0 4.03727 0 9.0175V30.9825C0 35.9627 4.03727 40 9.0175 40H30.9825C35.9627 40 40 35.9627 40 30.9825V9.0175C40 4.03727 35.9627 0 30.9825 0Z" fill="black"/>
<path d="M28.6282 27.4685L22.2616 18.2131L21.5366 17.1709L16.9825 10.555L16.6086 10.0112H11.0124L12.3831 11.9937L18.4439 20.796L19.1689 21.8382L24.0402 28.9072L24.414 29.451H30.0103L28.6282 27.4685ZM25.0711 28.1935L20.0185 20.8413L19.2935 19.7991L13.4253 11.2687H15.9516L20.6982 18.1678L21.4233 19.21L27.5973 28.1935H25.0711Z" fill="white"/>
<path d="M19.2935 19.7991L20.0072 20.8413L19.1576 21.8382L12.6097 29.4623H10.9897L18.4326 20.796L19.2935 19.7991Z" fill="white"/>
<path d="M29.3193 10L22.2616 18.2245L21.4119 19.2101L20.6869 18.1679L21.5479 17.171L26.3285 11.6087L27.7106 10H29.3193Z" fill="white"/>
</g>
<defs>
<clipPath id="clip0_173_88">
<rect width="40" height="40" fill="white"/>
</clipPath>
</defs>
</svg>
